<mxfile host="app.diagrams.net" modified="2023-06-01T16:47:17.483Z" agent="Mozilla/5.0 (X11; Linux x86_64) AppleWebKit/537.36 (KHTML, like Gecko) Chrome/109.0.0.0 Safari/537.36" etag="61LdfsXcUPvL4oJ-RqKi" version="21.3.4" type="github">
  <diagram name="Page-1" id="2tjgdu6FyNnZksxn4xS8">
    <mxGraphModel dx="2240" dy="1035" grid="1" gridSize="10" guides="1" tooltips="1" connect="1" arrows="1" fold="1" page="1" pageScale="1" pageWidth="850" pageHeight="1100" math="1" shadow="0">
      <root>
        <mxCell id="0" />
        <mxCell id="1" parent="0" />
        <mxCell id="caR4HVADCC_KzCn6fIui-49" value="" style="shape=flexArrow;endArrow=none;html=1;rounded=0;fillColor=#d0cee2;strokeColor=#E5CCFF;fontFamily=Verdana;fontSize=13;exitX=1;exitY=0.5;exitDx=0;exitDy=0;endFill=0;" edge="1" parent="1" source="caR4HVADCC_KzCn6fIui-43" target="caR4HVADCC_KzCn6fIui-47">
          <mxGeometry width="50" height="50" relative="1" as="geometry">
            <mxPoint x="120" y="214.5" as="sourcePoint" />
            <mxPoint x="940" y="214.5" as="targetPoint" />
          </mxGeometry>
        </mxCell>
        <mxCell id="caR4HVADCC_KzCn6fIui-5" style="edgeStyle=orthogonalEdgeStyle;rounded=0;orthogonalLoop=1;jettySize=auto;html=1;exitX=0.5;exitY=1;exitDx=0;exitDy=0;exitPerimeter=0;entryX=0.5;entryY=0;entryDx=0;entryDy=0;fontFamily=Verdana;fontSize=13;" edge="1" parent="1" source="caR4HVADCC_KzCn6fIui-2" target="caR4HVADCC_KzCn6fIui-4">
          <mxGeometry relative="1" as="geometry" />
        </mxCell>
        <mxCell id="caR4HVADCC_KzCn6fIui-2" value="Data" style="shape=cylinder3;whiteSpace=wrap;html=1;boundedLbl=1;backgroundOutline=1;size=15;fontFamily=Verdana;fontSize=13;" vertex="1" parent="1">
          <mxGeometry x="115" y="290" width="90" height="80" as="geometry" />
        </mxCell>
        <mxCell id="caR4HVADCC_KzCn6fIui-10" style="edgeStyle=orthogonalEdgeStyle;rounded=0;orthogonalLoop=1;jettySize=auto;html=1;exitX=1;exitY=0.5;exitDx=0;exitDy=0;entryX=0;entryY=0.5;entryDx=0;entryDy=0;fontFamily=Verdana;fontSize=13;" edge="1" parent="1" source="caR4HVADCC_KzCn6fIui-4" target="caR4HVADCC_KzCn6fIui-8">
          <mxGeometry relative="1" as="geometry" />
        </mxCell>
        <mxCell id="caR4HVADCC_KzCn6fIui-12" style="edgeStyle=orthogonalEdgeStyle;rounded=0;orthogonalLoop=1;jettySize=auto;html=1;exitX=1;exitY=0.5;exitDx=0;exitDy=0;entryX=0;entryY=0;entryDx=0;entryDy=30;entryPerimeter=0;fontFamily=Verdana;fontSize=13;" edge="1" parent="1" source="caR4HVADCC_KzCn6fIui-4" target="caR4HVADCC_KzCn6fIui-11">
          <mxGeometry relative="1" as="geometry" />
        </mxCell>
        <mxCell id="caR4HVADCC_KzCn6fIui-19" style="edgeStyle=orthogonalEdgeStyle;rounded=0;orthogonalLoop=1;jettySize=auto;html=1;exitX=1;exitY=0.5;exitDx=0;exitDy=0;entryX=0;entryY=0.538;entryDx=0;entryDy=0;entryPerimeter=0;fontFamily=Verdana;fontSize=13;" edge="1" parent="1" source="caR4HVADCC_KzCn6fIui-4" target="caR4HVADCC_KzCn6fIui-17">
          <mxGeometry relative="1" as="geometry" />
        </mxCell>
        <mxCell id="caR4HVADCC_KzCn6fIui-4" value="VIP HCI&lt;br style=&quot;font-size: 13px;&quot;&gt;MODULE" style="rounded=1;whiteSpace=wrap;html=1;fontFamily=Verdana;fontSize=13;" vertex="1" parent="1">
          <mxGeometry x="100" y="430" width="120" height="60" as="geometry" />
        </mxCell>
        <mxCell id="caR4HVADCC_KzCn6fIui-6" value="Companion &lt;br style=&quot;font-size: 13px;&quot;&gt;Candidates" style="swimlane;fontStyle=0;childLayout=stackLayout;horizontal=1;startSize=45;horizontalStack=0;resizeParent=1;resizeParentMax=0;resizeLast=0;collapsible=1;marginBottom=0;whiteSpace=wrap;html=1;fontFamily=Verdana;fontSize=13;" vertex="1" parent="1">
          <mxGeometry x="260" y="270" width="90" height="190" as="geometry" />
        </mxCell>
        <mxCell id="caR4HVADCC_KzCn6fIui-7" value="$$x_0, y_0, f_0$$" style="text;strokeColor=none;fillColor=none;align=center;verticalAlign=middle;spacingLeft=4;spacingRight=4;overflow=hidden;points=[[0,0.5],[1,0.5]];portConstraint=eastwest;rotatable=0;whiteSpace=wrap;html=1;fontFamily=Verdana;fontSize=13;" vertex="1" parent="caR4HVADCC_KzCn6fIui-6">
          <mxGeometry y="45" width="90" height="35" as="geometry" />
        </mxCell>
        <mxCell id="caR4HVADCC_KzCn6fIui-8" value="$$x_1, y_1, f_1$$" style="text;strokeColor=none;fillColor=none;align=center;verticalAlign=middle;spacingLeft=4;spacingRight=4;overflow=hidden;points=[[0,0.5],[1,0.5]];portConstraint=eastwest;rotatable=0;whiteSpace=wrap;html=1;fontFamily=Verdana;fontSize=13;" vertex="1" parent="caR4HVADCC_KzCn6fIui-6">
          <mxGeometry y="80" width="90" height="40" as="geometry" />
        </mxCell>
        <mxCell id="caR4HVADCC_KzCn6fIui-16" value="$$\vdots$$" style="text;html=1;strokeColor=none;fillColor=none;align=center;verticalAlign=middle;whiteSpace=wrap;rounded=0;fontFamily=Verdana;fontSize=13;" vertex="1" parent="caR4HVADCC_KzCn6fIui-6">
          <mxGeometry y="120" width="90" height="30" as="geometry" />
        </mxCell>
        <mxCell id="caR4HVADCC_KzCn6fIui-9" value="$$x_n, y_n, f_n$$" style="text;strokeColor=none;fillColor=none;align=center;verticalAlign=middle;spacingLeft=4;spacingRight=4;overflow=hidden;points=[[0,0.5],[1,0.5]];portConstraint=eastwest;rotatable=0;whiteSpace=wrap;html=1;fontFamily=Verdana;fontSize=13;" vertex="1" parent="caR4HVADCC_KzCn6fIui-6">
          <mxGeometry y="150" width="90" height="40" as="geometry" />
        </mxCell>
        <mxCell id="caR4HVADCC_KzCn6fIui-23" style="edgeStyle=orthogonalEdgeStyle;rounded=0;orthogonalLoop=1;jettySize=auto;html=1;exitX=0;exitY=0;exitDx=90;exitDy=50;exitPerimeter=0;entryX=0;entryY=0.5;entryDx=0;entryDy=0;fontFamily=Verdana;fontSize=13;" edge="1" parent="1" source="caR4HVADCC_KzCn6fIui-11" target="caR4HVADCC_KzCn6fIui-20">
          <mxGeometry relative="1" as="geometry">
            <Array as="points">
              <mxPoint x="370" y="530" />
              <mxPoint x="370" y="460" />
            </Array>
          </mxGeometry>
        </mxCell>
        <mxCell id="caR4HVADCC_KzCn6fIui-11" value="Centered Cube (s)" style="shape=cube;whiteSpace=wrap;html=1;boundedLbl=1;backgroundOutline=1;darkOpacity=0.05;darkOpacity2=0.1;fontFamily=Verdana;fontSize=13;" vertex="1" parent="1">
          <mxGeometry x="260" y="480" width="90" height="80" as="geometry" />
        </mxCell>
        <mxCell id="caR4HVADCC_KzCn6fIui-24" style="edgeStyle=orthogonalEdgeStyle;rounded=0;orthogonalLoop=1;jettySize=auto;html=1;exitX=0;exitY=0;exitDx=90;exitDy=50;exitPerimeter=0;entryX=0;entryY=0.5;entryDx=0;entryDy=0;fontFamily=Verdana;fontSize=13;" edge="1" parent="1" source="caR4HVADCC_KzCn6fIui-17" target="caR4HVADCC_KzCn6fIui-20">
          <mxGeometry relative="1" as="geometry">
            <Array as="points">
              <mxPoint x="370" y="620" />
              <mxPoint x="370" y="460" />
            </Array>
          </mxGeometry>
        </mxCell>
        <mxCell id="caR4HVADCC_KzCn6fIui-17" value="Normalized&lt;br style=&quot;font-size: 13px;&quot;&gt;PSF (s)" style="shape=cube;whiteSpace=wrap;html=1;boundedLbl=1;backgroundOutline=1;darkOpacity=0.05;darkOpacity2=0.1;fontFamily=Verdana;fontSize=13;" vertex="1" parent="1">
          <mxGeometry x="260" y="570" width="90" height="80" as="geometry" />
        </mxCell>
        <mxCell id="caR4HVADCC_KzCn6fIui-26" style="edgeStyle=orthogonalEdgeStyle;rounded=0;orthogonalLoop=1;jettySize=auto;html=1;exitX=1;exitY=0.5;exitDx=0;exitDy=0;entryX=0;entryY=0.5;entryDx=0;entryDy=0;fontFamily=Verdana;fontSize=13;" edge="1" parent="1" source="caR4HVADCC_KzCn6fIui-20" target="caR4HVADCC_KzCn6fIui-21">
          <mxGeometry relative="1" as="geometry" />
        </mxCell>
        <mxCell id="caR4HVADCC_KzCn6fIui-20" value="Neural Network Module" style="rounded=1;whiteSpace=wrap;html=1;fontFamily=Verdana;fontSize=13;" vertex="1" parent="1">
          <mxGeometry x="410" y="430" width="110" height="60" as="geometry" />
        </mxCell>
        <mxCell id="caR4HVADCC_KzCn6fIui-32" style="edgeStyle=orthogonalEdgeStyle;rounded=0;orthogonalLoop=1;jettySize=auto;html=1;exitX=1;exitY=0.5;exitDx=0;exitDy=0;entryX=0;entryY=0.5;entryDx=0;entryDy=0;fontFamily=Verdana;fontSize=13;" edge="1" parent="1" source="caR4HVADCC_KzCn6fIui-21" target="caR4HVADCC_KzCn6fIui-29">
          <mxGeometry relative="1" as="geometry" />
        </mxCell>
        <mxCell id="caR4HVADCC_KzCn6fIui-21" value="Hamiltonian MCMC" style="rounded=1;whiteSpace=wrap;html=1;fontFamily=Verdana;fontSize=13;" vertex="1" parent="1">
          <mxGeometry x="580" y="430" width="120" height="60" as="geometry" />
        </mxCell>
        <mxCell id="caR4HVADCC_KzCn6fIui-22" style="edgeStyle=orthogonalEdgeStyle;rounded=0;orthogonalLoop=1;jettySize=auto;html=1;exitX=1;exitY=0.5;exitDx=0;exitDy=0;entryX=0;entryY=0.5;entryDx=0;entryDy=0;fontFamily=Verdana;fontSize=13;" edge="1" parent="1" source="caR4HVADCC_KzCn6fIui-8" target="caR4HVADCC_KzCn6fIui-20">
          <mxGeometry relative="1" as="geometry">
            <Array as="points">
              <mxPoint x="370" y="370" />
              <mxPoint x="370" y="460" />
            </Array>
          </mxGeometry>
        </mxCell>
        <mxCell id="caR4HVADCC_KzCn6fIui-25" value="First Guess" style="text;html=1;strokeColor=none;fillColor=none;align=center;verticalAlign=middle;whiteSpace=wrap;rounded=0;fontFamily=Verdana;fontSize=13;" vertex="1" parent="1">
          <mxGeometry x="520" y="420" width="60" height="30" as="geometry" />
        </mxCell>
        <mxCell id="caR4HVADCC_KzCn6fIui-27" value="Companions&lt;br style=&quot;font-size: 13px;&quot;&gt;Parameters" style="swimlane;fontStyle=0;childLayout=stackLayout;horizontal=1;startSize=45;horizontalStack=0;resizeParent=1;resizeParentMax=0;resizeLast=0;collapsible=1;marginBottom=0;whiteSpace=wrap;html=1;fontFamily=Verdana;fontSize=13;" vertex="1" parent="1">
          <mxGeometry x="790" y="360" width="90" height="190" as="geometry" />
        </mxCell>
        <mxCell id="caR4HVADCC_KzCn6fIui-28" value="$$x_0, y_0, f_0$$" style="text;strokeColor=none;fillColor=none;align=center;verticalAlign=middle;spacingLeft=4;spacingRight=4;overflow=hidden;points=[[0,0.5],[1,0.5]];portConstraint=eastwest;rotatable=0;whiteSpace=wrap;html=1;fontFamily=Verdana;fontSize=13;" vertex="1" parent="caR4HVADCC_KzCn6fIui-27">
          <mxGeometry y="45" width="90" height="35" as="geometry" />
        </mxCell>
        <mxCell id="caR4HVADCC_KzCn6fIui-29" value="$$x_1, y_1, f_1$$" style="text;strokeColor=none;fillColor=none;align=center;verticalAlign=middle;spacingLeft=4;spacingRight=4;overflow=hidden;points=[[0,0.5],[1,0.5]];portConstraint=eastwest;rotatable=0;whiteSpace=wrap;html=1;fontFamily=Verdana;fontSize=13;" vertex="1" parent="caR4HVADCC_KzCn6fIui-27">
          <mxGeometry y="80" width="90" height="40" as="geometry" />
        </mxCell>
        <mxCell id="caR4HVADCC_KzCn6fIui-30" value="$$\vdots$$" style="text;html=1;strokeColor=none;fillColor=none;align=center;verticalAlign=middle;whiteSpace=wrap;rounded=0;fontFamily=Verdana;fontSize=13;" vertex="1" parent="caR4HVADCC_KzCn6fIui-27">
          <mxGeometry y="120" width="90" height="30" as="geometry" />
        </mxCell>
        <mxCell id="caR4HVADCC_KzCn6fIui-31" value="$$x_n, y_n, f_n$$" style="text;strokeColor=none;fillColor=none;align=center;verticalAlign=middle;spacingLeft=4;spacingRight=4;overflow=hidden;points=[[0,0.5],[1,0.5]];portConstraint=eastwest;rotatable=0;whiteSpace=wrap;html=1;fontFamily=Verdana;fontSize=13;" vertex="1" parent="caR4HVADCC_KzCn6fIui-27">
          <mxGeometry y="150" width="90" height="40" as="geometry" />
        </mxCell>
        <mxCell id="caR4HVADCC_KzCn6fIui-33" value="Parameters distributions" style="text;html=1;strokeColor=none;fillColor=none;align=center;verticalAlign=middle;whiteSpace=wrap;rounded=0;fontFamily=Verdana;fontSize=13;" vertex="1" parent="1">
          <mxGeometry x="710" y="420" width="70" height="30" as="geometry" />
        </mxCell>
        <mxCell id="caR4HVADCC_KzCn6fIui-39" value="" style="shape=image;imageAspect=0;aspect=fixed;verticalLabelPosition=bottom;verticalAlign=top;image=data:image/png,iVBORw0KGgoAAAANSUhEUgAACaAAAAMlCAYAAACPF8ZeAAAACXBIWXMAAAsTAAALEwEAmpwYAAAgAElEQVR4nOzdu24lWXYm4F2CICABFUpA+/kAKktue5LDtmTSICRXFttsMAHZCWShTJYldxpl0JTFcmTOG0gPMH4DasxgBLShM0YxzkQtrn2JcyLOhfw+J+LsuO2k1E7hx79KAQAAAAAAAAAAAAAAAAAAAAAAAAAAAAAAAAAAAAAAAAAAAAAAAAAAAAAAAAAAAAAAAAAAAAAAAAAAAAAAAAAAAAAAAAAAAAAAAAAAAAAAAAAAAAAAAAAAAAAAAAAAAAAAAAAAAAAAAAAAAAAAAAAAAAAAAAAAAAAAAAAAAAAAAAAAAAAAAAAAAAAAAAAAAAAAAAAAAAAAAAAAAAAAAAAAAAAAAAAAAAAAAAAAAAAAAAAAAAAAAAAAAAAAAAAAAAAAAAAAAAAAAAAAAAAAAAAAAAAAAAAAAAAAAAAAAAAAAAAAAAAAAAAAAAAAAAAAAAAAAAAAAAAAAAAAAAAAAAAAAAAAAAAAAAAAAAAAAAAAAAAAAAAAAAAAAAAAAAAAAAAAAAAAAAAAAAAAAAAAAAAAAAAAAAAAAAAAAAAAAAAAAAAAAAAAAAAAAAAAAAAAAAAAAAAAAAAAAAAAAAAAAAAAAAAAAAAAAAAAAAAAAAAAAAAAAAAAAAAAAAAAAAAAAAAAAAAAAAAAAAAAAAAAAAAAAAAAAAAAAAAAAAAAAAAAAAAAAAAAAAAAAAAAAAAAAAAAAAAAAAAAAAAAAAAAAAAAAAAAAAAAAAAAAAAAAAAAAAAAAAAAAAAAAAAAAAAAAAAAAAAAAAAAAAAAAAAAAAAAAAAAAAAAAAAAAAAAAAAAAAAAAAAAAAAAAAAAAAAAAAAAAAAAAAAAAAAAAAAAAAAAAAAAAAAAAAAAAAAAAAAAAAAAAAAAAAAAAAAAAAAAAAAAAAAAAAAAAAAAAAAAAAAAAAAAAAAAAAAAAAAAAAAAAAAAAAAAAAAAAAAAAAAAAAAAAAAAAAAAAAAAAAAAAAAAAAAAAAAAAAAAAAAAAAAAAAAAAAAAAAAAAAAAAAAAAAAAAAAAAAAAAAAAAAAAAAAAAAAAAAAAAAAAAAAAAAAAAAAAAAAAAAAAAAAAAAAAAAAAAAAAAAAAAAAAAAAAAAAAAAAAAAAAAAAAAAAAAAAAAAAAAAAAAAAAAAAAAAAAAAAAAAAAAAAAAAAAAAAAAAAAAAAAAAAAAAAAAAAAAAAAAAAAAAAAAAAAAAAAAAAAAAAAAAAAAAAAAAAAAAAAAAAAAAAAAAAAAAAAAAAAAAAAAAAAAAAAAAAAAAAAAAAAAAAAAAAAAAAAAAAAAAAAAAAAAAAAAAAAAAAAAAAAAAAAAAAAAAAAAAAAAAAAAAAAAAAAAAAAAAAAAAAAAAAAAAAAAAAAAAAAAAAAAAAAAAAAAAAAAAAAAAAAAAAAAAAAAAAAAAAAAAAAAAAAAAAAAAAAAAAAAAAAAAAAAAAAAAAAAAAAAAAAAAAAAAAAAAAAAAAAAAAAAAAAAAAAAAAAAAAAAAAAAAAAAAAAAAAAAAAAAAAAAAAAAAAAAAAAAAAAAAAAAAAAAAAAAAAAAAAAAAAAAAAAAAAAAAAAAAAAAAAAAAAAAAAAAAAAAAAAAAAAAAAAAAAAAAAAAAAAAAAAAAAAAAAAAAAAAAAAAAAAAAAAAAAAAAAAAAAAAAAAAAAAAAAAAAAAAAAAAAAAAAAAAAAAAAAAAAAAAAAAAAAAAAAAAAAAAAAAAAAAAAAAAAAAAAAAAAAAAAAAAAAAAAAAAAAAAAAAAAAAAAAAAAAAAAAAAAAAAAAAAAAAAAAAAAAAAAAAAAAAAAAAAAAAAAAAAAAAAAAAAAAAAAAAAAAAAAAAAAAAAAAAAAAAAAAAAAAAAAAAAAAAAAAAAAAAAAAAAAAAAAAAAAAAAAAAAAAAAAAAAAAAAAAAAAAAAAAAAAAAAAAAAAAAAAAAAAAAAAAAAAAAAAAAAAAAAAAAAAAAAAAAAAAAAAAAAAAAAAAAAAAAAAAAAAAAAAAAAAAAAAAAAAAAAAAAAAAAAAAAAAAAAAAAAAAAAAAAAAAAAAAAAAAAAAAAAAAAAAAAAAAAAAAAAAAAAAAAAAAAAAAAAAAAAAAAAAAAAAAAAAAAAAAAAAAAAAAAAAAAAAAAAAAAAAAAAAAAAAAAAAAAAAAAAAAAAAAAAAAAAAAAAAAAAAAAAAAAAAAAAAAAAAAAAAAAAAAAAAAAAAAAAAAAAAAAAAAAAAAAAAAAAAAAAAAAAAAAAAAAAAAAAAAAAAAAAAAAAAAAAAAAAAAAAAAAAAAAAAAAAAAAAAAAAAAAAAAAAAAAAAAAAAAAAAAAAAAAAAAAAAAAAAAAAAAAAAAAAAAAAAAAAAAAAAAAAAAAAAAAAIC++7vbm93nsjv6Hd+XL/d3tzdr7QsAAAAAAAAAgNP6s3NvALguu+/Ll8dvn55XedmfysPjt0/Pu+/Ll1XeBwAAAAAAAADASQmgAUN235cvu89lVz6Uh9Vf/qE87D6XnSAaAAAAAAAAAMB1EUADmvbBsz+9BM/+uPIHvnl55zellD/9HEQzlhMAAAAAAAAA4DoIoAGp+7vbm18Ez0r5OSS2til8NgXbvinl8dc/j+UURAMAAAAAAAAAuGwCaMAru+/Ll8dvn55LKb8Mnc1CYquZN6BN3/hjKeVDeZiCaCt+DQAAAAAAAACAFQmgAXv7cZsfZq1nWehszTGcSQPa/vdLEG33uewE0QAAAAAAAAAALo8AGvD/g2fTuM0sYLZF+9n83bEBLX7nJYhmLCcAAAAAAAAAwOUQQIN37P7u9uYXwbPom3AsZd32s/l35qGz+e9wnMZyCqIBAAAAAAAAAJyfABq8U7vvy5fHb5+emzf9MRy3aD+bj9+cf7cWQnsZyzkF0TbYEQAAAAAAAAAAgwTQ4J15NW5z8s3A+RbtZ9m4zSyUll37U3nY/VB2gmgAAAAAAAAAAOchgAbvRDV4Nvlj57wWSjvWPFAWG89GvQTRjOUEAAAAAAAAADgtATR44+7vbm+awbNe0Gu6XguoHas23nMeRhs0jeUURAMAAAAAAAAAOA0BNHjDdt+XL4/fPj03b5oHvLKWs1M0oMX91EZy9o6llPKhPExBtBV3CQAAAAAAAABAQgAN3qDuuM2aVsvZlg1o8wDZaNisdpze8zKWUxANAAAAAAAAAGA7AmjwhiwOnrWazGqNZ2u2n03vm7eeZcG3JSG0uPbh5yCasZwAAAAAAAAAAOsTQIM34P7u9uaoxrPW6M3W+RqyBrS5kdBZ7X2z905jOQXRAAAAAAAAAADWI4AGV273uewev316PuoltYDZKVrQFgbJUqPBtA/lYQqirbBzAAAAAAAAAIB3TwANrtR+3OaWTtGCFgNmWXhssmQUZ9zjfO1lLKcgGgAAAAAAAADAcQTQ4Mrsg2dLx21moa6RhrOtms/m5qGzLDy2JHTWCqPFoNtLEM1YTgAAAAAAAACAwwigwZW4v7u9OSh4Nslay0YazuL5FiG03vjMY8Jn8+ezd5ZSprGcgmgAAAAAAAAAAMsIoMEV2H0uu8dvn55P+tFa89ma4zend8fxm7VvjITNsmdq3/tmds+H8jAF0Zb+EwAAAAAAAAAA3isBNLhg+3GbW8vCZrUWtLUb0GpNZa3WslrobCSgFkNu8T0vYzkF0QAAAAAAAAAA+gTQ4ALtg2eHjtscdUjYbMsGtLjWajVrNaVl74mtZ1kwbX58CaIZywkAAAAAAAAAUCeABhfk/u725iTBs0kvwJWF0bZoQJvee2iwbLQRbVrLWtYqgbRpLKcgGgAAAAAAAADAawJocCF2n8vu8dun580+0AuOxetZmGt+XEstNJatjRzju7MGtNqoz6wprZRSPpSHKYi25J8GAAAAAAAAAPDWCaDBme3Hbc7978p5a60nC45907heG8W5RQNaLQRWwtpo81l8d3xvbDqrnc+PpezHcgqiAQAAAAAAAAD8TAANzmQfPMvGbX5dOW+tHaIXSothrNozx6iFyEYbz0ZGdtYCbb3z+TEJohnLCQAAAAAAAAC8dwJocGL3d7c3r4JnvcazrdWa0E7RghZbyWq/S7I+MlY0u/+QBrQkiDaN5RREAwAAAAAAAADeKwE0OKHd57J7/PbpuZTyy6BZ1nh2yiBarwkt3rNmC1ockVn7XZL1keaz7N+xJIgWvxPf96E8TEG0zm4AAAAAAAAAAN4cATQ4gf24zbmvS7v5rDZmc81gWhbumpyi/Sx+Z/q9dPxmreksvrO21mtBi81s2b5fxnIKogEAAAAAAAAA74kAGmxoHzz7U3nYB8eObT6rBdN6suBYFv7Kntmq/Sx+I54v+VarGW2+NjqOs1TO4zF6CaIZywkAAAAAAAAAvAcCaLCB+7vbm1fBs6/DsdZ+dmjArKcV5qqFqU7RgtYaszk/7wXSWo1otftq3yoDx861aSynIBoAAAAAAAAA8JYJoMHKdp/L7vHbp+dSys/Bslqz2Xw9hs7ivWuO3cyMBM22akGLoa/aGM14/9IxnHG9FUIbOfaulVLKh/IwBdEq/xoAAAAAAAAAgKsmgAYr2Y/bnMRgWQyixWa0ktxb+72W3ljOGMqqPXOM7BvT+pKwWRY6a43aLKUeQjukBS2ez72M5RREAwAAAAAAAADeGgE0ONI+ePaH8lBKeR0sqzWf9UZxtqzViFZrPou/t2o/y77bCpKNNKSNjuBsnce9jbSgxfPMSxDNWE4AAAAAAAAA4K0QQIMD3d/d3vwieDYPls1bzmrNZ1kD2vy8FTLbohEtC2rNbdWCFoNiWWisFig7dARna/RmfHbtNrRSyjSWUxANAAAAAAAAALh2AmhwgN3nsnv89un5F4tZ6CwLl7Ua0ObWDpnVQmPZehY226oFbTQw1mo+q907N3+2NXozG9M5cmydZ3+vD+VhCqIlVwEAAAAAAAAAroIAGiywH7dZSn+05vyeeJyfj47iPHbsZi00lq23wmZrtp/N3x+DY71AWXxHL7DWCprFMFkWRFvSeLbkb/YyllMQDQAAAAAAAAC4RgJoMGAfPJvGbc5bziZZ2KzVehafr43ibK2tKWsgy87XbD+bv7sVGCvJPUuOJVkvyXm2dkjj2SEhvZcgmrGcAAAAAAAAAMA1EUCDhvu725vd57IrfyoP1dBZ1nw2/91qPYvrvbW1tYJlp2xBm75xbOis9ly2Hs9r10v5ZThtfhy9Fs8bprGcgmgAAAAAAAAAwDUQQIOK3eeye/z26flVEKzXfhaDZ1nrWWxLy8JqrcaztcJpWShqpNVrzRa0ViPZIU1n8b1Z2CwLmbWCZyMtaEsa0no+lIcpiLbgKQAAAAAAAACAkxNAg2A/bjOGvL4ur0Nkca0VNstGbLbGcLasPY6zFi7LzrdsP4t76oXMWvfF97UCabW17O/Saj+L58d6GcspiAYAAAAAAAAAXCoBNHixD579YTZuc34slfOs1Wyk9Sye19bWajtrBceWNKGtGbCK757eXwubldIPpGXvGr02X+u1oPXW1gylvQTRjOUEAAAAAAAAAC6NABrv3v3d7c2r4FkMn82DZ5Na0CyG1Eo4r13P1rLfh+qFzOLvWoBq7Qa0kVGZS46tb8xlYz9rrWglWY/n8fcGAb5pLKcgGgAAAAAAAABwKQTQeNd2n8vu8ePT834hC5rFprPs3vjc/HfWeBZb0eZr8d4tnThAlaqFx5Y0nc2NjOGczuffidfjd7NmtPh3GQnnHRvg+1AepiDakW8CAAAAAAAAADiaABrv0u778mX3qexetZxlWiM1ayG0kUa0eC1q7WdtWSjqlA1o03HJ6M1e69n8/b0gWmvsZmw+i81opfJ7fm88b62NehnLKYgGAAAAAAAAAJyTABrvyu778mU/bjMbtdlSC5z1xnCW8rrxrHUtnkdrjeScG2k+i+GstcTGsRgMGznW3lsb75mFz7IWtLi/Urm/JOfze+N5a22plyCasZwAAAAAAAAAwDkIoPEu3N/d3uyDZ/MgWWxA6x3nWs1opbxuRCvllwG1+fp8LZ5vaUlrV635ay2tsNgxozhra62w27TWOsZAWjxfO6jXMY3lFEQDAAAAAAAAAE5JAI03b/e57B4/Pj3vF3ojN+M9reazGCxrNaKV8rrZLNtD1n62xtjNXtisNVJyy2BVLRQWr4+M2+y9v/fN1loWOBttPztVGO1DeZiCaCf6IgAAAAAAAADwzgmg8Wbtvi9fdp/KbnHLWS3s1Ru/md1TkutxrdaSVmtHO1QvBBWv18JVWzWgTe/Ogly18ZtL7mutTeettew4OqJ0q/GlNS9jOQXRAAAAAAAAAICtCaDx5uyDZ38oD93g1tJQ2tLzkVBZPMbrWxttPtsqRLU0dBaDcSPPT2tzrRa02pjNrCmthPNW81m2hy29BNGM5QQAAAAAAAAAtiKAxptxf3d7s/tcCZ7VgmWjsma0XjhtfmwF0ZaO11xjHOfcaPNZLci11vez0NhowKwWUCslf19cr91Twvr8WMJ92d+l97fask1uZhrLKYgGAAAAAAAAAKxNAI03Yfe57B4/Pj2/CoVlQbNDR3LWgmu99rNpvZQ8iJaN5Yzn8XtbGG1C26IBLXvvkhGbo2G0SRY8y4JpMbBW22/tvLV2ah/KwxREO/dWAAAAAAAAAIC3QwCNq7Yft9lqIYuWhM/m5mvZedZ+1hvF2Rq7eYoRnK1gWS1UtUUDWgx/rXmci+vxPNtPSa7Ha6NNaBcSRNv9UHaCaAAAAAAAAADAGgTQuEr74NkfykMppd4oNl+rNZu19J6Zf68VOBsZxRnfu7YsGJUFonrBqi0a0FqjN48JmdWazlrnWSCtlNehtNZoztrfqBbeO0cw7SWIZiwnAAAAAAAAAHAMATSuyv3d7c3i4FnLoW1oWSgthtFKqQfS4ntK5754/RCtkFOtCS0736IBbTpmYzBLuF4bcdkbuXlIIG1+7AXSWi1ovYDZ2n/TBaaxnIJoAAAAAAAAAMAhBNC4GrvPZff48ek5bRzL2slajWWtFrRWW1prxGcWOusF0uJ7RgJzW1jShLZFA9p0XDI+s/ZM6x2T1hjO0cBZCdfjefbspfpQHqYg2rm3AgAAAAAAAABcFwE0Lt5+3GYMb80DXtl5DI2NNqS1GtBarWfxd1wvlWvz69letpSFvCa1YNVWDWjz3602s9q9tfBZtpY1ndWCaL2Rm63ms9bf6hxjN3texnIKogEAAAAAAAAAowTQuFj74Fkct1kLdrXOeyM1M60GtN4IztrozSxEl10vYX0rtcauUk7fgFYLgC19VzZus4S1rOmsFkqL+8ya0FotaLX1S25FewmiGcsJAAAAAAAAAPQIoHFx7u9ub/bBs6xdLGsTGwmfxXf0Qmm9tdYIztrozbjeG+OZ2aIVLQtDnboBrTc2c35/rfWs9f5WO1p2Pt9TfE+295Kcb/l3O4FpLKcgGgAAAAAAAABQI4DGRdl9LrvHj0/P1eBWFjSrjdrMwmWtBrPsmayRrPbd+fPz69n+5+dZoKzVfHZoK9roOMhamCprBVtD3FcvUNYauTkykjM2nbUa0Ep4rnZtjbDeJY7kLKWUD+VhCqKdeysAAAAAAAAAwOURQOMi7Mdt1kJZWRAtaxmrtaGNBst67WijrWitIFqtDa32b15LFnBa0nyWhbPWkI3MzFrR1gqdjXyvDBzn57XQXvZvrbn0hrSXsZyCaAAAAAAAAADAnAAaZ7UPnv2hPOwXW2Mqs2BXLyBWawwbCZ3VAmu1IFprPzF4Nl/L9ll7/5pabV0jYyXXUBu9OTJeM7sve25pE9rIcX7eC+3F+6/ZSxDNWE4AAAAAAAAAoBQBNM7k/u725lXwbBJb0Ja0n83PW+1nrXBZCddb69lespazuNf4vmjpWM41xLDUGmMlR7/baiibfzcLovXCa7V3zK/H85Hj/Lw3tjRzqSM3B01jOQXRAAAAAAAAAOB9E0Dj5Hafy+7x49PzLxaztrPWqMuRtrEsEBbfFUNmvXtb95TKPdm4z3hvvG/rsNkkC0j1wlRbN6DVwmPZ/bWwWmvMZnxP7XyNBrTW2htpQ5uCaOfeCgAAAAAAAABwHgJonMx+3GYWtMrCWjGglTWL9RrMsrVWuKvXlpbdM7LH+b8na0fLfm8xcjPqhaV6bV9r7qEVIjv2OJeN2zy2Da3XevYWwmYtL2M5BdEAAAAAAAAA4P0RQGNz++BZa9zmJGtC67WLtcJotYBa3EMvdBbvzfaRfTML27VCd/PfawfSWiGoJU1oWzSgzY9Z+9naYbSRUZzZ3mrHXmiv9vuteQmiGcsJAAAAAAAAAO+HABqbub+7vUmDZ63mryxYNr8naxgbDajVjIbOshGg8R3xm9n9tYa0UvndWx/VCj8taULbqgFt/v7a2iHH+HxJrsW10eaz+f5659nvyRsLpk1jOQXRAAAAAAAAAODtE0BjE7tPZff48ek5vVhr/ColD6NljWK9UZcxsJY1obWazzK9hrVWM1q2t/n1eJ79Hr22RCsgdeoGtPn7W0GtWshs/r7YeNZrQItrxzafZftueYsjOj+UhymIdu6tAAAAAAAAAADbEUBjVftxm6NaYyZje1itBa0WTus1obXGbtZaz2pr8++3GtBqv+N59nv02hKtEZGnbEDLwmG9oFnrHZPas1k7WjwfaT+LIb1T/c2uyctYTkE0AAAAAAAAAHibBNBYxT54FsdtRrXAWRbEqjWC9VrQakGw0bBZrREt+8Z8b6MNaCP/xlPLAlKnbEBrhcSOOWbvK+V10Kw1mnNJ+1lr/GZ85r15CaIZywkAAAAAAAAAb4sAGke5v7u9GQqeTXrjNmv3ZMcsiJa9u7ef+HxsOYv7yprQ4r+l14AWvxX3vWUwbTQYda4GtC3CaKXUv3FoA1ovbDbf+8h978Q0llMQDQAAAAAAAADeBgE0Drb7VHaPH5+eD35BLTSWBdNqx14QbWS05vz7o8/H+7PWtVawrBbEq62tNXKzlHYgqhaqOmUDWm+U5qFNaFkoLYbJjm1Ay/42o+G09+RDeZiCaOfeCgAAAAAAAABwHAE0FtuP2xzVClPVwma1e2rNYvG5WoNZFjKLe1sSOms1obVGccZ91M63lo2p7J1v0YAWf/e+kd1TG+VZa0SrBdGOaUDrBfWyYN179jKWUxANAAAAAAAAAK6XABrD9sGz0XGbk9Y4yVrYqtdwNjL+MmtYy4Jp8bu1EFrru6W8DpuV5N5aK1oWsuv9bbZ2yga06b3xPLaYzZ+pBddagbbauM14PnLshfWycNl7D5zVvATRjOUEAAAAAAAAgOsjgEbX/d3tzUHBs0xv3GSv4Sy7ljWUZb9robL5+3vjOWvfHhnNGf+t2Vr85pL1ll7wKQubnbIBrdZalq0dcizJ+3ptaIc0oMXz+bfomsZyCqIBAAAAAAAAwPUQQKNp96nsHj8+Pa/2wlYQa36ejaycjr13TL9b4zJ7IbPe++bPxH1lLWm9BrTav2MtvQDUSNisFuQ6Vhx7WRuleey752tztSDasQ1orW9S96E8TEG0c28FAAAAAAAAAOgTQCO1H7e5lVqQK/5uNYllIbXW9fm3W81oLa2Ws9pI0Oye2lpt/OZWwbReMGp0tOQxau89pu2s9Y5SXgfNslGcazSgZa1rGQ1pr72M5RREAwAAAAAAAIDLJoDGL+yDZ6cYtzlXG69ZG8+ZBc1GWs1Gwmit50tyT/w3tJrQeg1o8Vrt91p6bWfxPD6zhlYjWVyrtYu1rmf3xBazGEIbOcZAWjyf31v73VtnH0QzlhMAAAAAAAAALpMAGqWUUu7vbm9WC55NsmBVr/msNvpyfi1b+zpcy0ZvZlpNaL0wWgzE1cZuZvvsrbWcYkznklDVGt/NWshqrWYjgbN4b3yudM5HjjGQFs/nNJwdbRrLKYgGAAAAAAAAAJdFAI2y+1R2jx+fnk/60VYjWC2U1gpvtUZvjjafjYTRWnurjQvN9rlkLTqmDS0LSI20crXGSh6rFgxb4zu1cNvIea8BrZSxFrT4TOs+2j6UhymIdu6tAAAAAAAAAAA/E0B7x/bjNs+h1Y4Ww15ZkKy2FgNhtbDWSOgsuz9+syRr2X5GG9BKY20NWeip1nBWC1Vt0YAWv99qQ+sdM1mgbY02tF4LWvbN7D6WeRnLKYgGAAAAAAAAAOcngPYO7YNna47brMmCXKO/s/BWawznoU1n2Z5ro0CzRrTaXub/ntG2s5GxpVurhaSyYNoasuaz1ijLXggtvrsWsGs1oM2/FZ+ZH6f7svN4X/ab4wiiAQAAAAAAAMDZCaC9I/d3tzcnC55NsiDXyO95kCwbszn9rjWiZaG1ktyTNY2NNKNle6hdr/27Rv6t8fraas1dkyxctVUD2jwE1guUjTafZff8sfLN7Ptxj72/R2sfbOcliHZ/d3tz7q0AAAAAAAAAwHsjgPZO7D6V3ePHp+dz72Ov14SWBciyIFqtEa02QvOQMFer5awWdju0AS1ey6zZiDYyZjOGqrZqQGv9Xtp8ln1jHhjrtZ/FtrdsfbQFbf5cjYDaKh5//fSsDQ0AAAAAAAAATksA7Y3bj9u8NL3ms9Z4ylqYKxuLmYXFRo5xb1nDWhZMO7YBbSRctmUj2mTJWMk1vpWFyEZCZyPH7BvZtRKulwXrtcBe9m/KGM25HmM5AQAAAAAAAOCkBNDeqH3w7JTjNluyMZPxvJR+g1jWiNZqIcvuKeF6dsxkAbNWQ1srkLZkbS1ZyKnVdDYaqjpWbYxmq+GsNXaz9VwtmFZ7Z60BrYTf2YjO1v1sTxANAAAAAAAAAE5CAO2Nub+7vbmo4NkkazKbn9dGcsZA2pLxm1mYbKTlrCYbsVlrWpv/G+K+W2ulsrZGIC0LjrWazkbGc66h1k7WC4/Fe48JnNXOs+BdFjarBdTis5zeSxDt/u725txbAQAAAAAAAIC3SADtDdl9KnMWmW4AACAASURBVLvHj0/P597H3pJRkbUWsawtrdU61gud9UZu9lrRas9mezuk7awWNDvF2M1Jrfkstn2t+b0Y+mo1nPXeMTLSswyeZyM747EW1OuF9oTSTurx10/P2tAAAAAAAAAAYH0CaG/AftzmpRkJU/WavmK7WW0ta1CrjdTshdGyNrRWsK22t+x6rwEtux5tPZ6zF6jaogEtfiv73XtHLYRWG+2ZnZcyFjarhctaI01bz3EaxnICAAAAAAAAwOoE0K7YPnh2aeM2e2qNX9noyvk9rfDWyEjM+Xdq4bT43V7wrNaEFvc32oAWv7Nk/RCtVrNamGqLBrS4l6wN7ZhjGTyPozjnx9peS3JeKutCZ5dBEA0AAAAAAAAAViOAdoXu725vrjJ4NpeFqGptYfOg1iFrS5rOens+tKFttAFtvn4KMTQ10oS2RQPa6NjNpeGzUn4ZMIvviee9tflxfi2eC51dh5cg2v3d7c25twIAAAAAAAAA10oA7crsPpXd48en53PvY7GRVrP4Owtv9UJeMYSWNaP1ms+yvdcaz+Z7HQ3HlcZaa/1YI0GopeGqNbQCYllAbmS8ZtZqVgulxXtLeR06m6+1AmmtMaWtv9vaf1MWefz107M2NAAAAAAAAAA4zJ+fewOM2X1fvlx141kWIislbxSL903nvd/x2AudjbSjxbBZFnIryVrtudZafKYVcjtEK+RUC4Fl59m9x4hBsPj+0aazMnjfdP5N5bx2TzzGQFo8n78nuzanJe38fm5Deyj/Vb776nfl07m3w2W4v7u9+Y//81f/cO59wCX6t3/9l3889x4AAAC4PH/39//0P869B96vS/7vFdf0v42//sv//P0PPz79dO59AADXRQDtwu2DZ384905WkrV6jYTN4rUsWFYLmGVrhxzjvyO7Jxv9WUoeMotrvXDZMeGzmilQVQuYZedbN6DV2s+y6yOhtFJZr43hjPfFAFnvmdHQGZdJEI3oz4oAGuQu9j/oAgAAcGb+ewrn8N/l9+feQtf1/G/j8v+WAMDFMYLzQt3f3d7sPpXdVbeetWSjNufn2RjK2ijO+f1ZMK0WKptrhc3iPfGdrT3V9tlbi+dbyUJeteaz1njJY/fQC73VgmUj743nk5EgWetYaz5r7bH2t+Xy/BxE293f3d6ceysAAAAAAAAAcMkE0C7Q7lPZPX58ej73PlbRCnO17s2CZdOxFjrL3puFzeK1OPayd//0nRiS6+0x7q+1Fs/ntgqm1QJa8XyrBrRWa9kxx7ksYNYKv7WO83fE89q10aAaF+Px10/Pu+/Ll3PvAwAAAAAAAAAulQDaBdl9X77sPpXdufexqiwQFo2Es5a0i7VGb47sd6QxrdaiNn9Hbd/x/qWjNdccxdkKltXCVVs3oPXCY6OjNlv3jbSulYFjFigTNnt7XtrQBNEAAAAAAAAA4DUBtAuwD5691XGbc72xk7VWseyZrF0stpotGa05eozfj/s7pgFtyxGcWQgqazPrjZbcugFtabhsbiR0Vsrrb83Xavdlx1OMKOVyCKIBAAAAAAAAwCsCaGd0f3d7826CZ1EtXBWDWzGQVRu72WocG20zq4XN5veVUn9Pa/+jDWgjIzgP1QqOjYyV3CpgFVvF5uvHjN/M3pF9L2tfy+7L9tlrOWuN6Kzdx+V7CaKdexsAAAAAAAAAcAkE0M7o8W+e/vbcezi7Vshr/rsX6Moa0bKQWqsJrZR2UC0LtcXv1IJxow1o8Vu9tbUsaULbogFtfszay0q4NnKM36jtO2tfy/Y10n4Wz0fHcGpNu0r3d7c3594DAAAAAAAAAJybABqnk7V7tUJe89+9gFkvbNYbrVkqz2aBtfhcbTRnr+1sdK001o6VjbmcjISq1lALi7WCZEuPmSx0tqQBrTeqFAAAAAAAAADgHRBAYztZcCs7bwXTsnDWSPCrFkbLAm+1sFd8phVqy/aT/Tt6DWhbhMxasrGXk1M3oM3fH8dmRtm12hjO2ruy0NkhDWitEaLZefYbAAAAAAAAAOBKCaCxndGRkbVg2vQ7C6j1Ql+t5rO5XiNatpcs3Fbb00igrhU6O9UozizodcoGtBj86gW0sntqzWetNrX4rkMa0GrBtFYrmpY0AAAAAAAAAOCNEEDjtFphq2x0ZSn1MZtxrdaANh17YzhHjqXxu4T10bazVgBv7VGcrUax7J7sfIsGtJFGs0Pe12pCqzWg1dbicf6O+P0azWcAAAAAAAAAwBsjgMZpZa1fvbGVtRaxbDzmdF989tCwWQnPl3Bf9r1eYK401rJQ2ppqLWC1e7LzrRvQWo1lWctZK6i2pAntmBa0EtZrayMBQAAAAAAAAACAKyKAxnmMtH7VwlsjLWi9sZqtcZut+0vJQ221fdZCdLW1eG1rrXBUrQlt6wa0WiPa/PvHhNF6ozfjONDWsZT8b7h0ZKmRnAAAAAAAAADAlRJA47Sytq+oF0hrhbrmz2QNZfF6todWM1opr9/ba2HL9t5by2zVijaJga1aE9oWDWi978+Nhs+ykZsjobORBrT5eRZG03QGAAAAAAAAALwTAmhsKwa8suazLJTWCmq1Rm1mYzQPGb85Mo6z9u1sr6MNaOdoRRttPsvavdb8fgyKTWtLw2ZLm9CytrNeA1psaBsdyanpDAAAAAAAAAB4YwTQ2NZIa1cWSmuFsmKwLF5rNZUdGjqLozZbYbjWWq8BrTTW4n7WMtp81mv3Wuv7S8Jktftr10vnvLU2P7ZCe1u2xQEAAAAAAAAAXBgBNE6rNYKzdu2QBrRS8qBaCff1xndGted6LWijbWejwbJD2tB6YajRJrStGtDm78/CZlm4LN7feq71vto4zlYD2vw4P6/tcWQNAAAAAAAAAODKCKBxWq2w1WhQa6QBrRYS643UrAXAes/G/Wf7jeet64eE0npq7WG167UmtC0a0GLoq9dkNnqsPT//Hc+XNKDVQnrze7NrtTUAAAAAAAAAgCsjgMb59UJZSxvQ4rVDR3DGUFrrPK7VwnS9BrR4LZ6vrRdKy863aEDL2siOCZtNauG2+bV4vqQBrXXeCqTV9goAAAAAAAAAcGUE0NjWyJjNpW1nvQa0+bX4/Vq4bETtmVogrhVWy/Y8Xzu1WhPa6IjJY4yExEaOLdk9azSgtc6zPfT2CAAAAAAAAABwZQTQ2FYtrJVdm69ljWbT+kjorDXes7WWvSeG2VrjOLN9Zdd6a3G9tbaGJU1oWzegZd8sZVkYLQun1ZrW4nlrbUkDmkYzAAAAAAAAAOAdEEDjsvRCXCMtaK2RmbXw2FwtXNYa71n7bi0sV1uL3xxZO0Yr9DU6WvJYWdtZZukYztZoz5KcZ3vJ9ljCtdE2NOE0AAAAAAAAAOANEkDjtLJWsPl5rQEtXquNvYzvnd+/9DjXG+cZ91XbU68BbcsRnFlwLAahakGzrRvQpmMtMHbIGM7a+sjozRhIq63HYzyP383OAQAAAAAAAACumAAap1ULW7WCZ/P1LOQVw2gxGDYaLhsNpdVGctb2lP37amu9EZzHaAXHeuG0LRvQ5t+ojcxshct6+1kyerPWdFZbj8d4Pn+mRhsaAAAAAAAAAHDFBNDY1sjIyFYoqxboykJf8+vx3a3xmyPhs7lawK21/9EGtGzv8+9uZaT5LIax1vx2FgjLrs/30hvZGZ+vhdhKeR0sK5X12t+g1YDWa4/ThgYAAAAAAAAAXDEBNLZVC4TNz1uhrOzayNjL7LujTWfZc/Ed2e8siLa0AW2+Ho2E+ZZa0nxWC2mtqTUyMzse8u6s8Wx0FGetGW10vKawGQAAAAAAAADwxgigcVq1EZxxrRVUq4XPaqGz+P6RMZvZ/fGdrWvHNKD1mtHW1BqtWQtVrd2AtjR0Ntp8lt1bC5qNjuKsBc96oT0AAAAAAAAAgDdKAI3LUBtzOZ3H+2JYLGsiqzWXxWeWBL2ytrQseHZoA1r2b63tY22jYyXXbvFqhcNqYzNHGtFqobKSrB3agFaS3602NIE0AAAAAAAAAOCNEUDjtLJms1LGAlpZ+9j8emsc5uiozd5ozt5ejm1AGx2zecg4ziw41lvLzrdoQMt+Z6GyQxrRRoNnhzSgjbadtcaXCqUBAAAAAAAAAFdMAI1tZa1j2Xm21hq9Gdez4Nn8PSOjN0dGc2bjN2uht9bea2slub6WLOjUW8vOt2hAO2YM55Jj6ZzHtV4DWgzoHdIat/bfEwAAAAAAAADghATQ2FYvRJWFxeKzraazrHksC4nFPfWazub76TWiZcG4QxvQam1oW4zcnFvShLZFA1prhOYaobP4ztb5kga0eN4av8mb8/g3T3977j0AAAAAAAAAwLkJoHEetZGVvQa0kVa0GA7rhcqi2rUl4zcPbUCrtaEdMnJziSVNaFs0oE3HbDxmb8xmLWzWelft+nwfpbwOnGUtcFnILRod1QkAAAAAAAAAcGUE0DidVqPXaECr1i7WC3+NNp61ZKGzbF/HNKDFb20tC231zrdoQJuOI01oUS2c1gu0zb/dCp3FPcZr8XxJmxwAAAAAAAAAwJUTQON0RkJVvYBWq12shPvmx+w7rVDaSGitN4oz2+NIwK617/k9a8hCW73zLRrQWgGytb9TyusgWW3sZlzrNaCNtKHV9gYAAAAAAAAAcIUE0Di91sjJVhgrC3llDWO14Fj8zkgjWlzP3tVqX1vagDbSyHboOM5WmGtJa9cWDWjzcNhIC9roMb6/FTJr/Q16IznjeXy+dj27DwAAAAAAAADgivz5uTfAG9cKbMXz+Ht6Ngt1tcZsxnfVQmjxu1kIrdZ4VpL7s9Gb8b3Zu3ttZ4cGzqJWACq71mpAWzOEVguFZcGxUrnWG98Z956F3abzkWBbDKTF82wvQmZwdX748emnv/v7f/r9ufdxdf6s/MO5t7DIfxf/NwYAAID3zH8beBP++i//8/f/du5NAAC8YwJobKsV+oqNZvE8/p6vZ+1mWeBsSfAs86vyXSmllD+Vh1f7/jo5z75fkmu1tSzktqUY7oqNYK1xlGvvYUnQrPV8rcksXsvCZ7WAWdaA1guxZd8Z9V/lu/Jh9v9zwNn827/+yz+eew/X5P7u9uY//u9fXVUA7a//8j9//8OPTz+dex8AAADAefjvP2+D8BkAwHkZwcnpZaMns/N4XwxqxbU4JrMXPsvunR1/+++3v/nqd+XTq3vnshBc3E/2b6qtZX+b+L01xTBXrfUshtTW3kMWMBsdtbnkG3NZgKw2YjNraYvvieettfm7Kr66L1+V/3oJQAIAAAAAAAAAXCgBNE6vFqKKbV+10FbWIDa/VgusNcJmv7j3V+W7r/65fPWqDSV+uxV+i//OLFjWCpvVms+2akTrBadio9fa354HvGpjNJcea9+ofS9bazWgZcd4Hv8dcU8dX/2ufBJEAwAAAAAAAAAumQAap9MLVcXAWW291TbWComVcE8Mfv3Fz8GzX7SexX22wm6172f/htrafH0rWfApC02dugFtencrSLYkdFZrScu+N5eNG601oMVjPF/p7yaIBgAAAAAAAABcKgE0Tidr/4rr899Z8KzXfjY/bzWtze//i/Ldb/9XGLdZ239r3Ge2r9p6ba21vpZWKGpktOSWDWjzb/QCZpmRFrRaA1prJGetAa0kvzcM6331u/Lpt//z9jfrvhUAAAAAAAAA4HACaGynNS5yZAxnFsSqhdO+DmvZeWIKnr0at1nbW6vxrLc232+2VguiRWsG00aDVFs3oE3vjee145J3x2BZLXQW74/rca/Z73ie7edIP/z49JM2NAAAAAAAAADgUgigsZ0sKBVDVbXxkzE4ljWPze/PRm3WRnCWUsqvfh63ORQ8m+/t68ox7u2QBrRWYG9u9L5jnbIBLf6OgbBas1kvqFYLtZWSh8567Wi14NlIcC/7tx7xtzSWEwAAAAAAAAC4BAJonFZt3GYpY+1gIw1oMRg2//0SPOuO22xZEoZb0oBWkmvxfCtZ2OyUDWit4Fer+awXPmt9Z9ILnZVwPV6Lv0fb0EauD9iP5RREAwAAAAAAAADOQACN82iFrlohrZHQV9ZA9hflu2nc5sF7jnsaHQea7be2lv0N1mo8Gx0NWQubZcG0NWRjMUcCZbV39JrPsrazWgNaSa6Xyj2tv8vaf7Pghx+fftoH0QAAAAAAAAAATkgAjdNqBbFK41oW+srCXTH8NbWe/a58WjRuMxMDZtkYzl5zW68BbcvxmlkIqtfAlQWstmhAm45ZQ1ktWNa6J7s2nWdtZyPjOOfHrCWtNV5zq/Be8MOPTz8ZywkAAAAAAAAAnJIAGtvLQlclWcuCWLUmsfm1OPJy1nr21Zcjx21m+8zCb7UQ3dIGtPj86Pqhem1n8Tw+s4as+ayUPExWkntHAmrz9418pxY0i++vBdTmz8R9n8BXvyufBNEAAAAAAAAAgFMQQGN7tdBUFtqqBc9a4y7j+trBsyg2nvVa2eL+ysK1+O2t1MZJxkDXViGq1ujMY4/Zd1rn34T758csnJc9F58/g/1YTkE0AAAAAAAAAGAjAmic3kjzV68BrRL6+u2/3/5ms+DZfI/z/cTRnPP9LW1A2zJglmmFyWotaGsHqkbayJaGzCa1QFvru71xm61wXm/M6cj9K/vhx6ef9kE0AAAAAAAAAICVCaBxejF4NjJ6s9cy9qvy3Vf/XL764cenn9bc6qt9Zi1tazagleR6PF9TKzBVC1ptOUZytL1sNKiWXR85j+//Y3JvKa//Vr2gXtzziUZylvISRDOWEwAAAAAAAABYmQAa55cFrWpBtPnaFDzbctzmXAyfxUDaGg1otTa0NZrRRtvOamGzLJi2hv/H3v3zxo1k/R4/MiZZw4M1sO9CN9p0skeJFRmOFAhyqkgOjTVw38AMNrQipRYUdDRwZCXabNKb6QVMfgE9mIEf4Ab2DdTUlEqnikU2/5xT9f0ARrNJukmxm91k8cdTubBYX5WzubvgLKmCFo7X/o82/4r23ssHgmgAAAAAAAAAAAAAAGAqBNAwrzg41Req6quAFgS6FgueheumVW+bsgJaadBsTEW0XAgqNU2rgjZ11a64i8xwOPXYJ9XdZvwaqeH4b+0br02L18eYh245CaIBAAAAAAAAAAAAAIAdEEDDvOKgVK7amTZOef7u96PDvf8te9OtZKEwYKaNm6ICmmTGhaaoiCbSH5ZaqgJa/Dzu8rKvElpp15upYFpqvngdc11uapXWYoYqoYlsu+V8Lx8IoQEAAAAAAAAAAAAAgLEIoGF9JaGsoLvN86vN9TIrFom73+zGTVkBTRs3p76Q1FIV0LTQmYgePhtaES0VaIunaeGyuPJZahs4roQmQrecAAAAAAAAAAAAAABgPAJoWFZfd5NaAGsbPFu0u01NqprblBXQlgqexYZUQpujAlpJ6GwsrXparuvNVEW0eF4RPWxWUgltyPQFEUQDAAAAAAAAAAAAAABDEUDDsrQuOENhKOsf8su7348OVw+edbqAmdYNp8g0FdBiuS5Mx0hV4NKCVKlKaHNUQIufa6Gz0mpoqa46hwTNtP+fC5ultlU8vxY2M1gVbe+9fHj329Hh2usBAAAAAAAAAAAAAADsI4CGefVV9EqEubrg2WrdbWq6gFkYHMt1xykyvAJaHDCLt8+uFdJy4ah4+pIV0LrXzQXAJJpWEjrrC7PFw6nuOON1k8T88XDMYNgs5fxqc001NAAAAAAAAAAAAAAA0IcAGuaVqtilha9EHrrbNBU8i4XrHofOdq2Altouc8mFyZaugJYKkcWGhM5yVdC04ThkluqyU5Th8P/lhp2hW04AAAAAAAAAAAAAAJBDAA3L6gmemeluMydV3WyKCmjxtKWkQlVaGGyuCmjh62tVy3KVz3Li+YYO56qiSWKe3LBTD0E0AAAAAAAAAAAAAACAAAE0LEvpYrLrbnOV9Rki0V3opBXQwvFLKqnc9ffoccpl56qRiTJ+7KOMGI67H9XGl3ZRqoXqnNk7k713vx0drr0eAAAAAAAAAAAAAADAhh/WXgE07B/yy33wbLP2mpTpAmY/yuPuN+MKaD9G84o87bYzNS43Pn4+hVwFsXiaVvlrynXoHqcImYWvHRobROse++aPl5mbpj134vxqc31+JXvf/y0/y9/kX2uvDwAAfc6Oj16JiNz++fJEneGZ6OND3+QyNWn/xd2lyP1v5Lg1BOrS7XMiif2ub59L7G/sa5jKJL8LIkW/DSJ8ZuEDx0vAeMn9J7XfKPsK+wgAoNN7Ti2y07EZ5yoAgLkQQMO8wm4pOw/BM6f6QmciT0NkcSBNlHGpIFrq+RipUJk2Pa5+pnVPOYVcF5kl3W3mQmhaACwMk5UMizwNm2mhMm0dnAbMSm334w8E0QAAVjy58LNtjLv9up1hl/rPmYa926/3yzt4c3o/Imjg239xd0ljHmqm7XcP+9z98+ES+1tqX2M/g0YNA0z5uxC8nqb7vIron1kRLvZgealjJZEVjpdE+B6HW2fHR6/UY5/S/UfZVx7tI8H5xM3ni7c7ri4AwKjedqz7ceP1nFuLcK4CAJgWATTMKwyfeQ+edYaGzrRp2rghAbOx1dD6gmOp0FkutLarVMBsTOCsZBmdqSug5UJnpevp1N57+XB2fPSfj//c/BdBNADAkna+8DOXRxdzX56EjXk05ME7U/vdQ+P80/2Mfaw9pj6bKcFnVuTxxR5+HzAH8/tF4ntchFAa7HnYn7p9ac79KDifOHhzeiLf5JIgGgD4Z/rYrOdcheMyAEAJAmhYxLvfjw7Pf3Z+cJILmOVCZ+H00nHxcGpdpqKFvXLV0aasghaHz0qqnu2yjDAoNmUFtNQytf9foW23nNff/y1CCA0AMKdFL/xM7ZmcxJUNaMSz4VEjsEFrf05c7Xfb/axrLN9/fnfIPlYn9eKN5c9mDr8PmEgV+0UcSmN/WNXB69NPa69DnzmDWa6OgQAA5oS/IyLbymbefkuic2yOzfpZb2PqEG6/t/b7xf70l7Xfi1LsO3kE0DCvh6pnm7XXZHepSmVjuuTsGxcPz6ULW5V0tzlnFbS+0JlW9az0se91pGC4pAKa1t1nrNLwWYhuOQEAc6j2wk/YiEcD3qrCBmGLtsGUvSWXWct+d/v15Rf2sXrU8rnsxUUeDFD9fsH+sC7Dx0eByS8AdfvV7Vc5qW6fAgDMqqljM47LVNbbmDpnx0e8d7L++3X79eXJ2fERN0/K+u/FAATQMgigYR61dLcZ0sJlWsWyXBitrwJaytguN/toQTItaDZX9bOOFj6bImQmmXmnroCWqnLWV/Ws0qpoBNEAALuqvsEuRgMejKj2gmu0j3G3oi8Hr08/NfN7oOHzC0Wz+wX7A2ZU7XEQAGBWzbVhdWjLUu2/uLvsKlzDAR+BpzZ4eC++yeXaq2AdATRM6x/yy7v/c/Qf991talKVzcIgWSpwVloBLTW8ZDU07fmc1c+GVDxLSYXMUl1uxtOmqIAWrnv8t2jrk5q/Mnvv5cPZ8dF/Pv60+bL2ugAAfGj2YmooaMCj+0Aspal975mcHLw5PSG4YFvcXQ22gs8vF3jaw34RYX/AhA5en34ieAYAGKKp8+g+3CTw4Pxqc/1QvdewbVeHTR8/nx0fvbr9uvZa8F6I2HkvsLvWfw4xoXe/Hx3uvZcP1Tf2dAEzkf7A2B/RY1wBLR43dxecfeEoyTzv615yrFR3n1N2xam9Zulw+BiPj4f7gnqVh81Szq8213tnsif/I7+svS4AALsOXp9+Onhz+p0Lqo9tuw/8fvD69NPa64I6Nb3v3QcXvp8dH71ae1Xwl7Pjo1cHb06/3359+aXJz2Wp+ws8/EY0gv2iR7A/8J3enl3f827/Yt8CAJRq+jy6xPZc++D16admj808VEni89sFv9bHe+HG/os7+/v2ygigYXf/kF/2fpa9poJncbWzeHocLosDaalxkhlXMq1PX8hMZHy4aqxUKC7XNeWYEJr2WiUV0MLHeHw8XLLtGrb3Xj4QRAMAxGi0KxQ03q29KqgDF1v/QmjBhu734PbrS6onD8VvRLXYL4YjmIkh7quesX8BAMrQhjVQd5NAy0E02GZoX259HzETBuxRfR5mAgTQMN42eLb3Xj6svSqLiANnnSkroGnjYnNXRtPCVXNVP+uWMbTaWck8Wveb8fDUFdDCeeK/BQ/23suHd78dHRJEA4C20Wg3EhWbmjXVe/6oig4e6RrG116P1vB7MCGCaNVgv5gA+wMyCOIDAIbg2GxHDQbRvFRJauX98MBLAGs2Hr5fPVQ2NIAA2pr+r/xr7VUY5R/yS9fd5tqrsgqt+lncFWc8rrQC2hzhshJ9oam5qp91y9EqlJV2rVnyOtrrhv9H5HHIrLQCWvwYzpNaNkRk2y1nF0QDADSFRrtpULEJY1Dlo8AzOWmpUXxNXPyfEcEbt9gvZkB4H5Gz46NXHA8BAErQhjWxIIi29qrMzUuVpJZDT+Y+h3zPoBIE0Nb0D4fVf/4hv+y9lw9efjgnlap0FofP4tBZN75knCjT4+Eppbq/FNEDXqn/t4s4UNYXRit9nZTUssZUQIsfw3ni8drzeP4GnV9trumWEwDawAXVebTScIfdsP8NtG0UJ6wwj7Pjo1eEIRdC8MYN9ov5tVZ1Azr2MwBACc6hZ9bKDTNUS8JArZ6rePm7vVQ2XBsBtDV5qoDWWnebmjgEFgfIUlXQ4nkkMy5VDW2uymi5Cl1aV5ep/7eLXHeZqXl2ef2SrjlLK6CJ8nxoyIzuOUXkvltOgmgAUC8u9MyMgAEy2P/GI+A5vYfPIxdyFsVn2Tb2iwU1VHWjJaWVOw5en35iPwMA5HBTwMJoz1pfy8dGBv/2VivSefm7myzQNAIBtDV5qIBG8OwvcbWzXBecqa43+yqglQTNxlZDywWd+kJTfQGrXWjdWHbLKemGs299tPBZqgJaX6WzVBBNKZiOZQAAIABJREFUC6bNuc0q9tAtJ0E0AKgCd4wuiwuqdRvaGMP+N5Ftl5xrr4Z33YUcPo8raqXKgCN8T6+Ii53N4TcIANCHmwLWU2t7lpdqSS0eE7f4N2NHVDQsRgBtTcYroL37/eiQ4FmgC5bFobNU+Kyv2pk2TjLj4v83VF/3lZ2+rjan7jJSC3mVdKUZygXSUhXV4mmpYW3bxMGzeLo2LX4tJJ1fba4fgmgAALe4Y3QlXFCF3Deksf9NaLtfrb0aXj18HrmQYwOhShM4TrKh1oudeIzwGQAgh5tljKiwPctLtSQv1aemZPZvfiYnNe0DxRx8/3oJlFpAAG1NViugbaueeflhXFwcAAtDaXE1s1RXnEPGzWlM5bO5KqCFy8lVNiupipabP1xmrgKaFlJLBc9y3ZNSCW2086vNNd1yAoA/VPOw4fbryy9NNliAUMOMCKENx+fRqAov7njBcZJB7A9VI1AAAMjhZhl7qrtBgKpJNrHPm8F5WH0IoK3JWgU0utssE4bEtGGtytnQqmhLyYWjUiGruSqghcvJBcnGvH78mlogbUxXnNp69W1HDLb3Xj4QRAMAHwga2FJdox16EWqYH/tUGUI2PvA7sSyqU9pGeL8+Z8dHr/gdAgCk0IZlWEU3CLiomtTY8ZL1z5XZ6myNo3BTOQJoazJUAY3gWYE4HBZ3yRmGzeIw2phqZ3E3nLluOadQWrlrjgpouXCYKONTj7nXD19jyHD8WvH4XDW0vvF0yTnIQ7ecBNEAwCSqCxhFV2vN4H1eCPtUL0I2zvCZXgQXOH0glFkPfosAACncLOMHNwgsp6XtbD7g1dh3k/n3Q4RKhgMRQFuTgQpo734/Otz7WfbWXg8X4mpnWiBNgnm0x74KaLlqaHNUR9NCW1q4KtfF5BTroFUgG/OYe/34teNpWvAs1fVmbnto84Tj+8Yh6/xqc733Xj4QQgMAO86Oj14RPjNue+fo2quBedB4vgICO0lc8HeK34lZ8R3tDPtDFfgtAgBoOF/xx/sNAudXm2sP4RUXIaCpODg3aykQ6OH9cFHJ0BACaGtaswLatrtNygWOEIbPwuFc5bPSCmhzd8FZUq0rFa6aqwpaLhRWGj4ref1QSQgtrpwm8jSIFg/nujTFpOiWEwBseGi4c3CiiO0FcFSFxvMVPZOTphoEC1DhyT9+J6b1EBCGS7V0+9Qi9jsAgIbzFce4CQyNaSoQ6AB5mmEIoK1pjQpo2+AZ3W3uIAyadVLdcA6tgBa/nmaXrjhzVcL6xs1VBS3X5Wa8/JLKZyXzaBXX4mGtklkcUJNoWNuOc1aPA0E0AFgRwRefaLBzLAp6sg+uj+5A/kIlzHoQupkG39F14HveieD3h2NdAICG85UKOK5S66J6UiP7h5tjxUbeDxfnWg4qGFpDAG1NC1dAe/f70SHBsx3EVc9yAbO4i87SCmjauNR6TKmvEtpc1c/C5QzpSrPv9eJQW+p5bjjV7WYcUIuHw3n75sNk9t7Lh3e/HR2uvR4A0AouqjrmuMEOf2EftIO7UrcNho00jraC0M1u+I6uC/uDH/weAQA0hM/q4vGGGS/Vk7xt19q18H7QplYnAmhrWqgC2rvfjw7pbnMCqSpnfdPC8aXjtOXOoa/qmFYFbOoqXqmQ2JjuNjV93WvmKqClqp9Jz/CuQbO/yb++/1t+3vFVmnN+tbmmGhoAzI+LqnVwc8cfVDTQGNJ4VyD8JtSL75lx2CfqRAjNB/Y9AECM8FmdXB6bUUXJBkffB02ckzt4P1xUMDSGANqa5q6Atu1uk+DZRLTAWW5aLqCWGhdPS02fitY1Zer53JW84gpoqa40S0NpJd10asPS81zrbrO0GlpfpbnQ3+Rf38/F3Z0cFtAtJwDMh4uqFaESmls0oBvU6PvBb0Ll+J0YjH2ibi4vdDak5TA4AEB38Ob0e6vnai3g2Gx6tQee+LxgDHI2wxFAW9NcFdC2wTO625xYquvNXPWzVBedqXHxtKXkKqHNXQUtVYEsnp577HvdTipslguapeYVKdsmfcG9njDfx582XwiijfMQRAMATIKLqnXiYp0vNKDb1dq+xG9CO1r7bI/FPtEGLnQaxvERACDAMWwbPB2buaiiVPnxlLuA3TM58fL5HsPF30blwlEIoK1phgpo734/OiR4NrO4slkcJEuNEymrgNbX5eauXXJqgadc5TOtetjUcsEzbdyQx9Rrpqqapbrs7MZpz+PhcJ6JfPxp84VuOcfZO5O9d78dHa69HgDgGRdVK9Z494HAZCpvGIzxm9AQfid6cZzUFk8XOgEAaBFVw9vi5diMKkoG8L1giodAoIvgqEEE0NY0YQW0d78fHdLd5sziymZ/KOPCx7hSmkhZBbRcZbRw+lipbjVjqXDVxMGqouBZOO+Q7jhT41PdfWrD8bhwfBxQS23bqbbZtltOgmjDnV9trumWEwDG4aJqAxoLzgBz8dB4NgXCSA3idyKJ46Q2ebnQCQBAawiftcnNubiDakq1HuN6/bvcfLaBAAG0NU1RAW3b3SbBs4WluuHUqqCF43PjUkG0OWnBqJIuN6esgpYLg5UYUvEsDqSluuHUwmPadolfJxeci//vLrZBNK8HTGt66JaTIBoAFOGiaju4kApMoIGQztnx0Ssu6LSJ44GnOE5qG8dOAADYQvisYc/k5ODN6fe1V6OPh2pKtQae3P5dNX+nOfjbyN+MQwBtTbtUQNsGz+huc0FxqKwbJ/K00lkYSgvH58YtEThLSVXrWqIKWkn1stIuNlPi0JnWtWaq681Ut5tDui3tTNxN58efNl8Ioo2z914+vPvt6JAgGgDkcVG1LW4bYwBDat6PCNuA6nePsT+AzwAAADZwowxEOF9BhuPvhxqvAbv4mxxULLSKANqaRlZAe/f70SHBsxWVVD9LTSutihYP58ZNIRWE0kJVU1Y/615XC331VTUrfYz/ryjTU8NaAC8VREuF9cJ5YhNty48/bb7QLedw51eb67338oEQGgDoaLRp0DM54X0HdlRxFbSaw3UoVPHneyh+L9HxUG0DAICacaMMHhhv13JRTclxUKtWtMWsw0PFQqsIoK1paAU0uttcVxcoi4NlcRjtx8Q0kfKqaPFwblwpLezUNy4XwJqK1i2m1uWnFihLzZPq1jNV6SweFnkciBNlukTPte0yV2hPs+2WkyDacHTLCQBP0W1BwwgXADursXGQigLo0O0gx0l4yvKFTgAAakf4DI9Yb9dyUFXJ9PYbwf2xeoXnnh7azcjjjEcAbU2lFdDobtOeXFecQ6udpV5rarmAVGrcUhXQ4udjllHaTWdJCE2rglYaTEt1YRpPm8s2iFbbAeISCKIBwD1CBqDxFthRhd+hfC8g5KGxeC4cJ0Fl/UInAACVch8swSws3zTjoapSy+d7Vln9PI/GOXXVCKCtqaACGt1tGlJS/SwejkNmfRXQcuPnNKQS2hwV0LrXjYfHPsavP7T6WRxGk8Q84WP89+T+1tgMwbSPP22+EEQbZ++9fHj329Hh2usBAGug2wJ0aMQFdlPTPlTT35L0TS67f/vP7w67fze/Xuxp/8J5wv+79p+xmEbDNhwnIcfyhU4AAGpEVVrkWA1RUVVpBRV8T1j9PFerpfadGfyw9go07R/ySyqE9u73o8P7H6HN0muFPqmuNn+MhiUxjyTG/SH9XXDG/3cqqSpg8fR4nqmWHb9mroLZ0BCa1r3n35Vh7bVFecy9vvb/Syq6zdhF58efNl8+/lN+Icg6zPnV5vr8Sva+/1t+lr8N7C4ZABy7/fPlCbeoQES6cMElDWPASPcNnG/XXo1JVNBY+8Q3udx/cad+x90U/Pfo/4XDb7sAyvY3tb5tt7UNYu2tvR5L4jgJfVrcLwAAWMP9jQH1HmtjAs/k5OD1qdx8vrB3Xv5NLk2fK1bUnrH9roAhHt6T/Rd3lyVtQ9ARQFuTFj77RxcUIXhmThww00Jg4fi4Qpr0jBsSOJsqfBYHvFJBs1Qwbep16Os2s2RaaThNG07NowXS4vCaKPPEw2O7F93Vfbec/5L/IYg21HZ7fSCIBqAFTd85WnJXU4PbZnt3HQE0YKSz46NX3kOcVVU/i0JnczUmBu/5tYi8rfn3tYbPeKma38diHC8VOXh9+snkhU4AACpCVVrh2KwEN1eOVsu5XjU3EVUUCvTwntTw2V8TAbQ1hRXQ/kEwxBUtZKZVP4vny1VAC8fFw1NWOwvlwmRrVEDLBc1K/38oNT4XMtMqo2nrlwuypawRPgttg2jvfusqLKLU3nv5cHZ89J+P/9z8F0E0ADVq5s7RbePc/ou7S5HBJ5MPJ/mtVLehoQ4Pgobtbv8p8aiLgJr3lYQqQpw1vG/f5LILg6xxB+t22W/Pjo9e1fa70Uq1p2aOkzocL+2G4ycAAGZV1U0yJYJjsxHHF29FouMykTrO8wpZPGfZf3F3efuVLhUXUdFnvZZQoHl0v7kzAmhr+r/yL/mH/PLu/xz95/xnvjDM66t4lguclVRAC8fFw1PIhbpS1c5SXWDOvV5DK5r1db/ZV+FMlPm06eGjKM/HhNJW8PGnzZePP4kQRBtm2y3n9dnx0X8+/rThDisAVfFw59FoSjdruwYQ4uo2ItuL0xVeYLXYUIcF7Ng9YaDJrgkfOL9D1f2FnSB4ZsF2f7o+Oz66rKliQwuN4DW9X0kLHS89fK9U/hvA8RMAAPNo5saAiY/NouMykUpvkEmxVqH2/GpzffDmdO3VyKrhhjoPXT0OUcN7IiLmzwXpfnN3BNBW9O73o8P74BndbbqSqlKWC5eVVkCb05hqZ1rlszkqoIWv37essWE07f/2dc85tlvPoV1wrhRS+/jT5svHf1J9cahtEI2GZADVqLZLqYUr3nTBAuka8Sq6WG2toQ4zWaB7wjiM0EKDt+twjuP3Zf/5ndmbbbbrtVfL7281jeAJ7oOYPcJ9ZYnjpeB4ouruaUU4fgIAYA41tbU8scA5eehJO1bN5+YWK9R+k0vT29v5DXUiFd5wXcF7UlsoELqadjt3TP3QoV9c4SwUB9HicfG01LjU8FyGdBf539HjXOughc5SgbJ4Wqobz/j/x9O0cdr03KP2t2jrOmT8Eu675fz+/d/y84prAQBYk+XGjhH2n98d3vx6sbfmBb/zq831za8Xe/vP7w7XWodJVfYZQeCbXIb7zNLnqOdXm+ubzxdvq9pfKuE2dPNNLm9+vdjz0N5y8/nibRWf+/uLOa/WXo05nB0fvaryNzD47l9zX6n++7/ifQMAgDW4PUfpsz2HWeOcvBOem9fa/Zy18GLX3T1mVOG5nPfzi4dugA3z0J5kHQE0oFQcKBvSneYfheNKuuCcMpimBb20aUNCVmPWIQx8Da0GNrTyWbyM1DhtevgoyvOSYau2QTTvBy8AgGGqarwzGDrogmg1NN5V9VnBX+GDFRu4YzXtLyEPjWs18VZtqJbPfa2f8xr/Lmvf/SIVBvcD1i50AgDgWm1hkiB4tvaqhGoOotG2NQzXC+2p8RzVlAq/99ZAAA0YKgyO/VEwrhtfMi5ehmbOLjtTobM5w1S56mQpY7rb1JapLT+eP1XxLK6QVjocrp9BH3/afCGIBgBtqKaqRxCkWXtVUqpovKvhswIRsRk+CFWxv4Qc7jsufx+2F2/WXo2xLP+GFfH2eSngcj/IMRjUj9USyIzRvgIAwO5qCw5Zb8cSCSo213RsZuj43vJxecdz2Km274wHhj7DoxhffyoTToMAGlAqrn4WT4srmqUCajJw3JSGdAGZq442ZRW0VGWxXNeauddKza91yymJebT1ih/HBPRSAT+DPv60+UK3nABQtyoqMnyTS8tBmtjN54u3nhvuqm28aYWD8EHI+/4S8hY+8NjIbP3iTQnvwRtvn/M+VRwnbXm4wBmqpnvarZo+S8j4Jpc7/QMAJFV1Y4Cz8/Kua86afqtMtW1Z36617HeV8Xru7WG9vXw3W/fD2isAuNF1r5nqivNHZZ6SLjpT3XbGy51CKuQVB6Pi6mDx/52yelcqICbK+CFhNInm63uN1HDqMZxPC+elKq95ct8t57/kf+SXvffyYe3VAQBMx1Rjy0j7z+8OPZ4U3ny+eHt2fHTp8mLkfcOTmwvY+Av7y7q2gS53298Lz5XPYjefL94evDl12chf0+e8huMkEXkI6t+svR4jbH+z9g7enH5fe12mcPD69JOnECAytheKu+oIEx5fPXw+uotzYSB8/8Xdpcd9GQCm4P18sOP1vFyknnNzERF5Jidnx0eXFt6L/Rd3l7df/d0A5gLhOQxlPRDqCBXQgFJxwEzkcTgsFS4LH0urnWlddc5BC5JpQbO5qp91y8hVP4vnjQNkfa+tzad195mqjpZ71NYvXkY83qP7IBrdcgJATZyfhHtutBO5v1DltbIHxwP+eLq7WuN5f/HIW3WBGj8bbv8mR5+bXjX8Ldvw2dqrsSvvlQEf1PCZatk3udx/fnd48+vF3s3ni7ddBea5jq+61+6W5aniMwBMrZY2CO/tWCJ1nZtbqfrt4TPhcR/0uM5DeA2CWtnvMD8CaEAprRKZ1vWmFk6Lp6XGxdNS6zGHXLWuuaqfhcspqX5W8lq5/6NVdMt1v9lXBS3eLkO6OA05Cah9/GnzhSAaAPjnvapHDY12In4b7rw2cjRp27XH2qsxhfOrzbXrAALBg3l8ExN3rU/N6++DSB0N/d6Pk0T8dbnZp5Zun2r4bDUlCp3V+HsDAB7U0AZRSzuWyLZLzhpuELivgub+3GUJHkNDHte5CcbbxroKx9gdATSglFbpLFcRra/aWaoCWl/AbMqKaLkqXamqYfHwrlLVz8Lh0sfU62vdfGphs1xFOK0r0tw26asuF3LWNefHnzZfvv9bfl57PQAAIxk/2cupqdFOxG+ohkY6+2oLH4jUE0CwzlNDbc2Ng15/Hzx9fpIcHyeJ1Hes1KniN8D5Z6sVhM4AwI4a2h6qPjZzzsy5i/djXIsaOO6u4fvRmhq/q9dCAA0oFQfDtLBZHEaTaHpJBbRcZbSpaYGoVKhqripouXBYbEgYLRdO6+t6MzUuXl/JDGt/g7OgWda2W06CaADgi+fKC1U32jlrbDLTSAdVrfuKiO9GbhoHJ1Zp9bNQzQE7qzwfJ4nU/f0v4vOYKeb9M1azLnhW8z4EAN54r35W/bGZ90poRqqgmT/vcxbmsvCeLsFb26z598Xzd5lBBNCAUl24LBc265ueq4CWCqJNJRd+6guazVX9LF5GWGUsFxwb8qj9f5HHQbI4VJYaF6+v9Ax3nHSxOco2iGb+4AEAcM9Zo0Gn+kY7b6Eap5+jFtS+r4jc/41rr8MYbhoHnezf5hvpJ+CyCpqTz0+S5/VvIJQpUkEIzfNnrFIEzwDAJu/XG1o4Nxdx2J4VsXCe7uFz4ml/tPCeLsLZeYX196WFNqYl/bD2CgBuhN1tpsJocdeccYU0rWpaPG9u2bvIhaBSldC0bienDlPFQbPueV/XmvH8qdBZPC01fzicG9fXnWdp5bNcpTeHPv60+fLxJ5F3vx01cWIFAB65rbjQyAXV/ed3h57u7j07PnrVwvviSiP7yvnV5vrgzenaq1Gls+OjV7df116LMi181kXuL+gcvDk13VAb8/r74Onz/8Q3ufR+8W+Im88Xbw9en7q76NI5eH36qaX3y6ztfnOz9nrAjIM3p9/XXgcEGvttw1Oe2kdirYTPOt7asx65P55c/7vmm1xaPrbdhod8fKYNb8epeT33Rv2ogAaUyoXNwvGiTCupgBaOi4enrobW0SqEdbTqY6n/t4uh1c5y/7/vdUSehspSFdhE9O2R6pozHg7n1Z5XFD4Lffxp84VuOQHAKI8n4A01OnurdGP9zrXmNLSviPitgoaJOPqunERrf+9K3F40E/+VJ8Zw/Td7PCavTWPHTQDgjadqS080cmNY6Pxqc+35HN3CDbtUX8IYrtpmjZ8Dtfa9PTcCaECpP0QPm4Xibje1amdSMC4e1tZlCqUBqTjYNWUVtNLKZX0Vw3KBNS2Ypk3LBci0wFlfhbhcwK9m2245CaIBgB1eG+9aa4BxdSHsmZx4/VxVp8GLqC4bhow3ton4abxs7bfB29/r5XMU8vx75vli3648/+2eP3Pe7T+/O2ztuAkAvPF4PCkiTZ6bd7zdVPmIg3P11TnZRhbChIty8r6YP/fx+t1lGAE0oFTYTabWDWdc0ay02tmY6mZTV0RLdRGpDU8dogpDXFporPSxbxlxiC1X/UzrblN7LKmCFs6fW78abYNo5g8uAKABLqt6NHjXqIhw0ovBvIVTJsO+gkY0+Vu4MK8XOVvr3inmudqGy2PzCrS+zwCAG05CFbFmz823bj5fvPV6nr72NSwPxydrbyPoeF921/p39xwIoAGlUpXNtKpoqa43+yqgpYbnlqt8lpt3CnEgrLQSWuljvCwtaJYKpqWCZqmuSlPbpi+0V3lltI8/bb5wEAQA6/H6HdzqXaOe/m6vF+xr0vKFVE/7Ssfr97E1TX7mnV7I8eDs+OiVy4ucrQb1I56rbfCbsKyWj5kAwBOvFYz4nbnnNchh4uYAp8e0png8r2sA7cftIYAGlAornmlhNK3LzVR1tNS40i44xyrpErKv8tkcFdBSXWTuGkbLvf6QCmgiT0NpWreduS48tecAACzA40me12oWU3Hz99Owsy7CBwAscvbb4PE4ScTvxb05eN0WXj97HhEKAABHnB1Ligjn5gFuDhjP+jGt9WPXtd+/tVh/X0TE9vc639+zIIAGlAoDZp2pK6DJwHFD5QJRfeG0OHg1lVRgrG/ekopnWmUzbTl9FdC0UFqqe85wuCTwBwDA3Cyf5Gk48XNV3afVBh4LPFYAm5zThm1gKOsXI1zzdpwkwrFSxO2FTo+fPYcInwGAH17bFzhWf8xrW8XaQR7zxyvGj13Xfv9WY/x9QZsIoAGltEpncUW0H0WvhFZaAU0bFy9/LqXhtDkqoIWPu3azqc0Tj5fMcC5sFq6nZObpq4QGAMBCPDbe0XC35eRCarMNPCtzUyVvZt6+L9hfMJb5ixFOeTxOEvF7UW9OXreJ18+gF4TPAMAXl+dL3BigctlmYSHI46Qt0CQL799KLJ9TWF43EX/til4QQANKxRXIUkGz0mpnuXFLylUb66S65Zxy+bt0t9n3+qmqaqkKaN047TGeLonn2nJK5wcAYCLuGu9ouHvg5kJqww08q2E/ecB2ALALd8dJ4vRi3kI8bhuPn0E3OF4CAH8cti+4abtZmNcKtdbDMmuzun2srtdSLJ9TWF43EdoV50IADRgqrnIWdrf5ozJfOE9ptbN4njmlKnqlxsfDUyxfC5Rp4bKhldFS/1/kcbAsNy4VTOt7Hg/Hz+mOEwAws7Pjo1feGu9ouIs4aaxrvaEHwLL4zrHPzXvk7DhJhAbyHJfbxuFn0AvOKwDAFzfHjyEnbTZr8VhZaO2wjPVttvb2SbG6XovhnGIcvsNnQwANGErrglMkX9GstAJaHDiLw2lLB9KWqIKW6v4ynl4S2ErNmwu4DamCFk4red43b4iKaACA1nHS94T1hqdO8w09WBffHWgFn/VJebzI6bHC19I8biOPn0XrPH4OAKB1HtsVCDvnuayCtnKQx+UNFTDB7DkF4bgm/bD2CgBuaJXPflQetXHhNIn+f1w1LZymrcMu4qpgJRXHSubbRep1x1Q7iwNz2vhwXGo4HCfyNKSmvXZqeZIYF6MiGgBgYrd/vjzxdLvJ/ou7y5u1V8KY86vN9cGb07VXAwBM2V6caq5hfv/F3eXtny/XXo0iHi6ceDtOEvGxXdfm8dip1e+02dD1JgD45C2k4C1YtZL9F3eXt199hQvPjo9erXos8U0uze4P9+tlKnh5dnz06var0e21IIvnFNv3xiyuRcyHABpQKlf5rK8qWl/FtDhYtmvQLCXXJWQqmJabbwq54Jk2bmgYLRUsi0Nmff9HMo+pcfE0AACWZLWxIoELRQmWG546Bhug0A5XDdrsK9NodDtufyf5rZyK9d/WGBc5y3k4dgo1+p02Fy4kAYA/1kMKGqqflTm/2lwfvD51dWxmMchjyeoBPegMnlNYv+mLz/F8DL/tgDFa5bPweTws0TySmLZGN5t9wqpk0jM85TJTr6t1oZmbrnXrmepuU6vAVtIdpxbKywX8tOcAAMzEbNntFC6qJnnphtPdZw6Aa3znYBcePz9c5CzncVt5/EyaRPUzAHDJXfebtGEN4qVd68HKYTnr28va/mptfeAE3+OzIoAGlAoDY7kuMrVgWhhQk8y43PjUuF3lwmRLVEHLdVnZ183mkPlT3YjGw+FjXBVOe0yNK3lOIA0AMBNvJ98eLxQCANbj7XcOtrj7/NA4PpyzbebuM2mU9Qu2AIAER9WxRPi9GcpjOHzNmwM8bq9VOfv+mNPB69NPa6/DI4bfG77H50UADSgVhstSw1roTKSsAloqiNY3bldayKp0eI51GRpGKwmfaZXIctXQUlXRtMfU6+eed+iaEwAwF8MneBjm/Gpz7eEiKhdOsRYaZ6fjqgHumZxQMQitcLVvGuFum3HsPgmOCQAAS+D3ZgQH7Vqh1du4LG8vQ8ettAnYxXvTNgJoQKm46814OB7XV+0sHjdHuGyokopnU1ftSlUjm6IymvZ/csvUXitV+UybR+u6VHsOAMCMvJ3g7T+/O1x7HQAA/qx+UQB+GbpoUoKLnMOxzQAA8MFbG5bpYJBh7m4OWJn17WVlvzXTJmDle8HZee6aOF+cFwE0YKgwZNZJVUCLw2h9VdHiafHwVIYEpEq6mtyFFh5LvX5f6Cw3TQu39XXJWVr1LBU8izXc5ebHf27+a+11AADAK+sNTyJCIwdQAXcNcM/kxFwXEzDPysWSYlYuZnjkbNu5+2wCADABMwGSQi7aZwzyeK659ipYZma/NfI+3XzcCxb1AAAgAElEQVS+eLv2OnSsnFOY+YxonJ0nekQADSilVT+Lu9uMw2nx9L6qaFooLQ6ojQ2kheGoXBeRWqgrHp4ySJUKhpU+5qTmK6mElntMVUnrqxRHJTQAwAJMn+DFvsmlu0YoJFlp5ADQEEJoGMjVcZJwkXMX3radt88mAACTMBIgKUUb1g6chT7WbOM6v9pce9teSzPTBtm9T0beLzPnFIa/272dJ3pEAA0YIwyfaVXO4nGlFdBKuuEc21VnaSBKC6PNUfksXF4cCNNCY6WhNE08XevmMzVde0yF9LRQWjg9peHKaACAGRg+wcM4NHACWIyRRtNBCKGhYhwDjMe2AwAAk/J4rmSIt9CHmSCPRQbanq28P93n2szn28B7Yx3nifMjgAaUCkNnuXEiemW0bv54Hq2i2Rzdbmpylc/C6X0BrF3kwmbafEMqovW99i4V0OLlaOPj6SlURgMATMTM3V+FzJycYxJWGn/QIC4EgBAaSnlqkOe7bXeetqGnzyYAABOgDasthD6Gsf5587b/zsXi53rt92bt5Wd5Oj90jAAaMFTc9WZJ5bPSCmjauKWkQlXxsDbvFMvVwmBDHlOvnQqyxdPHVEArrYymrRcAADB5km4WJ8gAFmC9kTvrmZwcvDn9ThANKaYbwjELb99pfEYBAC3hJrYGeWrbWvnmANpM086Oj16t/f6IyKPPs6X3a+3v1rWXj/URQANKdQGzOGj2ozI8tgKaFjybuxpaLrwVD89RqSsXEIuVVj7L/b9wGanwWa4CWq6L0lyIr6/aHAAAE3B1guep0QllLDT+ANiJpUbT0bbV0AhywDtv4SnsztWxPAAALfkml1WcK8EXw22nHLcq52tW3i/aZ5M4x14GATSglFb5LK6AFs6rPZZWO8uF0qYOpOVCU/HzXLWxXZefConF61JS+UybP15mX/ispPvRIV1xEjoDAAAA4IGVRtNdPJOT268vvxBEQ8jbRRIucu6ObQgAgGGEJJrjLfzBuWTGivuvlfO6+FzD2+d7Noa/2zk/XAYBNGCouMvNuJJZrhJaXwW0eJpm7u45U91MxtOnElcXS1VEW7LyWa4KmlbJrLTyGQAAczN8ghfjpHwYL9uLxjnAPy/fN0UIosGrGoKgVnjalo6O5QEA2IW3Y/OqzpFW5C38sXbQic9dgoVjZuUcw9Ln++D16ac1lmv6u93TeaFzBNCAoeKqZ3GALFcJraQC2pxdbuaqm2lVwkrm21UqTDY2dCaJ/ycjhrvn4WMuiBaPj6elEFIDAEzA9AmewtJJOQDgL1V+P3dBtDen39dqiIUBFi5UYHFcuAMAADCEEEgx6+fma7RFm2//bvzzvXZoM4fzwuUQQAOGSnW9GY7TpoXjU+Ny46eQq2aW6zayb75d5EJiEo1LdbuZC6jlwm19wxI8T40vDZzlthvdcwIAAACwpOZG02dycvDm9PvBm9Pv5huv0Swax9vF9xIAoAWWQwoa60EgVMzwufka+7GV746bzxdvtfFmzuO4+QorIoAGlIq73Ozkut4cUgEtV0lNmz6XVDWvuaqgaRXG+gJn2muUVEsbUxEtXsdUFbn474iHCZkBAGZm5QS8iOHGE+zG1ecQQFKqMbU2D1XRtmE0gh/18vbecpFzOmxLAACwE9qwJmUmoFPCQIjH1fZagoH3JMfSuccq58CG3x9L703tCKABpcKAmRZE27UCWvx6sb7pY6W63sx1yTllFbS4wli4jFSobMij9ppDhrV11LaF9neMqYYGAAAAABY0dqHl9uvLL2E3nd4CS8gjIN04R99nfFYBAADs4LwwY+GwkZn3ou/cwsi5x9LnFWbeH42R96QVBNCAUnH4LAyO9QXOSiqghePi4TmlwlBLVD/rlqNVLRsaLhPl/0k0rL1+37AEz7VwXqpiXIxqaAAAPODuPQCwr5UqaKpnchKG0QikYVE0jgMAgNoZrpITow1rWlQhGsb69lryPNnKjRp93wlmvjMcfc/Ozcx70ogf1l4BwI0ueKZ1jamF08J5tcppuXHxcGp5U8p1WTlX9bO+5Ya0bjX7gmm56UOGtQpoqYBbPE6iaQAAzMXRSeXtny9Pzo6P1l4NAECfb3Lp6fdlFtu///bry5ODN6f3477J5f6Lu0vrFwMAAAAAwBzOM4cxvL22obCmzov72gHOrzbXD20HKzs7Pnq1VLvF7Z8vT6yWvqLtZlkE0IBSYbAsfhTJh8u08Foq0FayHmPFAa7wuVYBLDWvFhAbKwyH9VVBi9elrxpabv7S4Xgdw/Ei+rK1EBwAAPjLfWUZkw0n2NF9g1i7VZOAytx8vnh78OaU7+vY9ncsDKSJ3N9VS8MmdrX/4u7yZu2VqMz+i7tLN8eeHEsBACp3dnz06vbr2mtRjuP7tlkIWLk6lp3J9ntj/W1QWq3aSGhw0c+vgb8XNhjNIQIGaaGzVFecfV1ypsbN3QWnVlUsN0+qe8kpq6DlKpMNkeuus285uWEJnsfjw+HUNunronPqinIAgCbRLRgAYC77z+8O114H857JyaNuO7ddd/L7bAiN4QAAAAAcMh2CbOw8i64cHSoNDWIyBNCAoeKgWV8FtPAxroAWjyvpgnMOqcBXHMDKzTtWqvvNKR7j5aSquOWGw3XMbQ+te9BYX7U0AAAAADDm/GpzTYPdCATSMJLpC0xOsU0BAMAonAfNghDPCIY/i0uc524rea2u9Lzi5vOFjYrGCwUELbd18H2zPAJoQCmt2lk8TkQPp5VWQJOB46aSqnqWq/g1Fa2by/j52EeRdCBNW7Y2HM7Xtz1SQT2qnAEAAABwjAa7CRBIWw3bGd7wmQUA1MxKkAQo0liFL7MsvA+GQ4A5B69PP829DMvf69yMtDwCaMAYqW44tdCZSHkFNG2cZMbtSgtlDQ1X7SoVFIsriomkw2Z9r58LucXLGlsBLf57JDMPAAATs3ySh/Zw0RSoz/nV5pquOCcWBtJen34ikAbMzOkFIwAAAMDyTWFzt0tbOU8e+h7QhmIA54Cr+GHtFQDcCMNl8bg4jPajpCuglYxbShwwyz2fqwpat5w4HBZP16aF61NSFS0VcounxYE1rQKaNizRcDytJDAHAAAAAAadX22uD16fXpq487g22216+/XlycGbU5Fvcrn/4u6SO3UbRAM5AKzi5teLvbXXAQBacX61uT54c7r2arhiepvdn8/O1uXk7Z8vTyyUVHJ7fj7z+xMsw5z9F3eXN2uvRIMM7K6AM6kgWjwtrowmUl7tLJ6nb1ypXPhJqzam/b+pA1S5KmS5rjVzctXUtG4+tWFRnucqoMXzxPNpz+P5AQAAAMCwm88XbwnILCCqjmbljm8Ay6C6MQAANliuOoUGtXoubjTc1MdSYG3ONgXaKxAjgAaUiqubxeNEHlc1k8z41Lg4XDZ1V5xDuoeMK3flXmMXWkirbxlDAmqpbjzjZaWGJZo/fs04lDY0ZEZFNAAAAACOEEJbGGG0nRHmAQAAADCWlXMwy4HIubaRmW0/tjtNI20nrZ4TWwoBtoQAGjCG1n2mVgVtaAU0LZQ2N63Ly9z4eHiK5Zd0vTnlY7fccDm54ZIKaNrf1TcPAAAAADh08/li3u4boCOMBgAAAO+cVjPCxIwEczCNuQJO3oNTZkKDM37vmn2P+I5ZDQE0oFRc/UyrhiaZcSL9FdDiaWtIBafmqoKmBcNSlcxSYTLttbRKZyVhs3hYe9S2RS6wF88LAAAAAM7d/HqxR4PeioIwGkE0AAAAYHpUz4ElfB7XM3bbW3rPZms3MBoqNhP+axABNKCU1t3m1BXQcpXP5qiK1lfJa0jFr7G06mKl4bKSkJo2XgYMp9ZRouFU5TgqoQEAlmD0RA8AUDe647SBqmhAPy5AAAAAwD2r598ztE2fHR+9MtHmves2N/Kema1UNhNL4b/WEEADSqUqoMXDfeNk4Lh42pRSVc3ioNRc1c/CZWkV0HbtZlNbRq7SWfx/h1RAi/9P6nmMqmgAAAAAHCOEZkhXFY0gmluEpAAAAACkWD5fqPUcdNdtbvk925XZ95w2qlURQANK5Sqf5aqgheP7xsXLShlbDa20Aldf5bMpK3lpAa7S7jdzj9oyct1wllQ+69sufUE9bRxV0QAAAAA4d/P54u3+87vDtdcDW3TPCQAAAADVsVzVaeoKW1Yqdu26zc28ZzNUk7PyHsEWAmhAqT/kcWgsV6Usnl5a7aw0WDa2GlquWleuC87c8K60amup7jdzr1FaCS3V3aZWEU17LK1+pm1PwmYAAAAAKnV+tbnef353yJ2mthBEAwAAAAC4U0P3m1O/zo5aaReoueqcBwTQgFI/ytOqZ6nqZyJPu+sU6a+AtksobYwxYaqpQ1S5qmSx1LQhldC08FmqIpr22Ff9rLTyGQAAAABU5vxqc02XnDYRRAMAAACA4cxVebJ6vj1hYMzKeetUQSYrgajJP8sWQoIKM1XnGkUADSilda8ZhsxyXXOWVkCLp8XDS1qi+plIWbWyXFWzMa8lPcOpRy1klvp/2jQAAAAAaABdctp1+/Xll4PXp5+sNOgDAAAAAMpZCTNppjrPtBL6myrIZCYQVWFI8AmrAc2GEEADSoUBMy2MlhoWKa+ANme1sz4lFc+0kNWuwlBXrmpZyWPq/4VKQmh91c/6qqBp0+J1yz0HAAAAAOfOrzbXN79e7NH4Z9AzOemCaGuvCgAAAACgnJkwk2Ky4JiFylpTt2UYaRupLSQYsxzQbAUBNKBUHCoTeVoBLZ5PmyYF4+LxuXG7SIWn+oanDEzFFca0LjIlGlf6GC+ntPpZat1E0tsmnL+vG87UcgAAAACgMg/V0Iw0tiLwTE7olhMAAAAAnKn4/NrK+WmtQSarwTHUgwAaUKqv0lncFWf8f8LnqXHa8vrGDaEFukrmnaPyWSzVRWau682+bjm1QFtJ9bNcN5ol1c9S6woAAAAADTq/2lzTLaddVEMDAAAAAD/MhqMmqFxmJSA1daW5m88Xb6d8vdGmqi5noUqdwnKFwFYQQANKxdXH4u44U8Pd8/g1tHFzd8GZCpxp4ahc5bOpu+AcW/VszHx9y02F0VLdcnZS1c/oXhMAAAAARIRuOU17JicHr08/WbnbHAAAAADgTxXnlJW3Wez6Hpl9jyt/37wggAYM1YXLfoye54ZLK6D1dcE5Fy0klar0lZp/ClpgbEiXmyVdcGpBs1ToTOueM37sC+dR+QwAAAAAHrn5fPGWIJpBz+Tk9uvLL2YbkwEAAAAA1VZ5Ojs+emW1stYUrFSFt1JlbmpmKwM2hgAaMFRc+SwMo4no3XOWVkATZXq43KnlwlJaBbQ5wlRDQmdD5brdzFVAE3n6N/dVPusL6VEJDQAAAAAeIYhmE11yAgAAAIBxRs+jawg3EWTKq+E9xnwIoAGltMpnsVQorbQCWjheW/7USkJScSht6hBaLhw2phqaJvVa4bLCdYlfSwuoxeuv/T3a8mLaNv8f+SUxNwAAAABUpwuiWbkbGPLQJefaqwEAAAAAa7IaRrK6XrtUMLMSbJqrwpyZynW7VpmzWKXum1ya2b6NI4AGlApDZVrQLFfxbEgFtL7KaHMorYSmPZ9r2blAWS6EFr9WblyuClpqnvAxXl/t7+nbXom/ce9M9giiAQAAAGjJ+dXm+iGIZvRu7qYQQgMAAAAAk6oM21gINs3dFmGkrePs+OjV2uuAOhFAA0rFQbNU+CwVTgtfo29cPD62SzhNCzyVVPFKVQDb1ZhqZ9o8fa/dFzRLhc5y20ALosVyYb4ee+/lA0E0AAAAAK05v9pc33y+eEsQzQBCaIuycsc/AAAAAAeMni+PCTdZCUTNXVnOSuW6seeeVt6nmJXtCgJoQDmtUplW4UyrglZaAa20m81duuMsCU1p82rVv6aQCpH1dbWpheb6uuSM/28umCby9G/OdeMZT+/rznSAhyAaAAAAADSkC6JRFW1lhNBQAcJ9AAAAwDLGHHtbOV6fu7Kcmcp1I6vNWXmfYma2KwigAcVSVc+0imcieoWzvumiTJ9TKlBVOjzVOqRCYal5xry+yNNgWq4CmsjTQFq8Dqn54uGJ7J3J3rvfjg6nf2UAAAAAsC0Mo8k3uSSMtjBCaAAAAJiCo+N4q5V+gE5VVZ9a6H5z6eX0qOY7zsj2xD0CaECpOHAWB9JSYbQwSNZXAS1VDW2JMJpIuoJXX2WvXeRCYal5Sl+vr+KZSLoCWqr6WSpkltouE2+786vNNd1yAgAAAGjZzeeLt10XnVRGW9AzOammgRoAAADAeiyEjSpgturTwPfXynnmUoE+K8HBUdXM2HfRgwAaMFSua00tjKZ11an9n3hYW+ZcUsGuJaqg5bq3LOmGM9ctZ19XnOFyU0G10m45U2G0vu02MpT20C0nQTQAAAAAjTq/2lxTGW1Zt19ffrFycaCUlcZ9AAAAAP6YDXl1jJ4DDzlvtNKt41LvtZnPlNOgYIxzflsIoAFDxdXIUtXOtGBZXwW01DKmkAuNpQJTS1RB0wJeY7vbjMWvFQfStOnxuoSP2jza9hoS0NsxzLf3Xj68++3okCAaAAAAgNZ1ldFufr3YozLafG6/vvyy9joANeMCCgAAALyzEiortnT7gZH2Co9BwZiZQB9EhAAaUC6uQhZ3wakF0eLHvgpo2rjY2HCaFujKVeRaovpZuLzw9bXAWC6YlquKFi8r1eVmuC5aIC1VqU2bX5uW+r8TOL/aXO+9lw+E0ACgYUZOWAEAsCKsjEZXndM7eH36ae11qBLdmQAAAJhhNWzhndUqSl55v3nh7PjolYXzoKW3o/f3zQzaecz5Ye0VANzoAmY/Fg6L8vhH4bicKbvjjCt7lVQ8mzpEpS03N04LofV1zTlmnIgeUusLsMUhtDnDe5G99/JBRD58/7f8LH+Tf827NAAAxtl/fnfIXUl1u1l7BQAgEvzuXIvI2+6Cx+2fL08sNHS79ExODl6fys3ni7drrwpQhH0dAAAAQzkIt5xfba4P3pyuvRpP3R9/c76YYOV921Y43yua2eA51f6Lu0vaom2hAhpQqguYhf6Ixu9aAS02R1ecKalgmRagmjJIleomM16HvpBZSeWzXLhMW75W+SyudlbSfenC9t7Lh70z2aMiGgDAIu4eBQCs7fxqc52skObgAoMZBhufNQTf4Q2fWQBAzaj6A8zA6HlsSbU7E23F3+RylWNwo++bhsqFKEUADSgVVyrTnmvzhY9hoEwbFwfOpqx2ptGCZFp4Kx6eMlyVCo2NCZ2lKqRp0+JwWaqKWaoCWjxdW6Ykpi1k7718ePfb0eE6SwcAAAAAHx4F0ui2cxC64pweDfvTY5sCAIBRnNxw4Y2JwFFlXAc72c9W5/l8iZt37CGABpTSQma50JnI8ApoWigtNHVFNC0YpVX0mqPyWbg8LQxW2t1mKFUJLVXtLPx/8XypymdDKqJprx+bOZx2frW5phoaAAAAAAxDlbRCz+TERWM17xkAAAAALKovbGjlXHKtAN/N5wsTXZSWhEJNBkc5zzeJABpQKgyZdeJKaKnAWWkFtHha6fgSufBYalpf2GoKcVisr4KZto7a/0lNTy0rF1greZToeS6I1jduBnTLCQAwg7vaAAAOpaqk0eBptCHaMbbn9FxtU75TAACVo1oNML3zq821yePInnZgK8fpzX8vOW2vd135r2IE0ICh4upn2nBfIC01Lhw/tVylrb6wVK5bzl2luvXctQvOvippInrQLP4/qRBePD0eXihYNtRDt5wE0QCgKpxsAQCwvLhCWrPV0bxUQQMAAAAG4jh3Bo7CLrS57i67D1n4LKx9Dr/28rd6v+ssvFeR5oODRhFAA0rF4bK+EJrIuApofd1wTilVvUtED1bNEapKBcBKKpqVPmr/X+RpGC0ep61fXOEsF9QL54uHV3R+tbl+CKIBALACGu8AALUJq6M96q6zEVbuXAcAAIADjo6TOc6FF97Cclbah9febmsvv5P7rrPyXj3i6HekNQTQgFJx5bO+SmgiwyqgpYJo2npMJVfNqxOH0qYOoQ3pbjOenqtwFofM+rrdDMdrwbS+bkhLKqEZq4p2frW5pltOAKgDd/sAAGBH2F3nQxitdgbvhg5ZadQvYnxbuuRom7r6rAIAAAxkMsiS4anN1eq6poJNVsKda2+3tZf/IHPOZOW9gg8E0IBSceUzLSCmBdTC/5urgJYKnKXWY0paMCqu9CWJ51Mvu69yWWmFszhk1hc6C8drXXPGj9182t9hLGjWZ++9fCCIBgBYEietAIBWPITRwm46K3Xw+vTT2utQC28X5ixjWwIAANhBm+DMLJ5vWr4ZxMr2MrIens6duHHHLgJoQCktWBYPizwNnWnTUuPiafHwrlLBKC1UtlS4Kg6IlVQ2G/qovY5IOowWh+/6qqDlutns64LTSLecIvdBtHe/HR0SRAMAp4ycqAIAAN1DN52/Xuzxu70sM3eVAz34rAIAWuAqOGA5PIN5cc42m7Pjo1cW9i0r30VW1iPJwHsV47zJLgJowFBhlbOOFkTLVTtLjdNCaVNWPNO6u0w9T1X6mqMCmlZ9bMrHUGkFNInm0x5FeT5kWmrcis6vNtd77+UDITQAwKwMnrQCALCkKoNoz+TE9B3TjrY1lSGmw7YEAAC7Mn2M6w1tgrOyGmSyug9ZCTFZWY/bry+/xONMvneOzu1bRAANKBVXPUt1sRl31SlSXgFtju41c4ZU65qrClqqAlo8bdeKZ32hM637zb4KaKXDDtEtJwBgbiZPXgEAWNjN54u3tXfNiRG4MNcmvgcAAI2wErYoRaB9Gt7aAq2GuXKs7lvxPmRin7J27G1tfQzzuG+2hAAaUErrYlMLmGlVzkoroMXLKh0/By2YJcrwFMtJBcdCJWEzbd54fPjacRgtnKaF07QKaCXDjsNoBNEAwA9vJ14mGhoAADCg65qzhgZny7/v3o6VMBHCfAAA2FTBsS/qZjXM1cvDvmXgGN3a+aGV9YmDopbP8WETATSglBY406Zp85VWQNPGxcuZWl9oqq/bzl1p1c40qWm5IFr8f7XAmfb6JVXQUsPaOmohPmf23suHd78dHa69HgCANHeNIgYaGgAAsKSKamj8vk/GW4UIi7xtQysXnQAAQIRj3EkQZFmGyWPKYB/ydoy+FCtt+0/2U4Pff1a2FXQE0IBSqa4349CY1jVnaQW0pbvgFBne7ebUIaq4Gllcgayk4llu/rhrz1QXnfG6aOuXmpaaPnd4b2HnV5trqqEBAKZEgwMAAI/VUA3N6u+7t0ZqLtDtzts29PYZBQBgFyZDMhlWj3FdMRhkSXJ8PmZVtw+ZOEb/Jpcmj70tfO6s76cWthGyCKABQ8UVzrTnEjwPH4dUO/sjMbyrkhBUrtvNuUJUqcDYWLlAW/z6WmW00sfUuO51+zisika3nABgmLMTMBMNDgAAGOQ9hGaWp21qveHfA7YhAACYCG1YuyHAtxyTwSoJ9iGO0ZOsBHO7/dXifmtlGyGNABpQSutms6/S2dAKaKlqaFNWRgsDT6mAlBY2m6sCmhYSC6WqmvU9ppYRv3ZuuSWP2jht+SmOq6I9BNEAABiLBgcAAJK8htC4ODcdiw3+Xrjbdg73dQAAdmE1JJNEG9ZOvJ0juA+5GD22tHKMbvX9tfK92O2vFvdbK9sIaQTQgDHC8Flc5Sw3ra8CWmnQbKqKaH0Vu5asgNa9dipEFq7HkDBa6v+KPP6bhlRDyw13r6E9d1jtrMTemey9++3ocO31AADYPXnOsdLwAACARTefL96uvQ418XasZLHB3wtv287bZxMAgEkYDcmk0Ia1A2cBPu8hF5PHls/kxMoxuun318L3orP9FbYQQANKxd1rxuPCx7EV0CQzLjRlRbRQqjra3xPzTKG0YlmuillfJbQ4kJaaJ15O6jFel9KAmeNqZ33OrzbXdMsJAOszffKcYKXhAQAAq/af3/m64cdwY7W7YyXD29I8th0AAOaZDMlk0IY1jrvgnoUA0I7MnvdYOEav4P1djIX3K8R75wIBNGCoOHQ2ZQU0bdwStGBUqsLX1CGqvi44w+X2dbU5pPJZHEbTlp+qgJaqFJcK6lVa+Uzz0C0nQTQAWI+3EzFrJ7IAABhzfrW5dvf7bpmzbenugp0BHreZ2YuEAADgL7RhjUJwbyXOznuWYj34aqUK+sHr009rr0PM+nuHez+svQKAG13YTHsUeRpK+1GZps2vjZtDX7eW2nyp6mRzrFf32NcFZ06q+81U15zdcKoy2tAKaNprxtO19a3Q3nv5cHZ89J+P/9z8l/xN/rX2+gAAbDt4ffrJysk1ANTOYiNibP/F3SVhjMf2X9xd3n7lwk2Lthfs2B8GuP3z5Ymr2665OAgAaNT51eb64M3p2qsxyNnx0SvOVQZyFtzbf3F3ebP2SmA27L+FDO63vHc+EEADxtDCZlooLR4XVzuLx8Xibj+1bkBLpQJdcdgrV/lsl3BY6Xqlus7c9TEVPhNlXhE9VKaFy3LTtL+1JJhWifOrzfX5lVw/BNEAAItweYH6/oSWABoALMFgI2Ls9s+XIgRuHvF2cc7yhTl3x0ocJw3n4HsuxEVOAEDTvsmlp99ubg4Y5uz46NXt17XXYhir5zFDuTvvWYKXGz+cfS8uwst7B1f3ggHrCsNkIk+7y0yFzyQaJ5lx4XA4T+r5FHLBNG2+OSqgda9b2oVm6evG/69vOO6OM17HvxdME2WeeN7GnF9trvfey4e11wMAWuG1kcRjV0kAACyKBtdJeDxW8lC50AqPx5QeP5MAAEzFXZdqhEIGcdf9ZkXnXBxjPuXl+8bLei6JbeIHATRgqLjamcjjMFocTIun58ZpobSl5UJW8fAUtEBYLoxWWvVM+z/xcrVqaHF3nKI8xhXQUn9Pah4AAObmsLHk9uvLL2uvAwDACC7qqGhwnZC3YyX2iWLujlKYDxYAACAASURBVCm9fRYBAJiYx5AMNweUOTs+euXtOLa6cy6ONR/x8n3jZT0BDQE0oFQcLtO63Izni0NmfRXQ4mlzyQXKtOBZqlvOqdclXmZJ2Cz+vyVhNImmlVY+y72eFjyL5wEAYCFeG0towAMAAEvweKzksbLX0jxuI4+fRQAAJuctJOMsVLUWd9XPpL7gD8eaAW/fM97Wd2a17Zs1I4AGjKF1r9mNF2VaaQW0cPycSgNlS1VB65aVCpaV/j9N/Jr/LXrwTJtPe0xN19Y5tU5URAMAzMztCRkNeLPyeFEWwAxoxHTL7e+7QR63pbvKXivgIicAAD55DMlwE2UBb+18nCvDEI/fi7Nh33SFABpQKq501o0LH7XqZ934knG58XMH01KVyDpzVUHTusJMdZc55lGU4dy0OFAWP6am5yqo5cYDADAXpydmNODN4+D16afbry+/EEID4AXfVwlOft9dBIGcbMsQ+0Waxy6ePH4GAQCYg8tAtrfjjoV5bN+rMfDjct+ayc3ni7drr8MQvHd/qXHfrBkBNGCouPpZ+FybJlJWAS0VREs9H6ov9KSFvrT/O2d4qrRrzaGvFyoNnpVWQJNofGr7pMZTDQ0AMBO3J2bP5ISLq9MKL8gSQgPghYsAE5I8HId4WMcYVdDSPG4bj59BAABm4zCY7TFktQSXNwZIxYEfh/sWtnjvRKTifbNSBNCAUmHYLAyWaeGzvq44tXFDAmZjqqFpQSctFKWFzeaqftYtIwx5lYTMhlQ/S/2feNnaeojy2BdEG7qtqIYGAJiJ5xMzjxcQrTo7PnoVb09CaEDbCDwA97weK3Gh8ymvxzVeP4MAAMzB5XmKw5DVElzeTFRx0MflvjU1p+8v7524fe9aRgANKKV1wRmG0eJhkWEV0MJx8XBs12poHS0glQpQzVUFLQ57xYGwksfQkDBaN6yth8jjQFo8jyTmTW0nKp0BANbg+ASNi6vTSIX5CKEBMI+LOViCx2Ml9o0nXN684PGzBwDAjLwGs2m/esxr9bOagz5e960peX1/ee/gEQE0YKi4ClooVR2tpAJaOC4enltfJTSR+aqg9QXEwmWWhMtKwmnxcDjvkCpo4XBfKI9KZwCAFdx8vni79jqMRlecOzt4c/o9N50QGtAmTw2YfEdhbl4vRHCh8y9et4XXzx4AALPyGNCm/eoRlzcGiK/zZAzn+v31+L04Ic6b/CGABpQKu+DUnqe63dSmpcaljOlyc4i+SmhzVT8Ll5MKhEk0fWhltL6gWrzscHnxOuaqnKUCelQ+AwCszfFJKgGp8UovxrKNAVjmsuuWuTmsJmDZ+dXm2uWxEhc6RcRvhQ0R5xfBAACYidcbKb2Grqbm9cYAl+cDQ7XwN6Y4/9tbD2Bx3uQPATSgVCpspg2nut7sq4CWGp6yGlouQNbXvWQ8PIXUMlOGhNBEngbStNBZKowWB85KK6DRDScAwBDvJ6k04g138Ob0+5CLsbdfX35x20gIYBwvDbCEbNzy1Ejs9ViJYyS/22D/+d3h2usAAIBZXs5VIq23q3i+McBr8HEIr+c8U/D+t3s6t56c09+D1hFAA0pp3W7GobS4+lmqOlpq3BJdcJZU+tKez1UFrbQrTa0qmvRMk2jaf0tZ6CwVOOsLm4XzaLR1JJQGAJhZDSepfV1J4i+jGzyfyUnrjaVASzw1wFIF7S+E8ebh+Vip5d9uz8eHnj9zAADMzdO5yiMN3zxzdnz0yuuNAa0EXFo+/qzib2/kcxpz+3vQOAJoQKkwYNaZugKaZMaVTBtDC0AN6WJyV6kAmRZK06QCbNrr/F1ZnlblbEwFNBkwjzY/AAAzqqHKQssXWEucHR+9Glr57AlCaAAscnoX/RzchPE8No57XGeRZi90uj5e8fpZAwBgIZ7DIrdfX35p8djMbfhMGgu4tHgc2uLfDKyMABpQSqt01g3HIbSxFdC0can1mFqqElquYtoU4spj2vKGdLupVSRLVTjTgmi7VEBbomIcAAAjeG68e0A4KmnSO03ZzkATvP0u8L20RRhvNp673WntQufB69NPnvcFz581AACW4vlGSjc3jUzE9bnaN7n0dm68i6bCdlu1/M2tnkO0tH/WhAAaUCrX/WYqnCbK9JJxS8l1v1kSsppyHbTKZGPCZyUBNskM71IBrS9oRnebAIAVeW68e/BMTjx3tzSHWbo5IIQGtMHTncCNVnkKtf73L8LTPhFpJYR2dnz0ynP4zPNnDACAJbkOHTTUdrVzJf6V1RJOQprr75LWce7kFgE0YKi4ylnY3eaPynzhPEOqnf2RGN6FVh0sZakqaPFra1XM4mm5imep/yPyOFyWGh5bAS21vYYE1AAAmFFNJ9ytNOT1OXh9+mm2bg4IoQHV89bY7rlblyl4+vu9fbY63u8qrz2ENkvofmHeP2MAACzJ+42UtbepuP/7Gqt+JlJX23CR2gJMtf09Pby2K4AAGjCc1gWnSL6iWWkFtFQ1tKkqo6UCZ6lqZ0tUQctVJCvtjrNELug2RQW0ku0GAMDKvDfehQ7enH6v+SJrztnx0atF7jIlhAZUzWPjc6vfSd5+7zx+th44b9SvNYRWQ/jM+2cLAICluT6mFKm6TcV75TORhsMtHJO61exnFu4QQANKaZXPUlXO4nGlFdBKgmZTVUMLlVTv0oJWUy47VdFsTDecff8/HB8Pj62AFv89Gm0a3XICABbkvvEucvv15ZdaG/NSZq16pqm4wRSA+Gt8bvQ7yVXwxttnKlJDharaQmiLH/vMpIbPFgAAS3N/I2WF3XFWcT7WYPWzTkshptqOv5v6zDa8j9aAABpQKlf5rK8qWmkFNMmMi//fFHJhsiWqn2nrMDRs1lcRTQulpbrhjMcNqYCmLauk61IqpAEAFua+8S7WSBhhsapnmka2MdAilw2yjX0n1XbBygXnITqRekJoB69PP3mvriEiVXymAABYQy0BhBqq+K/aLjWxlkJYsVr2qV61Hn/X+nehKgTQgFK5ymda+ExkeAU0bdyccgGpVMhqjgpoWjWyXJispPJZuL6pKmvxcDxuaAU0rfoaAADGnF9trqs7Wd3eUVpjIOHs+OiVicofFd61C2DL429CIyE0j39jDRdzXAYzFZ4rxdZ0gVOkns8UAABrqOVGSs83CFTRHXqHyko+2wAgInWcb5do5e+sFQE0oFTcxaYWEksF00oroC0VPEtJBc3mroDWFwTT5u2rfNZJBdxSw1qVs75AWjysrQMAAIZUexK3DUl5bdALPQqeGbr46vVCNoA0t78JlYfQvFZ+quViTi0XOj0eG5kI3k+JC3wAAOykphspPd4gUNuxmdvzXwxS6/tcy/l2n1b+zloRQANKheGy1LAWOhMZV+0s7oYz1y3nEKXdQK5ZAW3IMkorog0JocXDfV1yxvOL6NuMIBoAwIiaGu80XYOep4utHavBswdUQgOq47phz2G4poTX8FlNxxau9wuFh4udtVU961D9DACA3VUVJnFSxf/g9emn6o7NqH4mIpXtTwlVv88VnXerav/7GkAADSgVd70ZD8fjSqudheNy1dCmqo6mhaBKKp/NFaLSKo/1dbXZV/Ws09eVZ25Y5GnQTNsGJdsuNw4AgJVUfzHsmZx4CqJ1DXtmg2cR6w2lAIbxXu3JQ7imRBdC9vA7oKntQob3/eKJ4GKnpWMjM92Nz6C6zxAAACup8kZKo0G0KoNnW9W3hRaqOpwlUn2AqbbzbtSHABowVBgy66QqoMVhtL4KaEt3wTmk8llc/WsqWpebuZDZkHBaaTW0ePmpymfaNohfW1vfHKqiAQBW1MRFsS6IZvCC68Hr009uG/aohAZUpYoGaKMXcEqZrn5ZosJqAlVe6BQxE9LvKp65/tznVLhPAACwpmrDQwZuEuhuCHDZPlWoiTbQIWo8z9mqPaBV+zlG7e9fC35YewUAN7pA2Y/RsMjT0Jk2XhLTwnGSGVcybai4elfqudYd5VRKKpuVVD1Lhc7C56nhVBW0XAW0vqpp2vNUGA4AgJWcX22uD16fXtbauPTE/QXXk4M3pyLf5HL/xd2iFwbPjo9e3f758qSm7X3w+vRTtY3AQGP2n98dVlGB6P4Czol8k0sP309nx0evatju+y/uLm/WXokZ3Hy+eHvw5rSa3+1HVjguCo+Fbr/OuaT1efj+AQDAm2rOWTQLH5s9OS6ruWQNNwY0pYn3+ptU257fxPtXOQJowBhhCCzsmjMOp2nT4tfoGxebq0parnJXLqg2x3LHLGNoJTQtaJaaJ35MBc5ywbR4XgAAjKj6wmpO2LAn8nDnX3eX1S4nu90dq7d/vjzpliUiUmWD3jbocfPrxd7aqwJgN9WFkoMg2tKB4xJd8KyWEI617Tulqi90dpTjol2PiR4uam5fX6TSYyHF/vO7wxoDmQAArK26c5aUKIwmslt7ldZO1cpxmUi9N8vsYv/F3eXt15f17UcVV3YL8f7BMgJoQKkhlcrGVkDTXmuqimepUFdp5bNueK4KaP+dGJ7iMV6eJObLVVELH1OvXxJMAwDAoCYurPZ5uDB6f/L+cAFWpP/kN2r4fAgTNNKQB6AeVTZiBhdvum5X1gpL1Vr9qfawTTMXOkPb/UZk/DFRSxc1H6HCBgAAs2ruRsoJ2qtabqfaf353yLHZU+dXm+tHn6VKtBI25P2DZQTQgKHiwFhJ5bOh1c76QmljpIJjpZXPtFDaFLSKZ7kuN0tDZqlqZOHfUdL9prbMknni9QEAwLAmL6wOwXbJqj14ALSk9t+DLmwddmsjMl8gLa4AVWsgp4ULOs1d6Eyp9LthSnS9CQDA/LiRcotjszxuDMirsBvHpt7vCt8/1IEAGlAqFywT0UNjQyugSTRtSaWV0OaqgNa9thY6ywXSOn1dbcbhMa3qWUkFtNTr50JpqecAABhy8/ni7cHrUxqvMAyNeUB1mgnaxBWeouoBXTgtdH61ue66r4k9BM22ry3SRgWolkLIXOhEn5b2BwAA1lT7jTOYBjcG5FVXAZ3uG92jjbkOBNCAUqnKZ7nqZmMqoPV1uTlVl5wi+WBZqhLanBXQtNDbnI+SGU51t6kF2OK/pdNXCY1AGgDAmGZCB5jGN7mkMQ+oU5NBmyfdKT9tiD94cyrJrjMrD5qltNRAzIVOZBHKBwBgUdxIiRxuDEDtqmvHJ0BYjUabx4Ad/LF91CqgieQroXXzpMblxsfTp6AFyVIBqrgLy6mUVDzbNWQ2NHwWB+609YyDZ+G40m1E+AwAYND+87vDtdcBPhA+A+p1frW5pvEPfVo8Zrj5fPGWfQNPEMoHAGAVWtViYP/53SE3BvSr7byf43Hf+D6vBwE0YKgueBYPh9M7f0SP2rS+INoStDBVanjq0FSq4lk8T6rymtYtZjg+/v8l4bM4SKZ1RRqPj5cdmzq4BwDATM6vNtctXlDGMHxGgPoRtEFWw9We2DcQ42IXAADroA0LTzR8noIGVXReyn5bDwJowFBht5oiT7vllMS0cLw2bu7AWS44NqQS2hwV0OJ1SYXJUsGuvtCaVsWsdDhexyHbJVUxDQAA42q7Aw7T4k5SoB3cgYqU1gM37BvocNEbAIB1EULDA6rSDlbNeU2j7di8f7CIABpQKu5ys5PrenNIBbRwXDycG1eqL2QWP09VQpujAloqADaFVCW0eJpWAU3kaRW01GOu+04AAByiugc0hM+AtnAxBxo+E+wbuMdxEQAANnAjJUS4SWaMWo5lqwliDVTL+4e6EEADSoUBMy2ItmsFtHBcPJwbtwutalhnyQpofVXPdnnMLUvrblMLrEnBoySeh6+deg4AgFGE0PAI3RgATeJiDh7ht+ABIbS2ET4DAMAW2rDaxnH5DirYb5o+Lq/g/Ws1QFgrAmhAqTh8FobM+gJnpRXQwvFL6gtNzV0BrXvMVSsTZfyQR+01U0E0LVwWVzyLx+eGS0JqAAAYRQMeRIRuDIDG8VsAEeG3QEEIrVEEMQEAMInzljZxY0DjGt/nawhvsf/WhQAaUCoXGOsLnJVWQMuNn1NJ5TOti8kphGGvOPw1tjKaNr+2LJF0+CzVxaZWMS3+W+LhDpXPAABO0YDXOAIHAITfgubxW5BECK0x7AsAAJjG73RbCJ/tznuAyfv678r95592puoQQANKxV1s/ijpbjnHVEBLBdE0U4XThlQ+0wJXU5iywpn2GvF4rVvO8P/Ew32BtPhvKO3WNDU/AABGETxoFBdZAQT4LWhX6436fQihNYLjIgAAXLj59WKP85b6ET6bhvdt6H39J+H4+462hvoQQANKaaGzVFecYyqgDQmc5ebN0YJaqWmpal5zVUDLdZXZ9/9T82lV1cZUQRN5GkgLp+cqn/UF9uiOEwDgCMGDxnCRFYCC74X2cGGnDCG0ynFcBACAK/xu141zlIl5be/1ut4TI8QFSwigAUNpldDi4TEV0MJx8fDYwFksF+jKVe7qq+K1i5JuM3PVz0peOwyaaaEzbXkiT4NouSpo4fh4WHsOAIBThNDasP/87pDGWgApVBRoBxd2hiGEVieOiwAA8InzljpxjjI9rwEmr+s9Nc/7g+d1h44AGlBKq3YWjxPRw2klFdDCcfHwnEorn2lVwaZafhwK6+tWc2zXnH9XppUEz+LqZ6mKcLtUQgMAwJGbzxdvubhaLxryAJQgkFw/fg/GIYRWF/YDAAB847ylLhybAQkev+c8rjN6EUADxkh1w6mFzkTKK6CtobTyWarq11TL7wuc5aaVzivyNHyW63ozVQGtb71zzwEAqAQXV+tEQx6AIbiYUy9+D3bDcVId2A8AAKgD5y0V+CaXN79e7HFsNg+X2/WbXLpc75l4rAbncZ3RjwAaUCoMl4XjRNJhNImm941LDS+htBLaHBXQQlqITPs/pd1ypgJqY4Jo2jzhfNrfM+e2AwBgZedXm+ubXy/21l4PTICGPAAjURWzPoRupsFxkm/sBwAA1IXzFse+ySXdoS+AkCYWxvlWnQigAUPlgmi5ymgi/RXQSrrgnDKYlgtHpSqhzVEBLe7+MhUm06Qqn8WvH847ZFiC56mqZ1r3pNq6a+tIKA0AUIGbXy/2aKRwjIY8ADui2lMlCCPPguMkZ9gPAACoFuct/uw/vzukzWoZ3qpReVvfuZ1fba4574QFBNCAUl2gLAyWheNEnlY1S41PjZPMuPj/DVUafkpVPtNCVlPo6zqzT19YTet+c2jwTKuAFj5KND0ezm2zqQN9AACshDtJfaIhD8BUHqo90eDpE2HkWXGc5AT7AQAA1eO8xQ8q0i7L27b2tr6I8B1cLQJowBhheCwOkqXGhf9vyLiplIagUlW8UtW/dtUXDhtaEU17/THdcIryvC+QFg9LNB8AAJV7uJOUE0j7qO4BYCYEbfwhjLwMjpNsYz8AAKAtnLcYRpvVerycq3hZz4V5Op+hgl29CKABpeLqZ1o1NMmME+mvgKYFz6bscjNlSCW0OSqgdY+5SmilFdFSYbMh4bPSCmjx3xAP57o1BQCgUudXm+ubzxdvaQiwiwusAOZG0MYJLuwsjuMkg9gPAABoFuct9tBmhRKEl/zj/KteBNCAUlp3m1NXQIunpaZPJQ50lVRCm6uaV6rKWaoSWkmFtLHdb5ZWQNO2UW5bUQkNANCQm88Xb+nSwBgusAJYEEEb4+hqcFVU3LCBC5wAAIDzFiNoszLBS7CLz0mGh+8yD+uI0QigAaVSFdDi4b5xkhkXT0utx1RyFbqWqoDWV4lsl8eQFv4qDZ6lKqBp20hbDpXPAAAN4wKrDVxgBbAWAsnGbC/s8JuwvvOrzTX7xkq4wAkAACIP7Vccmy2ONis7XBwfs49meQgRelhHjEcADSiVq3yWq4IWji+pgNYXMJujIlpfaGruCmha95olobJ4Pk2uClpp15tDKqBpz1PrRjANANAILrCuiAusAIwgkLw+LuzYxMXOZbEfAACAlK4aGuctC6HNyibj5yWEl/LYn7A2AmhAqT/kcWgsV7ksnj6kAlquMtoucsGxkspnWuhqCvF6pcJmqZBZLpwWTw+rlPVVXuuGRdLVzXLbp6QSGl1yAgAaQxWcBVHhBoBBBJJXwoUd87jYOb/953eH7AcAAKAE5y0z+yaX3BRgl/WAF8fzBYx/d/Ee1o0AGlDqR3la9SxV/UzkaXedIvkKaKkg2lRS1cNy82nDU4em4gBZqqLZrt1xagGxkuHw/6Qe49eN/z5JTAMAoFEE0WZEIx4AB/gdWAhhZHe6i50E0SZEABMAAIzEecv0ujYrjs0wCvtiEdMhQt7D6hFAA0pp3WuGIbNc15wlFdBygbOpq6F1cuGoVCW0OSqgaRXIpgibxcsI7VIBTauIlusCFAAAqGjIm1AQPKMRD4AX/A7Mo6v0RPDML4JoEyCACQAAJsJ5y+6oRuuH5ffIdLDKEN5DrIkAGlAqDJhpYbTUsEhZBbRwXDw8dTU0jRbQ0oaXqoAWTxsaOkuFyjpDKqCJPF6neDl9w9pzAADwoGvI4yLrCATPAFSA34EJdL8HXNSpyqMgGhc8ixDABAAAcyGINhDnKH7xGffP6HvId0H9flh7BQA34lCZyONQWi6I1lcVLR4XD5esyxhaZbC+YNacFdDioFsc6BoaQtP+X244nF/7v6JMS1VBy1WUAwAAqu0J6N7Z8dGr2z9fnsgzOVl7ncz6JpfdhdWbtdcFACbC78AI/B40YbtvXJ8dH12ybyi+yeX+i7vL86vNNfsBAACY2/b4+y3nLQmco7i3/+Lu8vbrS1uf629ySXipnNX3cO1VwPwIoAGl+iqdhWGzVPAsrnYWjxu6LrvSwmR9Fb200NoU66CF0EJTdMtZEjzTpsWV0OLgWbz+2vy5v59wGgAAj3QXWUXk7cHr008iIjTmyaOLq2uvCgDMid+BHvweNIt9I8LFTQAAsCJuEghwjlKV86vN9cGb07VXAzvgPcRaCKABpbRuNeOwmTYsUl4BLdeN565Kwl2pcXG3mFNKBcXGVjyLXzO1jL6AmhQsU6uMlqt8luoKFAAAJHUXFc+Ojy5FRJpr0Isa8Li4iv0Xd5d8DtCS5n8HOvweINLsvsHFTQAAYEx4k0BTVdE4R8GCaA8b4ZtcWvou4j1sAwE0YCgtXNYXQiutgFbaBecYueDYkEpoU1dAC5ehhd605Q3tdlObPxceS1VAy3W/WVL5jLAZgMqdX22uD16fuiqjzIUrP4L3qu4GvW0pchrwlrX/4u7y9s+Xa68GRuL9a0MzvwOd7cUckb/+dn4PoAn3jSrDaErgjH1hQXSTgxE4NgN0nvYN2svGU8NoIvVUrSV01oz953eHD59fA/heGs7a7w7vYRv21l4BwLrv/5af5f/Jv56EyeLHmDZ+6nG7isNdqapnidDZ3v8e/x1ydnz06uP/2nxJLis3bsxjRwuh5QJqubDbLuNy/kd+2XsvHwb8DwAAmue2UU8JnAEAhnP7OyDy6LdAhEZZTOfs+OiViLNAGsdGAACgUu7OWTguAwAMRAAN6PEQQBPpD4alQmlrhsymFgTDJg+gjQ2dSWJ4SKAs9VqxKQJmfQigAQCws0cXXDtrNu4F1SMIGADA/Mz9DojwWwATnuwba+0X0f7AvgAAAFr0KJQmsvqxGecpAIBdEEADejypgCaiB81KAmVWQ2dahbOlKqBNXelsTOhsSJAt/r+5cSXdcmoIoAEAMKvuwqtIFExICRv/Croh6hrrRGiwAwCL5v4dEOG3AP4M2i/iC6M9+wX7AwAAwDDqDTUptFsBAIwggAb0eFQBTaQ/fDY2nKb5/+zde7Am+Vkf9m+/5zaXFRKyVhcQgiARkLBFqFCAJRNdyrbGWIUpSE2BCCgJFa+FZhatYOIFETKAiL26rKTdEZRcYJEEBjPgBANlsgYsrivLgWAbrywhxQFiA2KFwrI7c+ZcO39097w97/R7Oef0e66fT9Vb3e+vu5/+vWen9q9vPU/f4bQxQbLd1uitA1q77rixoDsNme00VDatA9osz+1G1/MCaAAAAAAAAADAETE46A3AkfHkyPentda6gmbjwmnpuD7pHZP2sFNdXc7GfR93vtcA26h26GvcXprro+G0WbqhpeO50bVJYbXR/Yz7mz0xchzd+zh9ju4EAAAAAAAAANhnAmgwq3FdzZ4c+Z7W94yszXp9XNCs71Gdo8Go0XBX13nfgal24GtaJ7PMcN+4ENros81519ro9eTOgNnocVxAbdwaAAAAAAAAAMAxIIAGsxoNnI0G0saF0cZ1OJsUNus7aLYb+9kBbTQstpNw2W7CaKPvatba707u3E8mHNO6t+u86zsAAAAAAAAAwBEngAY7NWm0ZlcYrWtUZ9czo+v7qStstt8d0Lq6jo1e302HtK7vXYGySR3QdjJmc1xwr+s7AAAAAAAAAMARJ4AGOzUaEBvX7WzaaM1xHdAmdUbrO5y2k7BZ17197aEr/DV6veta27h7xgXLujqgdXVDG93LuOuTwmU6nwEAAAAAAAAAx5QAGsxqtFPZ6AjOriDa6HFSB7RxQbRpazsxaVxkl65g2rw6oLVNCpvtZORm13tGA2eTRm92BdW6Qmddf6dZwmmCaQAAAAAAAADAESeABrMaN1Jz0qjN0eOkDmh7DZfNYlLgadzoyJ2G1nZqNOQ1S4Bs1mPXe8Z1Qpt03nWc1imuK3Q2rqMaAAAAAAAAAMARJYAGs2oHzBpPpjt4tpsOaKN1u8771g5AjRvDOe/Q1LjOapPCaKP7maUT2qS1aeddx2njS7vWBM4AAAAAAAAAgGNGAA1m1R6xOTp+sx1CG11vHyd1QGufP63jvtF7+rCbjmjz6IDWNi1w1r5nWpezrk5mXe8Zd95+blxns0nd4satAQAAAAAAAAAcEwJoMKuukNmk0Fmy8w5os4zhnPeozmmdvebRAa1r/OW0jmaTarV1jfhMpofPxnU+u1ficQAAIABJREFUG3ecdN71HQAAAAAAAADgGBBAg1m1Q2aN0U5o4wJns3ZAy4S1eejq3jUubNZ1va89jBuVuZNnxz037vpo4K3rfCfHSedd3wEAAAAAAAAAjgEBNNip0e5nXefTAmk7WetT1xjKrvNJ1+fRAa1tXKezaUGzcUbrjQu8dZ1POo77DTvtfKYzGgAAAAAAAABwhAmgwaxGw2XTQmjJzjugdQXP+uyGtpPQVtf5TmrMatbOZ7OM5hwXUhs3hnOW83HHaZ3iur53/Tad0QAAAAAAAACAI0wADWY12vlsWie0ZOcd0EavdV2f13jOcUGprg5lfZo0CnMvx9F37KTzWdffomt0Z/v7pPOGsBkAAAAAAAAAcMwIoMGsRjufdQXHugJq7WendUAbvTZpH32Y1J1rXFeveXVAa38f7VY2qTvaTkJno9emnbf3N3rs2v9+/c0AAAAAAAAAAA4JATSYVVewbPQ8uTN01nVt3Fp7fT9MCkaN6+Y1rw5oXWMzu0wKpE3qhjY6VnNS57XkziDa6HHcuc5nAAAAAAAAAMAJIoAGO9XuctboCqJN63Y2rgPapM5o8zJLF6+ukZN9vntct7LGXkZyjtZpv3cvHdC6zid1PtMJDQAAAAAAAAA4ZgTQYFajXc/GjdgcHdWZzNYBbVwQbfT+veoKeE3r6tU+n1cHtPb3ruDYTkJn457reu+4rmfTOqDN0v1s0rjO0WcBAAAAAAAAAI4gATSYVdeIza6AWVeXs1k6oI0GzkZNuz6rWcdpjuv0Na8OaNPCY3vpeDYp0DZ6PrqPcR3QJt2zk7+R8ZwAAAAAAAAAwBEmgAaz6gqcdV3rum+WDmijdfdjBOekjl3jOqHNowNaV3eyWcJlbTvtiDbuvOtvMKnr2eh5U2uW+wAAAAAAAAAAjjgBNJjVuNGbXaM0RzufzdIBrb02ej66j3kZFzSbdwe0ru5js4TJRp+fdG2WUZujHczGdT0b1yWtax/j/o4AAAAAAAAAAMeAABrs1GiHs67vaX1vH6d1QJv1/X3rCkYdRAe0cUGz3XREG31udD2ZLZTWdezaX9c6AAAAAAAAAMAxJ4AGs+oaszmt09lOO6DNcwTnpHDULJ3PJnX52otxAbHdhNFmHb85rjPauM5mXR3QRuuOrhu9CQAAAAAAAACcAAJoMMXF3z7/gTsW2+Gz0S5nk65N64A2ywjO3Zo2HrLrvq7zeXRAa+p2nY/aaehs3JjNaWuTjuPumxbeG9X1G1fzQOe/OQAAAAAAAACAQ0gADaa4cvXaI8VbUmQ5D9zW+Wy0Q1m729luO6Blh2t7NWm05rgA1Tw6oI1+7wqSTasxbSzn6PVxHdDae5rWAW1aZ7SuPYzuu201DxSXcv+Vq9cemVIJAAAAAAAAAOBQEECDGRWXcn/xlhT5C3kgyZ1jOPvogNa1lglrfeoag9l1Po8OaLOM4Zx0nGRch7Sujmu77YCWkfXR3zHpelIFzy6kKC7l/jF3AAAAAAAAAAAcSgJosEPFpdx/8bHz527riJb00wFt3iGzUV2BqGljJOfRAW3cmMyMrO3m3ePqtd/ddT7pmJHv48J6Xc+0CZ4BAAAAAAAAAEecABrswpWr1x4pLuX+WyG0xmjwbKcd0EbNY+xmW1ega1yYajSc1ecexnUj6wqPzTqic1ywbVzYbScd0MZ1RGufTwnLXXz0/DnBMwAAAAAAAADgqBNAgz24NZZzeWQsZ3L7KM5ZO6CNBs5Gw2l7DaSNC23tpBPavDugtd+zk9Gbk65NG73Zdb6T47SgXvt63fXsytVrjwQAAAAAAAAA4IgTQIMe3DGWM5ne7axrrSuUlo7ruzUuPLaTTmjz6IDWHKd1Qps1jDaqfU+fHdDa9bvO22vGbQIAAAAAAAAAx5AAGvSkGct58bHz524tjhvJOW5t9Nq8dY23nHY+jw5ozXFaJ7Sd1Jz23CxBtN10Phu1mgeM2wQAAAAAAAAAjisBNOjZlavXHrk1lnM0ZDatA1p7fT90jaqcdj6PDmjTxma23z1LEG3Ss10hst10QWvXGK1Xa4Jnxm0CAAAAAAAAAMeVABrMSXEp948NoiXjO6BNG8M57Vpf9rMD2rgQ2CzPTBvLOe583PXRPey0+1lr3KbgGQAAAAAAAABw3AmgwZzdGsvZDqIlk8dzttenXevDlE5ec++A1j7OGi7rOo6r39U5bVIwrStw17XPjJzXwTPjNgEAAAAAAACAk0IADfbBlavXHrkVRGtMGs85qo/AWVdAaydhs657+zDaWay9j52Gzma5Z1J3tNG1rv2N+Ts04zbv/IEAAAAAAAAAAMeXABrsoytXrz1yayxnoytcNo8Rm13BsWlhsq5g2jw6oE0bnTnt3nGm1Ri9Z9LauA5oxm0CAAAAAAAAACeYABocgOJS7r8jiNYOnfU9YnMWXZ3Cus7n0QFt3PjL9vXdBN/az43W6QqhjeuI1nU0bhMAAAAAAAAAQAANDtKtsZzLeeCO0FlXF7S+O6NNCpbNMpazD+NCYn0G3cb9tmkjOMf8DQTPAAAAAAAAAAAqAmhwwK5cvfZIcSn339YNLenugtZ3Z7SukNe4zmfN+Tw7oDW6Op51jd+c5dj1rvZvGf1do4G41rMXHz1/rriQYge/DgAAAAAAAADgWBNAg0OicyznfhnXCa3rfJ4d0CaN2txt2KzrXV0d0NrPte9Pbo3bvHL12iPTfg4AAAAAAAAAwEkigAaHzK0g2jyMC3ftpBPavDqgjYbQxr1nUght0n2j70zu7HY2OnpzuQqeGbcJAAAAAAAAANBNAA0OqeItKS4+dv5cr0Wnhcdm6YQ2jw5oo3sY7VA2Lkg27p6uZ7rGbY6GzlphtIuPnj8neAYAAAAAAAAAMJkAGhxiV65ee6RzLOeTPb1gNNA1Lmg27w5oTd1xQbNZu5511Z5lDGfrePHR8+eM2wQAAAAAAAAAmI0AGhwBt8ZyNkG0p/VUeFKAa787oE0Kls3S5WyW4Npozfb7V6txm4JnAAAAAAAAAACzE0CDI6S4lPsvPnb+3B0d0fZqXLezrvP96ICW7Cx0Nq0jWlfdxnIVPDNuEwAAAAAAAABg5wTQ4Ii5cvXaI8Wl3N9rCG1ct7Ou8/3ogDbt/mmdzxqTRnCmHrcpeAYAAAAAAAAAsGsCaHBE3TGWc5qukNaksNe4Tmj71QFtp+M4u4wbvWncJgAAAAAAAABALwTQ4IibeSxnV0irK9zVde2JMff0oWs0ZldobCedz7re0Qqe6XoGAAAAAAAAANAPATQ4BpqxnBcfO39uT4XGBc32owNa+/u4sNm0zmfjAmrLecC4TQAAAAAAAACA/gmgwTFy5eq1R3Y0lrPR1UlsPzugTRq9udswWq0Jnhm3CQAAAAAAAADQPwE0OIaKS7l/R0G0WTqfPb3j3j6Mdiub9H0n716uxm0KngEAAAAAAAAAzI8AGhxjt8Zyjgui7aTzWXM+jw5ozXGWkNm4MZuNOnhm3CYAAAAAAAAAwPwJoMExd+XqtUduBdFGTRqtOa4T2jw6oDXHdqBsp6M3nz4ct9nzDgEAAAAAAAAAGEMADU6IK1evPTJxLOdosGxcJ7S+O6C13zESKOvcU1cIbdW4TQAAAAAAAACAgyCABidMcSn3TwyiNfarA1pX17PRfXStJ8ZtAgAAAAAAAAAcMAE0OKHGjuVsh8HScT6vDmhN7dFOaGMIngEAAAAAAAAAHDwBNDjBOsdyjgubdQXT+jBp1GbH2sVHz58r3pKi510AAAAAAAAAALALAmjA+LGc47qg9amp+/SO8/axHrd55eq1R+a0EwAAAAAAAAAAdkgADbjlVhCtrasLWp9Ga7aDaE/kVvDMuE0AAAAAAAAAgMNHAA24Q/GWFBcfO38uSXcXtD6DaO2w2UgXtIuPnT8neAYAAAAAAAAAcHgJoAGdrly99kjnWM6k33GcT28d67oXHzt/zrhNAAAAAAAAAIDDb/GgNwAcbnUHsvvLt+fvZz1/t/cXtDufLeeB6n3Xen8NAAAAAAAAACdL+bY8N4O8KEU+N4t5djZyJmXO5FQ+PRs5ne2cunVzkT/LUq5nO3+czfxxBvm9LObDxb15/AB/wolUvi9Pz1o+P0VelEFemDJ3p8ypDPKM6oZsJHkqyZMp8h+TfDzb+Vj+NB8vLmfzIPd+UgmgATMpLuX+C687/4GHv/jaq3oPoq3mgeItRm0CAAAAAAAAsHPlu/K8rOVLk3xpzubFeSovzEpemDJns5HkbJKt1gObSZaS3EiyUJ+vJSnq+wb158mkfHc+mSIfzGZ+NckvFd+W397Hn3YilJezmGflryf5a0lemY28NIN6qmNZ31S0zm97uHX9WXmqfG9+Ldv55Qzys8Ub8+/mvXcqxUFvADh6mm5oxVt2//+QC687/5qHv/Da/3HxsfPnjNoEAAAAAAAAYBbltSzk9/LlSf5yVvJluZEvy6l8VrZShcdOJVlNspwqnLSR5Ey9tpgqKbOe5HSq0NmgvrdI1VNrJVUgbStVQO1MqsDadl27yP+d5Fo28w+K+/J7+/Kjj6nySv7TJH87yTckee4cXvHBJD+SpfxocU9uzKE+NQE0AAAAAAAAAAAOrfLBPDMLOZfreW2S12Qlz+wMki0kuVmvradKxSymCp+dThUkK1MFzlZThc2268/pDANoSRVcO51hsmajrnmmfscgW1nKT2eQ7yku5nfm+POPnfIH8znZyv+Y5BtT/Veb8wvzRxnkrXk8P1Rczvrc33cCCaABAAAAAAAAAHDolG/L12cj35JB/nIWs5CFVGGzpmNZ09VsMVWwrEwVZ9qsj+21rfqZZszm4pi1ptZmvbZSH9vXt+rrSbKSrWzmh1PmO4o351Pz+2scfeXlLObufEfKfFeq/4r7q8jHUub1xYV8cN/ffcwNDnoDAAAAAAAAAABwhyJfm0H+SpKFFBkGytoGrbXmnq61pkVTOWFtu/Vcs7ZRry+kCp+1O6tVzy+kzN/Odv51+c68as+/+Zgq35PPy7Py6ynzvTmI8FmSlPm8JL9WXsn3l5ezeCB7OKYE0AAAAAAAAAAAOHyWUwW/BvVnI7cH0AYZdihLhiM4mwBaExS7mWFgrKzPN+tj6udPpQqabdaf7SRL9XHQeqYZ4zloPb+ZpMjzs5hfLB/Khb5+/nFRPpyXZyH/IsmXHfReUv0r+c7cnZ8p35u7Dnozx4UAGgAAAAAAAAAAh9dmqs5jZ1PFh6ZZre8b7bPVBNpuJjndUet0qjDadqpg2/X6maV6D+3n1uvv7efWM0iZh8u35vt28OuOtfLhfHWK/EKSZx70Xm5T5m+kzAfKh3L3QW/lOBBAAwAAAAAAAADg8LmRYZBsK8lTqYJh2xl2LbuRKhzWdiZNIOx26yPPbY1cb963kipRc1f9zEaqbmft55pg2vVUHdFOtZ57Wr6rvJI37fp3HxPlw3llivyjVBG9w+hLMsjP64S2dwJoAAAAAAAAAAAcPtupxmYO6uNy7hyDuZ1hp7PNVEGwzQzHbW7Ua834zqK+vlSvJbeP6Vysa6616pcZjudcqte3MgyiNTWbfVVBt3eW785f6/XvcYSUP5CXpsg/SRXLO8z+85T5ifLyrYGq7IIAGgAAAAAAAAAAh9NWqlDXUqqgV5cmOrSd4bjMJrTWhMS2MgyzbdT3bbeeL0feudm61gTR2s9t1evN+7Zbz1e1BtnOPyz/Xj59Zz/46CvflWdkOz+T5NMOei8z+so8K//TQW/iKBNAAwAAAAAAAADg8Bmk6ibWBNBWU43IXMyww9kgw/BYkWHXtK611OsLuT3MNsjt3dXaz63U96d1bDqnLdXH9fr+Zl/NKM7FPD9n8927+elH2lLem+SzD3obO/Rt5cN59UFv4qgSQAMAAAAAAAAA4PA5k2HIq7GaKu2yUJ+fye2BsBtJTqfqUNYEyJ6qj03nsjMjNbfq506NPHe9/r6eKph2JlXA7FRrL80+t1KN7dweee5m3lC+Jy/Y3R/g6Cnfm69P8rqD3scuDFLkR8r35ekHvZGjyPxSAAAAAAAAAAAOr41UncvOZhj6Sqqw141UwbMyyc1bV9aT/J9JHs1CPpq78tHczJ8meTLLWcxqnpkzeW6KfEmS/yJlviJllpNUwbPNusLp+jio18v6/SsZdkxrAm8r9ZsHqQJpwy5rKxnkDUm+o78/yOFUvj1nU+YdvRYt8tsp8+NJPpRB/kO2cjNF7kqZl6TIq5N8fZJn9fS2z8pmvjPJ3+2p3okxbjouAAAAAAAAAAAcmPLt+als5mtvjbe844ZUAbGqA9mnspGfznL+cYp8oHjzbVG1ye95KM/PWr41Rd6QpZxNmeEozmQ4WrPdaa25p6i/b9XXFuo9Lddr1fjQP8xz8oLi/K27jqXySr47yff0VO4TKfN3iov56Ynv/OE8LTfz3SnzbeknB3UzyRcUF/L7PdQ6MQTQAAAAAAAAAAA4dMq31QG0hVQhr43WsUiyku1czy/kdH4oT+RnistZ39P73pEvyCA/kYW8NEkVRVpKFSprwm6L9WczVcCs+b6eqiPbQr2/ZpxnWddYy8uKS/ngXvZ3mJUP5e4M8u+T3LXnYkU+lu28sriYP5z5/VfydUl+NNV/gb0p878UF/P6Pdc5QQYHvQEAAAAAAAAAALjDSoZhr2Yk5lqSzawl+QfZyucX35lzxX35qb2Gz5Kk+PZ8JMmXZz3/PEWqzmrr9fsX6v2spQqWLdV7u5kqeLacKoXTdGQb1Pcs3/otr9rr/g61Qf679BE+S57Idl6zk/BZkhQX8o/S15jTIl9Xvi/P66XWCSGABgAAAAAAAADA4bWUKvz1VNaznYdzJv9J8d/nnuLN+XjfryrenNVs5Wuymn9z24XNJKupwmVNx7P1JGdTpW+aINqZ+v4bqTqhbdbnyZf3vdfDonxflpK8oZdiRS4VF/P/7OrZT+adKfMvetjFcjbyd3qoc2IIoAEAAAAAAAAAcPispuo8NkiZzfxolvIFxVtyb3Ff/miery3uzxPZzn+bZDunUgXOFlJ1M1tLFTRrRm/ezHDM5lJr380zTee0Ii+a554P1Gb+VpLn77lOkY/l8bx/149fznaKfNee91G5pw7WMQMBNAAAAAAAAAAADp8q1fJ/pczLi0v5xuLSLjtj7ULxHfmtJFeznaqL2VaqUNkgVWezsv5e1N+L+rNeH5dShc/K+pN87n7tfd+V+bqe6vxAcTmbeylRXMgvJflwD7t5TjaP+djUHgmgAQAAAAAAAABw+Czn7fmsfGlxKR88kPcX+ZFsZThKs0zVzaysvyfJqVThtO3W51R9z3Z9rAJrK+WDOb2v+98H5ftyJsm5HkptZTs/1kOdJD3VKfO1vdQ5AQTQAAAAAAAAAAA4dIo35UPF+Wwd2AaW8qs5lT/P2VTdzG6kCpSdqq/frI+nMxzJ2UTMVlMFzxaSnEnVFW0xd+3TzvfPZs4lOdtDpX9Z3JvHe6iTDPJzvdRJvrq8loWeah1rAmgAAAAAAAAAADCiuCcbKfNY1lN1OWuCZE3wrAmi3UjVEW0zVfAsqYJoS/VaE1y7vrfxkodSmdf0UqfIr/VSJ0nekN9J8mc9VHp2PpEv7qHOsSeABgAAAAAAAAAAXW7mEylTdTdrwmeD+nvq74v12nZyq1/bZv19kCqIVmQ7L8yf7+PO98tf6aXKdv51L3WSFEXKJP+mp3Iv76nOsSaABgAAAAAAAAAAXYo8kYVUozQ3ktvCaE0/s6V6vazP0/q+kKYT2pMHOk50DsoH88wkL+6lWNFfAK32r3qpMhBAm4UAGgAAAAAAAAAAdFnKp2UhVWezjSTLqdI2m/XacoZhtLL+nvq4UK9tJVnLx/Z34/tgOS9L9ev3ajWfzEd7qNPWT6CtzMt6qXPMCaABAAAAAAAAAECXm/mcbKTqenY6yWqqsNlyqs5m11ON2lxJlcK5UT+3miqwtlmfn8pv7e/G98UX9lTn48XlW/3k+vLveqrzmeW78oyeah1bAmgAAAAAAAAAADCifDCncypfmDLJWqqUzelUobKNVB3OztTr66mCaKfqh1dSBdQW6mcW85v7u/t98fk91fnjnuoMlT3WXMkX9FbrmBJAAwAAAAAAAACAUWW+MoMsZ6H+vp4qULaQKmy2WZ+vpxq1uZgqidOE1bbqexaznTL/dJ93P39lXtxTpf4DaBs91iwF0KYRQAMAAAAAAAAAgFE38/psp0rXFKkCZckwbbPdOi6mCqNt1veV9Wc7SZlfKi7mD/dr2/umyOf1VOcTvdRpl3xzVpM82UuxsqffeYwJoAEAAAAAAAAAQEv57rw0RV6bpBq3uZXheM31+rjSOjbhs/UMx3Iu1c+U+Z/3Z9f7p7yc5STP7KXYdv8BtFpfdZ/bU51jSwANAAAAAAAAAABqZZkia3koZ1NkIclyqg5nN1J1NWuCaKut42aqwNmZ1tpGkiIfy6fyE/u2+f3ynNydqi/c3hV5vJc6d/qTXqqUeU4vdY4xATQAAAAAAAAAAGi8M2/Icl6RQZK1VN3PFlMF0W6mCqEtpep6tto6bzqgpb53O8lqvq+4nM39/QH7YKvXUNbq9Ft25WYvVYo8u5c6x5gAGgAAAAAAAAAAJCkfzJckeTBlvbCZKkhW1p+m51fzfZAqnLZVf5rri0kGeTQvyNV92vr+KnN3j7XWp9+0C0XWeqrU3289pgTQAAAAAAAAAAA48cqH8vws5n9LkZU7epaVqcJozfjNzXptpXWtSNX5bCtJmaeykP+6OJ+t/dn9vjvdY62+gmK36y/Ydmb6LSebABoAAAAAAAAAACda+a48L4P8Ym7ms7KdO+NVCxnGkJrBjk0Y7UZ9vRm7eT3JZi4W35qPzXnbB2mlt0rFnDqg9Rds6++3HlMCaAAAAAAAAAAAnFjlu/K8rOUXs53Pv7XYBMmWkyyl6nB2I1W3syZ41gTRzqTqeraWKolzNu8r7suP7MvmD8qgx1DW9txGcPZVVwBtCgE0AAAAAAAAAABOpPJdeXG28miW8pJbAbKlVEGzrfr7Vv1ZzLCn1mJ97Waq0ZtL9fp6/kk+I2/cx59wMMos91ZrcPg7oJVlip5qHUsCaAAAAAAAAAAAnDjlO/Pl2cqvpsjnZDlVl7NBqkDZVqpQWZEqjNYOmW3W3xfvKPlb2c43FOeztQ/bP07mk18q+6tbFCn7qnUcCaABAAAAAAAAAHCilO/K12QrH0iRZ2U51cjNJmy2WX9OZxg8a/p9narv3aivNeM4N/Jvs5y/UVzK9X38GQepr+5iyaDHbmq366tuf7/1mBJAAwAAAAAAAADgxCjfk4tZzU9mKaeynKrb2fVUgbOtVAGzM/XNq0nWUwXSrqcKqJ1qXUuSG/loFvPXi3vz+H79hgNX9jg2c3tuAbSVnurc7KnOsSWABgAAAAAAAADAsVeWKcp35nLW8lBOZ5DNVJ3MyvqTVJGlQYaRo7J1bM7XWvcW+WhW8qrivvzR/H/BoXIUOqD1FUDTAW2KO6fRAgAAAAAAAADAMVJeznIezPtT5nUZpOp0VqTqdpZUUaWNVOM2U19vW0gTOKsCattJtvPhbObVxX35xNx/wGFT9DhqtOwtKDaqr2DbjZ7qHFs6oAEAAAAAAAAAcGyVl3NXnpGfSZHXpUxuC6A1VlJ1ONusvy+MFClaa4MkZX4zi3ll8aYTGD5LkqLHcaPlIe+AVp7Q/8Y7IIAGAAAAAAAAAMCxVD6Yz8xSfiPJa7KUKkS2luRUhmGzJqZ0KlUwbbs+b9tKspoqpLaef5YzeVVxb48hrKNmsddQ1l091uq/bp9hu2NKAA0AAAAAAAAAgGOnfEdekkEeTfLSJFXwbDPJ6VRDFZtxm6v18UaqgNogdw5dXExyNkmR/z13528Vb8xT8939IfdHeTzDAaZ7U+Y5vdS503N7qVLmj3upc4wJoAEAAAAAAAAAcKyUb8srUubXk7xguFgfFzLsdtZ8X00VSFtKFTZbbK0t1veu57350/yXxX+Tm/vxGw6z4nI2k3yyn2JzC6Dd3VMdAbQpFg96AwAAAAAAAAAA0JfyHfmaJD+W5FS2kiynCpAV9WcjVbBsPVX4bDFVL68yw5Ba6nvrktnK9xbfnsv7sP2j5HeTPLuHOr0H0MofyKdn+9Zw1b363Z7qHFs6oAEAAAAAAAAAcCyU78m3Zis/mSKnUqQKni3lzgBa871xKlUgbStVGG3z1nPr2c43Ft8mfNbhI71UmccIzq1ea/bzO48xHdAAAAAAAAAAADjSyssZZCnvyPXcl7NJ1lIFzJaTXE9yNlXwrExyOslT9XEryc0kZ1rFlupnr+eJnMnXFPfln+/fLzlCinzkto5xu6/zvB6qjHpuT3XKnMlHe6p1bOmABgAAAAAAAADAkVU+lJXclR/PQu7LmVSBsoVUqZi1VOGz9fr7QpLVVIGzjbrAUqqQ2qlUrZw2kqzlP+R0vkL4bILt/NueKn1u+WBO91SrMshf7KnS7xffnCd7qnVsCaABAAAAAAAAAHAkle/KM7KWR5KcvxUeW0zV6azMMFC20LHWpGa2U4XQNuvz7TyWMi8v3pzf2c/fcuSU+WCqHnJ7tZilfGEPddr+s57q/EZPdY41ATQAAAAAAAAAAI6c8oF8Rsr8cpJXVAsZBtC2MwybtcdElqnGa5apQmdJFaFavnX+gWzk5cX9+YN57/+oK+7Nnye9hfS+qKc6lbK3egJoMxBAAwAAAAAAAADgSCnfnpfmVP5lbuaLslAvbnTcOEiykqq7WZGqE9p6vTaamlnJj+XJnCvuzxPz2vexU+bXe6rUV8eylJezmPTUUW0ggDYLATQAAAAAAAAAAI6M8vvzqpT51SSfmSRZrS+c7rh5O8n1VIGz7VRBtNNJbtTnjSIP5VP5puJy1ue172OpyM/3VOcVvdRJkr+QL0v3v4bZPLX/AAAPRUlEQVSd+o95gzGss1g86A0AAAAAAAAAAMAsygfzumzk/RkOzazCZckwXLaWqtNZWZ+fTtX1bFB/1pKcStMVbSvLuVhcyA/u12/oQ/meXM5iXnLb4lZ9XLjz/k7b+Y3iYt6zp41s55cyyBNJnr6nOslfKq/ks4sL+f091kmK/M0916j846K4bYArYwigAQAAAAAAAABw6JXvyLdmOw9moZ74t5F2DK0asbmVKmTWxIYGrbXFDLugnUqynhsZ5OuK+/Kz+/MLerSdV2Q9r8xSa62Zg9iOTG2m+s3tv9PtV/ekuDdr5ZX8XJJv2GutFPmmJN+3lxLl5QySvG7Pe0mS7fxUL3VOACM4AQAAAAAAAAA4tMrLGZRvy0NZyLuzkUHKVGGz7Qw7nSV3BtDK3B5Auz0l83gGeXVx6QiGz5Lqt23PcN92hp3R5mWQH++lTpl7yvfn1J5q3J2vTvLZPezmD/LcPNpDnRNBAA0AAAAAAAAAgEOpvJxTOZtrWc7F3EgVqFpPFapaSbKa4cjJ0RGcg/reZgTnRn1fkY9nMy8rLuVD+/dLerac4ejRafednvNe/iQ/n+TjPVT6zDyVe3f7cPlQVlLmrT3sI0l+oDg/9+jesSGABgAAAAAAAADAoVM+mGfmdH4hydfeWjyT3DZ2Mklu1selJNdTBa6a0ZMr9dpKmvGbH8rZvKx4cy+BKZIUl7Od5L39FMv3lA/li3b57N9L8uIedrGa5Id6qHNiLB70BgAAAAAAAAAA4A4b+dks5mUpU3U1S6oxm0WGYzeTYSCt6Yq2keFozs16bTNJka0s5WMp8tby+1OF2ZoRnZupUjRL9flG/X2zXlus15p6SRVoW0wVV2r2sNGqU9TfN1KF4jbyK8Wbc3XPf5ek6uiWVB3OkiqEt5A7w3n7ZSnvz0b+hyTP3GOlUyny8+XDeXVxMR+Z9aHySi4luW+P766L5f3FxfxpL7VOCAE0AAAAAAAAAAAOnyLPuxU0K+rjRoYhtCYcVrTuae5vB9SG5wsp81+lbD1TpgqSFa3z5rNUrzWDGBfr9SZktpAqCFa06jUhsM1U4bbmU9lMegqgjWrv4QAU9+SJ8r15a8o8uPdieV6SD5VXcinPzg9PGoVZPpzPSJG3J3ndnt9beTJb+d6eap0YAmgAAAAAAAAAABw+i7k9/NV0IGu6fjXdyG5mGAi7kaqz2WbrubVUHcjWM+yOllaNrfqZ1db6oPX8Rn1P09lsrbWvjXoPzf3toNxi65mMvHevlke+r7TO26G6QfbP43lvnpU3JnlhD9U+Lcn78if5zvJKrqXMh5L8foqspswzMshLUuavJvmqJKd6eF/jbcWb8oke650IAmgAAAAAAAAAABw+q6mCY2WG4bBqlGW1dirJ9fq8nYC50XpuLcnZTO8OVqQKod1onTd7WEoV8Nqu33c6w1DZ2SRP1dfLVCG3u1rPr6cKyN1VH/dD2drnPgbQistZL6/k3iQ/l/76sX12kku3VRsdwdqf381SDx3cTqD9zDkCAAAAAAAAAMBsilQBsu1UYaq2zVSBrjO5s7PY6VQdyrZTdQq7nowf4lgrU4XPFlKlaW7k9pDTRoaBuMVUwbImFHcmd7aAWq3vWcwwANdnn65mT6P7TP2us+m349qMigv5pynyvv1/855tJvmm4p7cOOiNHEUCaAAAAAAAAAAAHD6DVCGqIsORmu1rzXjMJvy1lSrktVU/s1Tft5XZOmY1zzXjPG/WNRZb79tMFWwb1PfebO2vzHAUZlOjrPfY1O9Ts6dRRYZBuoNwI9+e5KMH9Pbd+r7iQj500Js4qgTQAAAAAAAAAAA4fLZTBayagNdShiGxJphWZjjssexYm6YJam1kGBgr63e1Q2tFbh/9OPq9vd5Wtq5tz7inWS2k6vDW17DLnhSXcj2DfGWSTxz0XmZS5Cfyybz1oLdxlAmgAQAAAAAAAABweDWBspVUQbQiVeJlLVXHs6b72EK9tpwqqLZRrw8yPiC20HpuJVVIrOlYdro+36zrrde1B/XaZv3+pttaUd+T+rmtunbTFW1pD3+DLmW931m6u+2z4lvy71PmtUmeOui9TPHL2crri8u9xwNPFAE0AAAAAAAAAAAOnzOpQl5rqYJW1zMMid0cuXc9VejrTH2tGZu5luRsfRykCoy1bdSfs63rgyQ3Ru5bTBVIW633tFx/nqr30+zxTH3/6VSBs81632WG4bS+bHTs8xApLuY3M8hrk/zZQe9ljF/I6XxVcW/WDnojR50AGgAAAAAAAAAAh0/TrWwxVTCsTBUuK1KFv9qW6vtuZtgBrazPV+tjVwis3RntZv1cW/Pe9VQpm9OpQmXNyM7T9XrTGa0Jxt2s72vuabqk9WUjw7/LqO1UwbTNHt+3S8W35FeynZcn+YOD3suI/zVL+ZvFN+fJg97IcSCABgAAAAAAAADA4dOMsRykCnIlw6RLE+har681YzYXUgWwmvDadmstGYbJmpBaMhzBWWQ4znOp9Xz7vVsZjgBtrrdHYTbrC/V9Zes9fQ55bH7zYu4cK1q03n8IFPfmw9nMlyb52YPeS6po3oW8Ma8v7rk1bJU9EkADAAAAAAAAAODwaUJdbU0QrQl7NYGwZq0dQCtyZwCtvdbufraVKpTWvHM5VRit6WK2kCoQt5lh6Ku53t5rOyjXhOKabmx9BtAmJX6KVKNKFybcs8+KN+UTxYV8VZJvTvL/HdA2fiPJFxcX8t6iuONfFnsggAYAAAAAAAAAwOGzkirs1daM4Gy6ljUjMVPfu1o/t5Uq8LWS20dwbqUaW7ma24NkZzIMraW+r3lusf6+Vj+7kOEYzua50RGca7l9TGcTCutL2TqWuTOod0gVF/IPU+QFSe5P8sQ+vfbDKXM+b8xXFBfyu/v0zhNFAA0AAAAAAAAAgMPneoajJm/Ua6dTBcs26/MbGY7LXO2oMUhyNlUgbJAqQNa2VH+upwpxrdT3rbWe20gVQjtdv2Or9dxT9XNr9b7OtPbZdFFrajfhtD60O689leGYzyOgeGOeKi7kgSzlRUnuS/Kv5vCatRT5yQzy2nwyf6m4mJ/U9Wx+RnOiAAAAAAAAAABw8JbyVSnrvmHLGXYUawJozTjMZrRlc08ybMm03XquTLKeKjhWZDgic7uu01xbrNfb71trXStazy3V500Irhyps50qjFaN9Xx873+U2lLuySBPuxWGa37PTmzlU73tZxeKe/LJJO9O8u7yB/MXs5W/muRVSb4iyafvouRHkvxKkl/Oev5Z8eaD/X0nSTH9FgAAAAAAAAAAgP1RvjvPyUJelEFemDLPSZEzKXM6Zc6myPUkT6TMjQzy/6bIx7OQjxf33OqTBwAAAAAAAAAAAAAAAAAAAAAAAAAAAAAAAAAAAAAAAAAAAAAAAAAAAAAAAAAAAAAAAAAAAAAAAAAAAAAAAAAAAAAAAAAAAAAAAAAAAAAAAAAAAAAAAAAAAAAAAAAAAAAAAAAAAAAAAAAAAAAAAAAAAAAAAAAAAAAAAAAAAAAAAAAAAAAAAAAAAAAAAAAAAAAAAAAAAAAAAAAAAAAAAAAAAAAAAAAAAAAAAAAAAAAAAAAAAAAAAAAAAAAAAAAAAAAAAAAAAAAAAAAAAAAAAAAAAAAAAAAAAAAAAAAAAAAAAAAAAAAAAAAAAAAAAAAAAAAAAAAAAAAAAAAAAAAAAAAAAAAAAAAAAAAAAAAAAAAAAAAAAAAAAAAAAAAAAAAAAAAAAAAAAAAAAAAAAAAAAAAAAAAAAAAAAAAAAAAAAAAAAAAAAAAAAAAAAAAAAAAAAAAAAAAAAAAAAAAAAAAAAAAAAAAAAAAAAAAAAAAAAAAAAAAAAAAAAAAAAAAAAAAAAAAAAAAAAAAAAAAAAAAAAAAAAAAAAAAAAAAAAAAAAAAAAAAAAAAAAAAAAAAAAAAAAAAAAAAAAAAAAAAAAAAAAAAAAAAAAAAAAAAAAAAAAAAAAAAAAAAAAAAAAAAAAAAAAAAAAAAAAAAAAAAAAAAAAAAAAAAAAAAAAAAAAAAAAAAAAAAAAAAAAAAAAAAAAAAAAAAAAAAAAAAAAAAAAAAAAAAAAAAAAAAAAAAAAAAAAAAAAAAAAAAAAAAAAAAAAAAAAAAAAAAAAAAAAAAAAAAAAAAAAAAAAAAAAAAAAAAAAAAAAAAAAAAAAAAAAAAAAAAAAAAAAAAAAAAAAAAAAAAAAAAAAAAAAAAAAAAAAAAAAAAAAAAAAAAAAAAAAAAAAAAAAAAAAAAAAAAAAAAAAAAAAAAAAAAAAAAAAAAAAAAAAAAAAAAAAAAAAAAAAAAAAAAAAAAAAAAAAAAAAAAAAAAAAAAAAAAAAAAAAAAAAAAAAAAAAAAAAAAAAAAAAAAAAAAAAAAAAAAAAAAAAAAAAAAAAAAAAAAAAAAAAAAAAAAAAAAAAAAAAAAAAAAAAAAAAAAAAAAAAAAAAAAAAAAAAAAAAAAAAAAAAAAAAAAAAAAAAAAAAAAAAAAAAAAAAAAAAAAAAAAAAAAAAAAAAAAAAAAAAAAAAAAAAAAAAAAAAAAAAAAAAAAAAAAAAAAAAAAAAAAAAAAAAAAAAAAAAAAAAAAAAAAAAAAAAAAAAAAAAAAAAAAAAAAAAAAAAAAAAAAAAAAAAAAAAAAAAAAAAAAAAAAAAAAAAAAAAAAAAAAAAAAAAAAAAAAAAAAAAAAAAAAAAAAAAAAAAAAAAAAAAAAAAAAAAAAAAAAAAAAAAAAAAAAAAAAAAAAAAAAAAAAAAAAAAAAAAAAAAAAAAAAAAAAAAAAAAAAAAAAAAAAAAAAAAAAAAAAAAAAAAAAAAAAAAP9/e3BAAAAAACCk/6s7AgAAAAAAAAAAAAAAAAAAAAAAAAAAAAAAAAAAAAAAAAAAAAAAAAAAAAAAAAAAAAAAAAAAAAAAAAAAAAAAAAAAAAAAAAAAAAAAAAAAAAAAAAAAAAAAAAAAAAAAAAAAAAAAAAAAAAAAAAAAAAAAAAAAAAAAAAAAAAAAAAAAAAAAAAAAAAAAAAAAAAAAAAAAAAAAAAAAAAAAAAAAAAAAAAAAAAAAAAAAAAAAAAAAAAAAAAAAAAAAAAAAAAAAAAAAAAAAAAAAAAAAAAAAAAAAAAAAAAAAAAAAAAAAAAAAAAAAAAAAAAAAAAAAAAAAAAAAAAAAAAAAAAAAAAAAAAAAAAAAAAAAAAAAAAAAAAAAAAAAAAAAAAAAAAAAAACqAYvehrtzFy5lAAAAAElFTkSuQmCC;fontFamily=Verdana;fontSize=13;" vertex="1" parent="1">
          <mxGeometry x="504.12" y="360" width="91.76" height="30" as="geometry" />
        </mxCell>
        <mxCell id="caR4HVADCC_KzCn6fIui-41" value="" style="strokeWidth=2;html=1;shape=mxgraph.flowchart.annotation_2;align=left;labelPosition=right;pointerEvents=1;rotation=90;fontColor=#ffffff;strokeColor=#3700CC;fillColor=#6a00ff;fontFamily=Verdana;fontSize=13;" vertex="1" parent="1">
          <mxGeometry x="537.5" y="250" width="25" height="300" as="geometry" />
        </mxCell>
        <mxCell id="caR4HVADCC_KzCn6fIui-42" value="" style="shape=image;imageAspect=0;aspect=fixed;verticalLabelPosition=bottom;verticalAlign=top;image=data:image/jpeg,/9j/4AAQSkZJRgABAgAAAQABAAD/7QCEUGhvdG9zaG9wIDMuMAA4QklNBAQAAAAAAGccAigAYkZCTUQwMTAwMGE4MjBkMDAwMGQ1MjQwMDAwN2Y0MTAwMDA1MDQ0MDAwMDQ0NDYwMDAwMDc2NDAwMDAyNzhmMDAwMGE4OTgwMDAwMWFhMDAwMDBiYmEzMDAwMDcyZTYwMDAwAP/iC/hJQ0NfUFJPRklMRQABAQAAC+gAAAAAAgAAAG1udHJSR0IgWFlaIAfZAAMAGwAVACQAH2Fjc3AAAAAAAAAAAAAAAAAAAAAAAAAAAQAAAAAAAAAAAAD21gABAAAAANMtAAAAACn4Pd6v8lWueEL65MqDOQ0AAAAAAAAAAAAAAAAAAAAAAAAAAAAAAAAAAAAAAAAAEGRlc2MAAAFEAAAAeWJYWVoAAAHAAAAAFGJUUkMAAAHUAAAIDGRtZGQAAAngAAAAiGdYWVoAAApoAAAAFGdUUkMAAAHUAAAIDGx1bWkAAAp8AAAAFG1lYXMAAAqQAAAAJGJrcHQAAAq0AAAAFHJYWVoAAArIAAAAFHJUUkMAAAHUAAAIDHRlY2gAAArcAAAADHZ1ZWQAAAroAAAAh3d0cHQAAAtwAAAAFGNwcnQAAAuEAAAAN2NoYWQAAAu8AAAALGRlc2MAAAAAAAAAH3NSR0IgSUVDNjE5NjYtMi0xIGJsYWNrIHNjYWxlZAAAAAAAAAAAAAAAAAAAAAAAAAAAAAAAAAAAAAAAAAAAAAAAAAAAAAAAAAAAAAAAAAAAAAAAAAAAAAAAAAAAAAAAAAAAAAAAAAAAAAAAAAAAAABYWVogAAAAAAAAJKAAAA+EAAC2z2N1cnYAAAAAAAAEAAAAAAUACgAPABQAGQAeACMAKAAtADIANwA7AEAARQBKAE8AVABZAF4AYwBoAG0AcgB3AHwAgQCGAIsAkACVAJoAnwCkAKkArgCyALcAvADBAMYAywDQANUA2wDgAOUA6wDwAPYA+wEBAQcBDQETARkBHwElASsBMgE4AT4BRQFMAVIBWQFgAWcBbgF1AXwBgwGLAZIBmgGhAakBsQG5AcEByQHRAdkB4QHpAfIB+gIDAgwCFAIdAiYCLwI4AkECSwJUAl0CZwJxAnoChAKOApgCogKsArYCwQLLAtUC4ALrAvUDAAMLAxYDIQMtAzgDQwNPA1oDZgNyA34DigOWA6IDrgO6A8cD0wPgA+wD+QQGBBMEIAQtBDsESARVBGMEcQR+BIwEmgSoBLYExATTBOEE8AT+BQ0FHAUrBToFSQVYBWcFdwWGBZYFpgW1BcUF1QXlBfYGBgYWBicGNwZIBlkGagZ7BowGnQavBsAG0QbjBvUHBwcZBysHPQdPB2EHdAeGB5kHrAe/B9IH5Qf4CAsIHwgyCEYIWghuCIIIlgiqCL4I0gjnCPsJEAklCToJTwlkCXkJjwmkCboJzwnlCfsKEQonCj0KVApqCoEKmAquCsUK3ArzCwsLIgs5C1ELaQuAC5gLsAvIC+EL+QwSDCoMQwxcDHUMjgynDMAM2QzzDQ0NJg1ADVoNdA2ODakNww3eDfgOEw4uDkkOZA5/DpsOtg7SDu4PCQ8lD0EPXg96D5YPsw/PD+wQCRAmEEMQYRB+EJsQuRDXEPURExExEU8RbRGMEaoRyRHoEgcSJhJFEmQShBKjEsMS4xMDEyMTQxNjE4MTpBPFE+UUBhQnFEkUahSLFK0UzhTwFRIVNBVWFXgVmxW9FeAWAxYmFkkWbBaPFrIW1hb6Fx0XQRdlF4kXrhfSF/cYGxhAGGUYihivGNUY+hkgGUUZaxmRGbcZ3RoEGioaURp3Gp4axRrsGxQbOxtjG4obshvaHAIcKhxSHHscoxzMHPUdHh1HHXAdmR3DHeweFh5AHmoelB6+HukfEx8+H2kflB+/H+ogFSBBIGwgmCDEIPAhHCFIIXUhoSHOIfsiJyJVIoIiryLdIwojOCNmI5QjwiPwJB8kTSR8JKsk2iUJJTglaCWXJccl9yYnJlcmhya3JugnGCdJJ3onqyfcKA0oPyhxKKIo1CkGKTgpaymdKdAqAio1KmgqmyrPKwIrNitpK50r0SwFLDksbiyiLNctDC1BLXYtqy3hLhYuTC6CLrcu7i8kL1ovkS/HL/4wNTBsMKQw2zESMUoxgjG6MfIyKjJjMpsy1DMNM0YzfzO4M/E0KzRlNJ402DUTNU01hzXCNf02NzZyNq426TckN2A3nDfXOBQ4UDiMOMg5BTlCOX85vDn5OjY6dDqyOu87LTtrO6o76DwnPGU8pDzjPSI9YT2hPeA+ID5gPqA+4D8hP2E/oj/iQCNAZECmQOdBKUFqQaxB7kIwQnJCtUL3QzpDfUPARANER0SKRM5FEkVVRZpF3kYiRmdGq0bwRzVHe0fASAVIS0iRSNdJHUljSalJ8Eo3Sn1KxEsMS1NLmkviTCpMcky6TQJNSk2TTdxOJU5uTrdPAE9JT5NP3VAnUHFQu1EGUVBRm1HmUjFSfFLHUxNTX1OqU/ZUQlSPVNtVKFV1VcJWD1ZcVqlW91dEV5JX4FgvWH1Yy1kaWWlZuFoHWlZaplr1W0VblVvlXDVchlzWXSddeF3JXhpebF69Xw9fYV+zYAVgV2CqYPxhT2GiYfViSWKcYvBjQ2OXY+tkQGSUZOllPWWSZedmPWaSZuhnPWeTZ+loP2iWaOxpQ2maafFqSGqfavdrT2una/9sV2yvbQhtYG25bhJua27Ebx5veG/RcCtwhnDgcTpxlXHwcktypnMBc11zuHQUdHB0zHUodYV14XY+dpt2+HdWd7N4EXhueMx5KnmJeed6RnqlewR7Y3vCfCF8gXzhfUF9oX4BfmJ+wn8jf4R/5YBHgKiBCoFrgc2CMIKSgvSDV4O6hB2EgITjhUeFq4YOhnKG14c7h5+IBIhpiM6JM4mZif6KZIrKizCLlov8jGOMyo0xjZiN/45mjs6PNo+ekAaQbpDWkT+RqJIRknqS45NNk7aUIJSKlPSVX5XJljSWn5cKl3WX4JhMmLiZJJmQmfyaaJrVm0Kbr5wcnImc951kndKeQJ6unx2fi5/6oGmg2KFHobaiJqKWowajdqPmpFakx6U4pammGqaLpv2nbqfgqFKoxKk3qamqHKqPqwKrdavprFys0K1ErbiuLa6hrxavi7AAsHWw6rFgsdayS7LCszizrrQltJy1E7WKtgG2ebbwt2i34LhZuNG5SrnCuju6tbsuu6e8IbybvRW9j74KvoS+/796v/XAcMDswWfB48JfwtvDWMPUxFHEzsVLxcjGRsbDx0HHv8g9yLzJOsm5yjjKt8s2y7bMNcy1zTXNtc42zrbPN8+40DnQutE80b7SP9LB00TTxtRJ1MvVTtXR1lXW2Ndc1+DYZNjo2WzZ8dp22vvbgNwF3IrdEN2W3hzeot8p36/gNuC94UThzOJT4tvjY+Pr5HPk/OWE5g3mlucf56noMui86Ubp0Opb6uXrcOv77IbtEe2c7ijutO9A78zwWPDl8XLx//KM8xnzp/Q09ML1UPXe9m32+/eK+Bn4qPk4+cf6V/rn+3f8B/yY/Sn9uv5L/tz/bf//ZGVzYwAAAAAAAAAuSUVDIDYxOTY2LTItMSBEZWZhdWx0IFJHQiBDb2xvdXIgU3BhY2UgLSBzUkdCAAAAAAAAAAAAAAAAAAAAAAAAAAAAAAAAAAAAAAAAAAAAAAAAAAAAAAAAAAAAAAAAAAAAAAAAAAAAAAAAAAAAAAAAAAAAAAAAAAAAAAAAAFhZWiAAAAAAAABimQAAt4UAABjaWFlaIAAAAAAAAAAAAFAAAAAAAABtZWFzAAAAAAAAAAEAAAAAAAAAAAAAAAAAAAAAAAAAAAAAAAJYWVogAAAAAAAAAxYAAAMzAAACpFhZWiAAAAAAAABvogAAOPUAAAOQc2lnIAAAAABDUlQgZGVzYwAAAAAAAAAtUmVmZXJlbmNlIFZpZXdpbmcgQ29uZGl0aW9uIGluIElFQyA2MTk2Ni0yLTEAAAAAAAAAAAAAAAAAAAAAAAAAAAAAAAAAAAAAAAAAAAAAAAAAAAAAAAAAAAAAAAAAAAAAAAAAAAAAAAAAAAAAAAAAAAAAAAAAAAAAAAAAAFhZWiAAAAAAAAD21gABAAAAANMtdGV4dAAAAABDb3B5cmlnaHQgSW50ZXJuYXRpb25hbCBDb2xvciBDb25zb3J0aXVtLCAyMDA5AABzZjMyAAAAAAABDEQAAAXf///zJgAAB5QAAP2P///7of///aIAAAPbAADAdf/bAEMACQYHCAcGCQgICAoKCQsOFw8ODQ0OHBQVERciHiMjIR4gICUqNS0lJzIoICAuPy8yNzk8PDwkLUJGQTpGNTs8Of/bAEMBCgoKDgwOGw8PGzkmICY5OTk5OTk5OTk5OTk5OTk5OTk5OTk5OTk5OTk5OTk5OTk5OTk5OTk5OTk5OTk5OTk5Of/CABEIAyAD6AMAIgABEQECEQH/xAAbAAEAAgMBAQAAAAAAAAAAAAAAAQQCAwcFBv/EABgBAQEBAQEAAAAAAAAAAAAAAAABAgME/8QAGAEBAQEBAQAAAAAAAAAAAAAAAAECAwT/2gAMAwAAARECEQAAAfuAAAAAAAAAAAAAAAAAAAAAAAAAAAAAAAAAAAAAAAAAAAAAAAAAAAAAAAAAAAAAAAAAAAAAAAAAAAAAAAAAAAAAAAAAAAGuuXHl6z2HiQe48PM9l5W4vtG8AAAAAAAAAAAAAAAAAAAAAAAAAAAAAAAAAAAAAAAAAAAAAAAAAAAGs2PA8JPvMOWeSdW8rnSvs/O+dHqUtAAAAJgAbdfpamF7xMJfrvT58jqnrcVk7e5F7UdDfM+6tkAAAAAAAAAAAAAAAAAAAAAAAAAAAAAAAAAAAAAAAAAAAxMnzvyqdE+c57hX0XhagXMd5qm7GtKYAABsNYEwLVUAJ26VkwSgAG6dTRlizfZ+j+DHYb/EPYjq75L6ddwAAAAAAAAAAAAAAAAAAAAAAAAAAAAAAAAAAAAABULdf4r5JPtfkaSiYAANkYLEwlAGRitVrIEoAAAABsxMZgNuob8qzUDNAAbtI+v+x4/kduc1+2j1AoAAAAAAAAAAAAAAAAAAAAAAAAAAAAAAAAAgnR858In1fx2pQAAAAAAADLGauU4mxG7TLllhKYhRkIsa7nUJrZjiAgAAASQkQnYagJgfT/dce2HbHwn20u0AAAAAAAAAAAAAAAAAAAAAAAAAAAAAABHx59D8N88s0gAAJgATGVMbGiyExmhRImzVICgECUCUSIAAAAbDWABngiYAAAABeojqH0HEPqzojVtlAAAAAAAAAAAAAAAAAAAAAAAAAAAAVqHNE9P58oAAASTEAAKEkSAAAAgmCD0/azr5Sfu9mdfA4fd1I+Ose1T1nztXo+dvJKoSImAzwzMYmAnONbdmVgAJgMsczBMAHo9J5LsO2PlfqpQAAAAAAAAAAAAAAAAAAAAAAAAAHzNL4NM9ZQAADLHIu5Y0kYzFokiQGaYBQABAPVir9j7Vrh2p52sOe6um3hm0NF+nZRo+jVs8jzfcodcebM49uUpiwnaumb+/N83d6mqWnFqqYoq2QNQAIM7JTAAA+y+NHb55p0iMwoAAAAAAAAAAAAAAAAAAAAAAD4Z8lZVTAAAAAAFJAAkkACgCRAlv9Noev5esMmJrjZqzuK23TjrXr2q9VKl2pvNKjfpdMeZpt1e3LLbow1PT00pjbhn61bq+upm7K+GO8t2lZs1TCgBE54WtSomM0AAB7/gDtmzlnT42BQAAAAAAAAAAAAAAAAAAAAHxNznVk+x4sk4gAAAAJoAAE9SrogxSqJAACPf8DonLf0E4PJrPBGbjjOOOuGnbpdNdbbW1nTV36N5qVbtTpihSvUe3OMdm3Wa121gbqmjTWzVLWYTACokQmAmTGUBMQAmLxRZYgD6D58dtz5z0WJCgAAAAAAAAAAAAAAAAADAz8S/yVNGBQAACYvlGPR84E0AAFgCQmAACkZYxPWOYdR8nfdODzXLFjNTranRXz1ro1WdWpW0WKu81qdin151dPpZdeerKtSs26MZ64CssSAISIEAtvKrG84oY16NGCXan0fgdM1xy2AAA+7+Ek7e+f+glAAAAAAAAAAAAAAAAAAY5fEngeIWAAAAL9H1B5f0Xz6Yi0ALBIAAFCUiQRlBb6Zy3pXi9VxpeXrswSuEbIl1YZ6awrRS6886OzX254Y4UumMvPxw1lMbLNtf1/J784ltzdLLFQgCEyYiAWAJbTVGzalYSk5GAAALPW+N+8dSRMoAAAAAAAAAAAAAAAAg8zk3reNYAAzw9FKOFymoDPCa2axAULDPEACgBKBQEw2Rq6N8R9H5PR9Hs07PF6c2GhnfqpVOkt09Ontzz1bI1NOnOoYUdtTpjCJbyiYsyHTG25TsxrrWK5iLXoefZjDVnrITAEIksLO8ozjAzwG3fTRM4gAADoX13FuvRbCgAAAAAAAAAAAAAAPlvpORJRFAAJgABUgACxu07D3/JuUJKw1QQSACSMt1/GqzRWzVylJ0SPA9Dy+i3orbNZY2kuucK+bnVV9SKuVTrjHRMbwFRMZbyiWss9ck4gCso2yaosaTELCRDLGPUnyszCMsVAZ4TEwtlNMAAD6r5WTt7yfWlAAAAAAAAAAAAAAGs+Q+CtVbAAAAJixoqJiQAEE0BKFAgkAG+XXbys41Z8v18M3xLNutZszo6au+h87MfYZeJa83e9rq4m/Tq07zsr66+85V4ayIqYZayS3mEwAQmADOzU3ReobNBgFbNY9nxssIBUAAnP6NPmG/RKzwAAAH0PT+IdYj1woAAAAAAAAAAAAD5H67kSeYKAAWK8k4gJoAALJAAFgCQGw3zs1897JrYlrTWazt17N281ExKiRjZ0Jbs0I57uatEGeMEmE1EzOsxJqQkQAACEwJhGWJaEAQmAIRMKBlYqozw2awAAAB9N8zkduU7koAAAAAAAAAAAAHi8p+t+SsAZYyQAAKTEgIbhry2TZXbRqblaW4aW7UAAJjYYNpNTaW163gTvGmN0Z1qbhpSIbZNLcjS3DTO0ao3QakxQKEQmABEiDeaH0fryfCui2DmTp2g5xH3Xjr863aVCWAJiT0PPnGAAAAAPuvtuQdfgFAAAAAAAAAAAY5eQcyp+r5dzAVMZmAAAqQJgdau/CfYudtW1lnOhsS1NXWt/GrkWeY9F+Rr5FibyYyZdV550Vi7NPOSyqxLZyq41Yz8/clmpn8SvzbBrXVr3k2M8/QVcmrGVLYWMKuKX/Ls+cvN2DWs4xGSJAqE5Rh6P0P1Ez4/v6co35Uc4szXhd2fnWLLE19cWflPodtvJtHVPgTyRNhQQm/cTw0wpIgADrfJPuT7cSgAAAAAAAAAAPhPu+UJ4+etWeAAAN+jKoRJliIC2ut8a+9Z+qmtgxYzobSxlV1l6KuZY8u3XTlK9RvVMSfcfWeTbnO7jWFtQ2rZyqwb8/P3pt5L9l8LdgvVrvlWJz9FUlbUV4LWuvgl7y7fmrzQXYGRNkE1s6Phfzm1lViLGfn7ktY6NEt/KrC78/O32WVfQX1HMtKeZ8H891zn014coakVZmqgCxnUAAD2fGyO3NW2UAAAAAAAAAADXxbq3JrAAExJb07q6YRs12piQkkEke34quyz5FyYsKZm6q4Leyq6i3lUyPjflOgc/bn0vN+zX7SK+LG/Pz9zNqNGLVrGnmljPz6h8d4uWN6AdWu+VYnP0IrZLYVMUt5VsSx5+dU5mL0AzsVsrmPtPl+kpfxqbMrGFbBLk0tq2sqFmXZjUyS3hp11dVM5bCvrSyq4WehR2prkev6z5NpMFkABMDbH0ifM42aygdT934z7OAUAAAAAAAAAD5TnX2vxVgAAAGeBUg9LTVJjt1TW3UH1n3PHuqzN3CtgzfU8yzNTWXMqcm3kXVvgV8TqnOOorZitilvGsS0o7S1jS2lr4L6vl7WsXQmuqej493POzNTEvKmJcmtitjz86ic0GugRkLPt/rPLsZxexqQW4q4lzOhtLcadc1ZmvCbtnm2KsTXwi5GnQtrOjsssTW1m3kPXubTXkBqdmraYxORs07ps0zlEa4FA+p6Pyjq8AoAAAAAAAAERKTm/zHu+FoAABliAVIAEwskDoHwHsp0nOhtmLE1tZexrYFvOnkWvlfoaa/PfbeJdLkVSWs/P3pYmvDVnGnsT534X0KF3DbrIyxzrqlzyrGcehFbJbE09pv118EveXb81eaxMa0EuVup69z0ya2Gc3IqbFsK0G/OhtS0rfMzVvyfkl3959Lx76qZ+9ypb02RT2ljDRps9CauUtj4P7L5Q+KTDaYE5YixupbbLVZBqiYlElrsvEe2xIUAAAAAAAAADkfl+h59jLETE5GEoAAqQAiYmgM/U8iU6l6Hwf2EzfVM035VdRcitqT0Yrmt80LCWMK0F3GtJZmhtWz4vpc+PDmF3arQSconU6pc8qxjPoKuS2FTFLeVbEsefnVOaRMa2EuX0Xzvv3PRFfDObuNTNbKqN+dDalrnP3/OWvFDb3PD+wZ+2mpnM75rwtnHRoufQivM1v+Z975c+IiYbAkE568iURSCNu2Isw7HyXq0twSgAAAAAAAAAcdo+l5tgG36D5vNMtMwoAVIJQRMZVAArb1vj/wBlM/aK0yWJq60t5U8jflTktzUwLs1oN+fn7i1GiFck+q+TugVMZWSLOqX/AB72M2MqeJfivC2tdfBL3mWvNXmsTGtBLl9N8z79z0VWnMsTW1lrKrBY2eduSzzbofOWvL97yunnhfS1kllXwLkU9pYw0aLPRVZmrHx31HPTw4mGyQAAABlur5pb6tx7sEtyRQAAAAAAAAAOS+T7Hj2AAZY5YgGeBUgAn0/LzScCgp6PnE7JPzvq5xeirmtjDToZ9CK+S7sqmxd2FaEuqslmNHgtfFVC6AZ45WBZ1S55e/GfQivK78qmw3YV8EveXb81eaDWwjL6b5n37noivhnNyK2RYVoW1jXyixzX77n1unqfLOlLuz86wzYmvjFqKe1bGGnRc3cq2uW3yP7P4NpEmrOrWAAAAGWI2di412szklAAAAAAAAAA5h899b8nZDMYAN2sxAFSABMLJAFDNPf6HyLpOZ6sVcks4aNLN+NMLYypbV34VSXcawtc2+x5k0F0BlJrIHVLnlWsYvKstWsa4s4VsUveXa85eaC6BcvpvmfoLnobRhnNyNOhbeVUb86G1LXNOhc5a19T5Z0pd2fnWGbEaa8XlLZVjOlnFhX+OXxvLG2UQCSAAE2ymmADd2rkPXoBQAAAAAAAAAPjPiuj8wsyxACYAAKzYkBQskAU26pT0PpPi7kdYmrjMWcq0m7KnJcjQWzFfE3bPP2J8p8hv0XoAyxzsCwZHUrfmb8Y9CK8tb5q4JbyrQb/AD86pzMXoBl9L819Bc9CmvhnNyKmxbGFbBLk0tpZ5t97z9rR1LlXTS1hpwS4qZxvnRpLUeb8hXufAxM6RsiAy3mizqmzRjljKBNisJgAPoen/BfewCgAAAAAAAAAUuOdw40lQUAMjHZs0mIpMSDampliSiaCgExKdI93m/3eZazqSzvypyXI0FsRoxLPzXt84XyxdATlE2BYB1L0fHvYzYmpBcmrgW5r4ljz86pzMXoBl9N8z79z0RXwzm5jVFmK+Bb2UNxZ5r0TnDenqfHLy9R2coJ1XXyumdL+e+Xxms9WeFBGWevKzdjjBOuJWBBliAAAdH+p8/0JQAAAAAAAAAAHNelfJpzvLCazwBMDLEAExNPX8gmzWCYmgAoEy6vyb6iT7vOpMzaiuWxNTBLkVRV5h9D89dgqYmzOCwADqlzyrGM+hFbJd+VTM34V8EveXb81eaC7E1P0vzX0DPQ1fHObcVNi2Irwb8qO1LXNOhc5a8dOd1rmBsiCbM9Fg3UNmuWAAsACAJgAAFup9QdIEoAAAAAAAAAACncHD49rxbJRIAATAFSAALJNhrel5xAsWqo7DPzXs5x6GOgu+aNhN9SPmF+Q1l2AyibAsTAkHVLfmWMZvxXld81cEtzXg3UNlQ5mL0ZYjL6f5f6G56Gr45zbxrZrvmsNuyhuSzzTofOGvI2al0ESKAQExkiG24edj6XnriIAAAAdJ512Y3CUAAAAAAAAAAAD4/n3aeNWayQmADdpAKlEgAJOWE1ZrAFAntdJ470eZ96K6LGVPabuUfZc+aC0DIWBSYJMJOqXPKsYz6EVsl35VMzfhXwS75lrzl5oNbLdZI+m+Z+gToivhnNyKma2FaYsRok383+9+Bt8OJsXVZljGbLbvNYt51TZjFOJlnqRd06IAlAAAA+l6X8/9BAKAAAAAAAAAAAA5x0fyjkcoslAkAACYVIAAskAUCPrfkt51+Ke3Od+VTVHxHz8xrYCYmyRQAAHVLnmWMc701pWxGgtjCvgl7y7fmrzQXezCFk/TfM/QJ0RXxzm5GvRLYzqq350Nxa5p0Hni0a1iu1jjarEt9eybVOVe14mdnreNniYjOggBMZG3T6HnkAX6HQD6+SUAAAAAAAAAAAAADl/z3WuTWQBMSAGWIFSiQABMLJATNkZsz7X6jl/R5m38X9Xy2WoRdSBJYmBKJAoDqlvzbOOd1Xld81cC3NeDd5+2oczF6AT9N8z9Bc9EjRjnNvGtmb8NGBayp7Tfzr7vnzXm68paaYG7Zq9TWfHmcpqNd2lBBSxmlRMSgAAAWuw/JfZQCgAAAAAAAAAAAAAOadLonHG3VYBIAAAqQAAJjOycko269laulc196Z+j5z7vhtYxK2JiYndp2WRhlBCYEwJQPot3zA+nfMD6aPmUfTPmS/TaPAEAmAm/QWfTvmEfTvmIX6d8wPp3zCPp/CqiCQSM9canpY1IzWv0K5Xb8CNldLMAAAAvUeln0OwlAAAAAAAAAAAAAAAA+K+D7fydPIFJgSZmAAExasrJgJkjJsqG2UyuvTPnFjSacN+uzVGZdcyCBIEwJQBJCRAAAAAAABAAAyxyJwzwgQq5TyLNTLGNtzzshEAgoRMAAldKKdp7XUKN6AUAAAAAAAAAAAAAAAB5npjieronO7AJs1ZJgAEwqUCQM8JTbOGVbLNLckYIIwnGoCghMAEoEokCgAANjAkCUAgTAAABKAQAAG7TlGJC5zgSExKAAAmA6N4PSAJQAAAAAAAAAAAAAAAAAHOejYHEXteLYAmJABmYLFegJywzNmOWpNuyvnU44wTECQJiSzWzwSBQAAAEoEoEwAAAAKEAAIAAnIwEu3UhAUIAAAAepU6wWtpKAAAAAAAAAAAAAAAAAAABW5R2CiccXqNgEokTAyxZGK7SoBMCcsZSAoImNtayCUSAAEkgWgACUgKAAEAAEAAAJQBAAEAN+gZYgA249ON3skoAAAAAAAAAAAAAAAAAAAAAHn8r7JROOPQ8+wCUSMsRZrAAFJiQAAECgEwJRJZiITSFAAz3V5TEKAAIJQAAAAlAQAAQmMzAAADPLphj9CSgAAAAAAAAAAAAAAAAAAAAAAAVeYdZ1HE303zNgCYEgAAl6FOtQJQJRIBKCCRGeFAAASgSgSgSWCsSQAAJQABAAAEAAAALNrpxW9glAAAAAAAAAAAAAAAAAAAAAAAAAAj4z7QcQx6vzeygBMCUSAZRAACgAJQJAAbMUxCgTaqZpjAAoItVRMAmBMCkZEx9f48njC0IAAAAGw1/Te79aadxKAAAAAAAAAAAAAAAAAAAAAAAAAAAA07hzr5TuHgpyx6PnUAmBIAAAAoACUCUCUSAAM8CAogkglAmcd5pjLETA9OtVQAAAAAb/uj5jovoTKAAAAAAAAAAAAAAAAAAAAAAAAAAAAAAABh8d9oOK6O0fFWfGNuoAlAkAAAAAAUABOzXsPQ8u7SiBQAAAQAABliAGyzn9dHwUbffr5z6v7H04q2hQAAAAAAAAAAAAAAAAAAAAAAAAAAAAAAAAAAKvx33Y4vW7Z8vZzt6/kAEoEokAAAAAAAAAAbMYIAAAAAAXPqz4z6r7a5HmemKAAAAAAAAAAAAAAAAAAAAAAAAAAAAAAAAAAAAAAA8r1R8D812OE4e6189Xwz2fIMQJgSgSgSiQAAAAD2vO0QQAgSiQ9H3j4/f0r3TnX1PvoxyFAAAAAAAAAAAAAAAAAAAAAAAAAAAAAAAAAAAAAAAAAAAAadw8DxvuBzDy+xk4fHa/PrkjplI+AfaVz5N9JrPn3uweG9zM8B9HvPlX2Vo+DdJvHKLPXrRyr1/vkfM+1cKAAAAAAAAAAAAAAAAAAAAAAAAAAAAAAAAAAAAAAAAAAAAAAAAAAAAAAAAAAAAAAAAAAAAAAAAAAAAAAAAAAAAAAAAAAAAAAAAAAAAAAAAAAAAAAAAAAAAAAAAAAAAAAAAAAAAAAAAAAAAAAAAAAAAAAAAAAAAAAAAAAAAAAAAAAAAAAAAAAAAAAAAAAAAAAAAAAAAAAAAAAAAAAAAAAAAAB//8QANBAAAgEDAwIFAwQCAwACAwAAAQIDAAQSBRETIDAQFCEiQAYVUCMyQ2AxNCQzQSU1QoCQ/9oACAEAAAEFAv8A9r2kRaN3bLR1GzFfdLKvu1jX3exr7tY191sqGpWZpby1ahNE39sZlUSalZx1JrtuKfX3ptavGptQu2pppW7iu60t7dJSaverSa9OKj16E1Hq1m9JLHJ/YXdEE2r2kdTa+1S6peSUzs/wRSQZQt0gkVFf3UVQ67OtQ63avUVxDMP6zLPFCLjXIEqfWLqWnkeQ/ALLx9GdHsgkGDU7uGoNeU1BeW9x/VCwUXOsW0NXGs3MtMzOfG3i5XlTBqRch1+mPwEXKnQoem31O6gq21yF6iljlX+nTTxwLda6KuLqe4PUG2onf5RxxR8TLIZD1xSyRNa65IlW17Bcj+lT3EVut3rjNUkryt3xRiIXuqpYkbfABINprM8NWl/b3X9HllSFbzWyakkeVvgijMxj8QN6ZSp6NuhWKknf4QO1WeszQ1a3cN0v9C/xV9rMcNXFxLcP8ZyD4k79ArL3N6nugb9DbdSO0bWOtkVHIkq/n7u8htV1S7upO7t2BUmG3yQdqPbtbua1ew1SK6/O/wCK1DWQlPI0js7N3BRIx+YANvh6frDxVFIkqfmbieO3j1DVJLrtA7fG2oKxrB62I8FUEMpXsgb94Dfps7yW0exv4rxfy9/fxWaXV1LdSfOhsZpaj02NaW2RawopTJT26muPia6l5G7AYjx2JrGgooxEDrDEdSO0baZqyz/ltT1RbandpG7ApreRYoBDR+Fb28lw1rYRw0I6xoiiKIorT04qRKZduxsaCUI6wrbam/a5wTv6XqxSgdx+S1XVcK/z2hTXEjRb9jb07NjZPdPDbrEm3jtWNNTU1MKcU4ojw38NqCE0sBoRAUsampUwpqNFsewKmi4+zpeptbFHV1/Iavqvz7K2a6mhiWKPx2o0xo0aampqen8ApNYqKHGFM7UWZqA3MY41dvUnei3gcdnAHWdz2tM1FrNo3WRPx2r6nvXE2J+dp1r5a38d6Jo0aNGmpqampx4bnbxRS5jRYaeT1ZqJ37QrdcD2tM1BrN43WRPxms6ntQoXh8ufhWccUkswVX7OjW/Nc7dRo0aY01NTU1P0xwFqyWMM9Fvh7dWlagbR1YOv4rWNR4F+LvW/a0aPis9+s0aY01GmpqejW1LEzlUSKnkJov3duxCyBT1aPqPA3+fxOqXws4mYu3x//OsetRLgnUaJo+vgaNNTU9KhYrABTv7Weid/EdqFA7Sfpv4RpGYqSBmVl27Wiahv+H9aurhLWG5ne5m7NtDyvdQcL/FtRvcjpNE0fXwNGmpqdqO7Vw1kFDyimct3wdqJ38d6FWV/5eGU7nsg7HSb7zUX4UkAarem7n7UINTIfjWX+2DW/hvW/QaNGncCiWasAKLbVJIBTOW8WjK+O3zbeZ7eW0uFuYPwmvX3ct3Aq6lDU3xDUJxmVq36iaNPIopmZq9BRamNO1N4xnF7u4528Nq269uwW9qjcyx8beJG3Y0m98rODuPwWo3YtLd2Lt0gURt0g0W3+PbtnEOjeidqeYCnZjW4FEk1tTGmNOetRSISGWj0W9u01OuJ7RO/gRtSHFp5eVqPXoV7yJ+BPoNUu/N3PVbSrEZpTIe3t3wpNYrHWl3GcYNb1vTSqtGctTGjJtXqawo+lMaY0xpj1ilbamPTHKyUx37EceVS27xjvQytDLazrcwfgNduuKD4aLuY7feOZMT2wN6SKmlCgnerObhmEy0biizmt1FGQtQUtQQCv8UzUzUxpjTHs71v0js2s/C1zctN1KuRI2PY0K74pvnyOscd3ctczfDU7FZ9lkfI9pU3oIsaySmTx2q1y4+TatyaEZNBQKLUWotRNE0xpj8ACitHp28R6k9aFOPrB2OmXXmrX531DdbL88LSp6Rx7C4zdhFIaFq9CGJa5AlGU7wyq4DAVnWVFqJomi1FqZqPfFLtUgWm6Fq4EHEext0A9ei3Xl7r5sjiOO5mNxP2Qy4fEC7Ui0wNCajNTTmi9F6zPgrFTHPlWdZVlRai1FqZvhA0Wonp37CDcx2S8coAPa0u581afM+obnCHrjCmj8bHDwBrkrJqLCs6J36llNctclF6L1v+CB2rlOxO/b0G54rr5mo3Hmbv5qHZnMT1ulZrWZ8UXKnhZPx//wCPaUlWtJhcW3ytXuPL2XRt3QN6ZSp+Fay8UuoX3mqP44QqbY9v6cuPT5X1DPncd/ikrikoRyUUlY8Ulcb1xSVxSVxSVxSVxSdYRmrjkrjkrikrikoRyVhIa45K43rikFcUniEc1xvXHJXFJXFJXFJXHJXHJXG9GN170cMktR6RLUGkW+MWn2pg8rau/lbTnnsLLObSLfOXSJ1SSN4z179zT5/L3nyScRcuZp+8Dsba6Wa2zXEMCqsGoSoTmuTSKtF1ClgFV1aldWrVkCX3TYhIrfNci6gsyoCwCq6tSsGoSoTkuTOq1eXIgtPDTmBs+Rdy6gs4Ws1xBBVWDUJUJzXLU3As+3aWU121tpdrCxZI6LqFLAKrq1KytXKm+ahmcLWa4vxvFc6TFLUsbxP8LS5uex+Rqkohs5ZYynRv6drQbgJIuwit2HBEQQDujsonyCTfttCd4VIaaJlz1qL9Do06Ez3QYMGZRcTsoNyRwMd0QhpYiDQO8UjKJiQk+sT+nhphHl9/0ZmUOzBZk2EMLLwxEFQQyuyifUvbB2VUu2m6YmcZQTOyifIRy7Y2rHeJSGlhK5D/AKZSolJCzJ7bf91sCHmeKC4a9sntW6reFpTc2nCh7P03N8n6jl99Kdi3qerjOHgdui2mMFxyLgrq1KwahKhOa5NIqkuoUsAqurUrBq1AJPadH09FsglRjkuTSKpLqFLAKrq1KwahKhOS5SzJEJ5TPN4aawNnypuXUFmVAzBQrqwVg1CVCcly1Rx5LsRxtK+m2UVtGsisQ6kmVAS6rTMFrkXFXDUrBq5U3zUMzha5Fx5FxV1allVixRq1Ww8s/THIUp5S/jEwV7h1kk6dIl4r/wCRq8nLqHZ37Gkz8lqhBkiIIB3R2UT7hJv22hO8KkNNEVz/AIb2Lgu/HT0wsQQwZlFwSEkYY2bHdEIaWIg1/mKRlE2uTGNfHSyODf8ARmKh7kjikIpCDJEQVByV2UT6l7YOsAk6Zax21vH7okYNSOvOTtHMQKcjk/8AFIaWFlLj/qlZRKzBJl9ob3Bv1XBDUzKLl8Q2o2htfgKcWifki+NI2CMcm6ooXkqRCjdnSbjy94rqwVlahKhJlQFpFWjIoAdSoYFVkVjkpb6gjAuPDToua8VgwV1Y8qbl1BZwtB1KhgVWRWIlQnNctWm57zx01gbPlTcuoLOErNcchisitQdWJlQHVGAsegU6gLWi2qomQxV1aldWoSoSZUBaRVJdQu42DAqsisc1LNKqlnVaZggV1YKwYLKjHlTcuoN9FHPA6lH7WBojbo0WTk0/42rPx6f1rMwRjvWJ28durTpvMRREEA7oTsgPHInsqPal91sCHfJfM6vHla+H0/ENrcjaNl5/4piBTECWPbAe6035JP8AMWqTi3jJ6NLI4P4ZiockLMmwh/daAh542XzB9I9V2Fj0DwtIee4QBLU+62U5zoQXU7oTtHvxyfttVZeJPda7h3yXzG+FSe2CQ+5CN4vWIHKv4ZiAzHabWbbtL/mI2qRzEFvH6bf9P431E+1p2cjt42ao0twFElJtu+29aBchJFkViHUsZUBZ1WmYLQdSoYFVkVjmpaVkKyKUetNRYbJWDAOrHNcmkVSXUUHUrkpVZFYh1La/cZ3HRpzr5TNcmkVSzqKzXHIYrIrEOpJlQHVGAserQkWOLNcchisitSyKxEqkmVQS6qWYICwCq4alZWrlXfJQzOFrNcchirKwWVWOa5NIqlnVReIstsRsfFVLURt4JGXrbwyPT9PPjefG+pX9/dB2onpjcxvHIs8iMvmCcUmIVHYZxkbJ77YMHfJfMk41q8PDdWUYlukIyt2BqN152dRcFgkifpVGQEX32gYPLJPHDJI5kk6LIhrfNfMlgjJ+kU2EP77UEPPGy+YJ2j1XYWPVaoLZV9tsTlbN+q++aqd0J2jmIAmK8LHeJSGlhZch/wBUrKJWISZPbbxMvDF7ogcqZlFxuEkb22rncaqoW+8UYrRO9L6En3Cn/cUIHRpD4aj8UHevqFt77r/87mg3GduJUJzXJpFUl1ClgFWRWpZVY5rkWUN9Qxgw/T8YBzXBZFallRjypkXVS7hKDqVDAqsisdfuQI+gVpzA2fKmRdQXcJWa4hgVVg1CVCc1y1RwLPptE5Lp5FSs1xyGKSK9K6sQ6kmVAS6rTOFoOpW61qGI/fZt4NcjYieMhnVaYhRmuKuGpXVjypuXUFmChmCj6h2aTpFE5AMu0mLD1I6LRsLr4m3hrTZal8MVYEwXAO6OyifcJN+20J3hf9Qg5vkvmZWUSXsYkTT4uDTT7rVv1ZAch/FMQKY7Sx7YD3WmQeW/n8xd1gdvHTCODf8ARmKh2IWZNhDCRwxEFQcldlE+o+2Dp0rbz5OE6+lsfdbKc54ivMjLzn0jmIAc/q6tcmKDx0S5xqT2wOy8X7rYHOaNl5v4ZiA1wRxOdxrwyj6w21BqB9OgHYj1HxdUO+oeAG/wVprgG30y5FxbGVQWdVpnC0HUqGBVZFY8q75qGZwtci4q6kKwYLKrHNcmkVSXVVLAKrhq1W6Edl4GUlPHTmBs+VNy6gs4Ws1xyGKyKxDqxMqg6owFj06F/vM4Ws1xyGKuGpXViHViZVBZ1Us4Wtck5L3x0Y437Oq0zBaDqQrBwrqx5V3LqCzhaDqV19g1h171/ihR8Mfa+JGNQHeD4uof73Rj8HQZ8LknZJtgjkcke2y+62Bzf+GVlEhIWYe0IQWj90YOQZlFwWwkYY2bHdEOUurzcl11aYRwb/ozModiFmTYQ/utQc50ZfMH0j1XYWPTop2vScJ19tsfdbKc54mXmRl5z6RzbAN/26v/AL3jo0GCye2CQ+5Nt7YjGNl5v4ZiAznaaP0TWD/8b179K+qopY4sVtP9T4t9/u+KepVbaNZNt+/G5jkhnSVGdVpmC0HUqGBVZFY5qWaVVLSKtZrjmuKurUHVjypuXUFnC0HUrcXCxWrEserTmBs81yaRVLOqhmChXVqVg1CVSc1y1Rx5Lp0A7XrOqUzBaDqQrBgsisQ6sTKoJYCmYLWtHK/hjMskejyubXSbaN8lBZwtZrjmuCuGpXVjypuXUFnC0HUr9QyBo+4KU+8MVq0O9p8W/Ui86MvhaJcVcEU5/Uj2pfdbA5vkvmScaX9N19Lc+61BznjZef8AimIFMQJY9gmsXH6PXphHBkvmCcWcY2shpDu8RBUHJXZRPqXtg6dFO17ckcbsMkIyj90SMGpHXnJ2jmIAYjk1f1v7Eb3f73yXzMrKJWYJMvtt/wB1sCHmjZeb+KdgGchZY/SPVpMpu6PCy/0/i6kT53p26Dtt0ioEjKt06fP5a7aRVoyKFLgKrhqV1auVd81DM4WuRcQwxVwwWVWOa5F1Uu6oHkVEu5jcXHXpzA2fKm5dQzuFrkXEMCqsGAlUnNctUceT6dAO167ha5FxyGKuGpXViHVjmuTOFJdQutf/AGGmf76sGrlTcuoZnC1muOa4K4aldWPKm7SKpaRRRlQR3MvPceEDqjud27I8LX0tvi6uMdR6d/Ttb9ek3IeHbG0PrCpymiYcn8MpHKSFlGwghI4Y/dGDkGZRcTkA3BBg1qcLZdjTCPL/AMMxAdjjMnpDCRwxbFQcldlE+pe2Dp0U7XpOE6+lv/m3U5zxEcyMOd2Any45dtrbV/8Ad0z/AH4mGQ/6pSBKThMvtt/3WwOc0bDm/h345EHGdWl47T4EYxj+Lrw21H4+i3PBcmRQpcBVcNSurVyrvkAzOFrNcMhirKwWVWOa5NIqkyKq6xcc952NOYNZ8i7l1DO6oGYKFdWCsGAlUnNctUceS6dAO16zhTmuO42VgwWRWKurEyqCzqpdwtaywa/0z/fV1euVdy6hmkC0ZFx5FxWRWpZVY5rm0qqXkRF1G683c+A7sQyl+N9Rr/ytqHoWO58EANH4AFbNG0MgfTyd4VIeaJlMn8UrqHJCTD228LDhjOUYbKmZRcFgkl5J5fTezpZHB/FMyh7kjidgaQgvEQyg5K7qJ9S9sHToh2vSQko9tvGy8MfuiRg1Iy859I5iAHO0mret/pn+/CwyH/VKwErHCZQUDAsD+qwOVMw8xlxyare/pdtoHWLo05cr7431Iv6aSYgntD1J7SnY3E3LWhXQCh1KhwVWRWOQLNKqlnVQzhArqwVg4V1Y8qbl1U/UFxlJ2dOYGz5U3LqCzha5FxzGCyKxDqzGVQdUYCx6dAO16zhazXDIYLIGpXViJVJMqgtIqkuoXWvXUNM9L9ZFYh1LNKqlnVaZgtK6kK6sFlVjyrvquqCMeC9AjXE9Jlcp0aEuWo/G11M9P+RZzeXuYiNk91uDk+Q8yTjUntt5D6ofdbkVGw5/4rl1jWeUzTdgVppHD/DMQHY4zJ6Q/utQc50YeYPpHqvpYdOiHa8JwnX22591spznUguvqp9I9+KT9lrq53vbEb3e+b5DzG+FSe2Bz7kPrF7opbiKNLvVHkj8DtQO3hl7fShtR7X02n6vxr2PltOxidvgaNciSyDAqsisQ6lmlVS0iqGcIFdSFYOFdWOa5a9c4QdrTpB5QOpZpVUtIq1yLjmMFkDFXViZVB1RlFj06Adr15Atci45DFZA1LKrESqSZVBZ1UuwQa166hpn++rq9cq5F1DPIFpriFFl1e0jFxrcz1JI8reIOxx3PqlA0Tv3Pp6PGz+Pdx8V10gb00ZWt+rGj2tHuOC7X3WwOb5L5knGpPbbyH1QjK3YVGy87MouNTn573tWRzt8l8wTgyfpFPSH91qDyTIw8wfSPVfSx6dFO14ThMvttz7rY/qvvmq+qH0jm2AmI4tXO96jtG4v7oV525xN7dMWllfwO3gRt0g7Vl6E+nQR2NPj4rL4/wBQRYXtAblhsfHfrtLhYabtA7GyuluLdZFYh1LF1DM4U8i4ZrgsgallVjqV2ILXp/8AOnTmBs+Vdy6hmcLXIuAYFVYMBKpOa5ao48n06Adr1nCnkXDMBFcMVdWKurEyqCzqpZwtaywa/wCsKDRiXi+Fax81z8j6iiytvk6LJuQc3yHmZWAkJwmX2wfutW/VcHIaxMTN29MI4P4ZmAdjjMnpDCw4YzkoOSuyibUvbB06L6XhOE6+23PutlOc8TDmRl5z6JMQA52k1b1v6KkdUb40T8P6fizvPkXcXPbH0PyLaUwTxzJJXKuRdQzyBa5FxV1YK4YSXUcccjmR+3prBrPmXIuoZ3C1yLhmMEkDFXViZVB1RgLHx38NBba8eQLXIuGYwSQNSurFXViZVBZ1Us4WtZYNf0zE9vatq27ugQ8dn8nV4OC++Eo3q4tZLfq0aYzRfwysBITjMAVCfuj90et3A8v3NMI4P4ZiA7HGZPSH91qDnMhHOfSPVfSw6dEO14ThOvttz7rdTnPERzIw5z6Rzegf/s1b/f7Q8E3qAJlLhkR20Qu8MYii+T9RQZQ9e4x7QNPKzjp0m44L3lXcuoZnCnkXDIYq6st/P5m67mmsGs+Vdy6hmcLXIuAYFVYMBKpOa56o48l06Adr1nCnkXDMYK4Yq6uVdWOa5tIFJkQLrXrqHQKPSPHKlkGUrBm7Wgwct58q4iE0EiGN/A+nx7OcXFjKyiQnCYe23hYcOoXIhse7pjDg/imYB2OMqe2GFhwxEMoOSu6ifUvbB4JEXB8NFO14ThMPbbn3W6nOeJgZkYc7sOffjl2wtdXIN5SgEH08FqQKPCJFajQG9EbfA0S34bL5ev23Hc/J0G545S6hmcKeRcAwK61c8913dOYGz5V3LqGd1QMwUK6sFcMBKpOa56o48n4ZUfDQDtes4U8i4ZDFXVgsisVdWJlUFnVSzBa1g5X/AAtx77UfHehTupFaeIWm1ARCfs8Z26LGDzN0BsPl6nbeatPkq5jflSSicZl9IHnEFkxJPd0w/ofwzEZXB/Sc0nq8fqo9yuw5tS9sHTonpek4TL7beNhxR+6NDlSMOc+iTEAOf1NW/wB/mbCjEQlGMhOgNtRbfsijcMYuj6etsY/m61a+Xu/kGtEuv+O0ioHcINeusu/pzg2fKu5kUM7ha5FwzXBZAxWRWYyqDqjqLHp0A7XrOFrkXDMYK4YrIrUJlJMqgs4WjIoXWCPuCIXrbajIStZEjiYrQFFSPHfu20LXE8SLFH83VLXzVr1+m3wGqxm4LiT0glYCrqY3Fx3tMP8Ax/4piA7HGVPbF+61BzmRh5g+keq+lh06J6XhOEw9tv8Avt1986nJ19VPom/G+2Nrq5/5qOVpm3HglSZRRml9DIQy+MUZkYxNl2vp+1xT5+uWnBcfHfw0+6WSz1ufitOpELURt2IdXuIovvdzX3u5r73c198ua++XNffLmvvlzX3y5qfV7ieLps7p7ST75c198ua++XNffLmvvlzX3y5r75c198ua++XNXVw11N4mgayq1VHkuVVZCOhW2oSEdqytzdXEaCNPn3tut1byI0b/ABn8NKn431a48xd9QYj8Nt4+oomrZUZ5dsosSz7b9vRLPgt/wOv2W4+LGuRlhIBFKxRj+HFEbdMCB3nQI9b71KsYTfvaPZ+auPwTAMupWZs7jp2PUhTHx3oGt6yFZCoHUGRxi7CshRYVvW9b/hBRO/SDRO/jv3DxcVQxtNJZ262tv+D1C0W7t5EaN+hZcU7wNM3ofkKNyw2Px2Qqvht6b+nb0Sx4Y/wut2HMnxG/Jb9/RbDzEn4fWtP4H74oqR4sa37HE3F+HAGPe0+za8nijWKP8O6K66nYtZy9hRuZUwboB2p3L+Ldnf0/CNt8G3ge4lsrVLSH8TcQJcRX1o9nN2CeyfzEeO56Y42lfTbFbOL8Xd2sd3Dd20lpN2BUkDRr1HqG235ZFZ20vThZp+NvbSO7iu7aS1l6xTys4+LCFLygZdQqVMD+DRWdtK00Wi/j7y1ju4ry0ktJfmxPg0jZN17/ADAfTqjjaV9M05bRfyNzbx3MeoWElm/9Ht4JLiTT9Pjs0/JyRrKmpaU9t3LZY2L7b9xjv3348PmWNlLePZ2kVpH+V/zWpaPlTAqezv8AH4v0uuNlCnoPRia2+Bp2kvcVFGkSfmL/AE6K8F3aS2r/ACPTH/zpyO3fH+dNs0nW+iEUndjjeV9O0dYvzksSTJqGjvD+BYY9rbphuWiqWUyHuWOmzXZs7OG0T89faXDdVd2U1o34iKRomPwIYZJ3sNFSOgNh/QHRXW90QGpoZIX+UBU1pLDH8Hf08VXemgYA+ABY2WiySVb28Vun9EnginW80NlqSN4m+Rl6vcSOnxbUgPe3ED2zerWejzz1aWMFqP6RPbxTrd6Eamglgb5wI76Bma10m4lq1sLe2/pskaSLdaHE9XOnXNv8zbvQWs9wbXQqt7WG3H9RuNPtrirjQXFT2lxB8mwW3Z5QA3ZihkmNvok8lW+kWsNABR/Vf81PptrPU2gVNpd3FTKVPxN6364bG6mqDQZTUGkWkVKioP65JFHIJdHs5Kl0CpNGvEqS0uI/iJBNJUek3j1FoDmotEtUqK1gh/szxRvT6bZvTaJaGm0COm0B6Og3NHRLyvs97X2i+r7TfV9ovq+z3tDRbyl0K6NDQJaX6fWk0K1FJpVklJbQR/8A9Jf/xAAmEQACAgICAwACAgMBAAAAAAAAAQISESEQUBMgMTBAA1FgYXCQ/9oACAECEQE/Af8Aj7fa5/Fj0z2OPTP4sdrjHrntV/gyi2eMoV7pLIopc4MDXpjtVoyLLMcsfrn1fWxWzAkLljHzntP4lpmBIS5Y/wAWOU+r/h+FeM8Njl6Ltf4tPlyHMw+H2yXNzLZX++Gxvl9njjBkUhSMmTPLfaZLFuUyxnjJnt8emTP48osiyLLoXJov8PIXLinnlywX0xzFM8gpbxxcuKZ5C/tZFi4pF9FiwpJ/vyeEXPIXLnk1zf8AouXFM8gnnjyaHP6X2eQv622KZccxSL6HMuy4pZ/fuXZdimKZF54v8PJovsv8FN830XLly/o5YL7LlxSL/C5cuXZYTyv3m2i5cUxTIyyxywy/wuXZf4KWebl2XLl/S5cuy45CkX0WLFy4pZ/eyeQuXFMuOZc8mi+y/wA9L6LimeQv6XL7FMuW3w3osX2X0X+lt/vyk0XFM8jHMU2XLlxSb9L6Lly5d8t4Ll9imXLb4bwXFIvosKW/328Dn9FMUy7LlzyF9ieVn0vou9l9nkL8t4HPbLimXFLY3hl9Fi2y+i4pZ6C5c8mhzFMuX0y28et9FxTPIX5bwXL7FMsKWWN4ZcsW2X0XItvoG8FzyaLimXLibfq56HP6X2XL8t4LssKZczsbwy+hzZdlxSbfRXFMu9l9l/hd+19Fy5cu+W8Fy+y5dilljeGXLFhNvo3LeBTLvZfZf4KWfa5dly5d8t4Lly7LszvHGzfSttfBTHMuy7F/v2vov9FMuX5bwXZfYpl2Z31Lm0OYpsUs+99F/pdly75bwXZfYpl2Z31Mm0OYpkXle99FxTLl+MjeC7L7FMsKW+c9O5il+C+hz+ltly/LeC7LimXZnL9WhLpHJozl/gc3guXYpl3y3guy+y5ZifOenbaWvx5M/kx/7if/xAAnEQEBAQACAgIBBAEFAAAAAAARAAEQIAJQEjBAAwQhMRNRYHCAkP/aAAgBAREBPwH/AIfzxbfafH6s06fH2L03D6vl7Xdep7Xc/wBjb5Zl/kv8l88+h9lul5ebbszN47Zw3yng9l5+bvG7PGWWdTrmet/V8jxvlb5POWWWc5ntP3O/12y8cs4zO7hxluYegz6/3P8AeTPGWeNnh032m7fuP5znP09s/TL5Zn9X87eOcZ67O2+XG43+K+OZfP8A0v52zLM58c9luluvDG7eXh/Fvht8bPGzOcz2f93xvjZ4c74t8L48Fnj7f5e0IiI6bEREcEREfQREeiIiI5IiIs4IiI67EREREegIiI5IiI5IiI6bERERERH5+5ERHJERHJERHUiIiIiI/P2IiIiIiOhERHQiIiIiIiPzyIiIiIjoRER0IiOhERH0b+ORERERHUiIjoREckREfTv5BERERHUiIjoRERbEREfTv5GxEREWdSIiOhERZwRER6IiIiOxERHQiI5IiPRkRER2IiI6ERFnBHpdiIjuRER0IiLPUkRHciIjoREWepIiO5ERHBwREdD05H0EREcPBER28dLy19IWZ9BERHQiI6HqM+giIjoRERy/9tH/AMEP/8QAQBAAAQMCAwUECAYBBAEEAwAAAQACEQMhEjFBIjJAUWEgMEJxBBATUFKBkbEjM2JyodFgFIKiwZI0Q2NzgJDx/9oACAEAAAY/Av8A8r9pwHzV69If7gv/AFDPqvzx9F+f/wASvzv+JX5//Er88fQr/wBQxW9Ipf8AkrVGn5/5ZLnAeavXafK62GPd/C2KDR5lWc1vk1X9If8AIwtqo8+Z7zZc4eRVvSKn1X5gd5hbdJh8rLbpPb5XX5uH9wWw9rvI/wCQy9waOpVnl5/SF+FRA/cV+cW/tstpxPnwTqkiG9qy2a7vndfiU2v8rLbxUz1X4dRrvI/41NR7W+ZUUmuqH6BbJFMfpUvcXHqeBAi/fyDCtVxDk66itSI6tX4dVpPLX/FJJgKGn2jv0qGRTHRS4knr2AwZlEcvUb9x14KCIPatUxN5OuorNNM88wsVN4cOn+H4qjw0dVHo7J/U5fi1CenuLqpClxk9xipvLT0UV24xzGa/DeJ5a/4XiqPAWH0dsD4isVRxcevA4ot30DgZBgqKn4reua2HbXwnP/B8VRwaOqw+jD/cVie4uPXgwydkadmD3Mjg5Cw1fxGfyppPnpr/AIIWUfxH89AsVV5PD2EdxJHBiO0HMcWkahBnpIn9YQcxwc08v8Al7r6BAP8Aw6bhIaNeGGH3NipOjpog12xU5c/fxp+jbTvi0Rc9xc46lXJMd6LcbnwgZX22c9Qg+m4OaffRfUdAWFuxS5c/cNgVun6evrxs0zbVuhWyYfq33xe9TRqx1HeQ5cfMYR1W1LlZgHy7G6pCnDHe5hb4UzPcW7QcwkOGoQp19mpz0PvY06UOq/ZFzyS46902oW7ByKf7VxFtmOfBwweZU7zuZ4TL1/ZYNeAFH0g7Oj1I95mj6OdrV3LvBTLjgGQ4PlTGZQa0QBwWS3mqz0CHHPL123vt3IvPcinUvS+yDmmQfeJoejn9zuPDBl4jyQYwQ0cBcqVswFdxVlidmpOfqt6hCseBwuvROY5IPYZafd59HoH9zgsUW48Dxm7uEhoXxP8AsuZV+8/V3eF16RzHJB7DLT7tPo9A38TvV7KBHBhtV+BvNODTInPusZ3ad/nwku2WqGWH8rkFbicD70j/AAg5pkH3X7GkfxDmeXuEHV+1wWyPmp3nc9F/3wzsQnt+xqn8M5Hl7qt+Y7dCLnGSfcLWjQRwEASVtmegUBc++AJAnUogH1uLnX9Ugd2PRqpv4T7oNR+iNR+Z7oNmFhmeGpD9Q4DbPyChogdFz4Z7MIOLu5Gawu/Nbn19zScgrflt3fcVL9w766sufYuPcDajMwm1Ga+5f9NTP7+9mAOGY7k4d3yHqt2mnkViiODiPVHeQ78t+fRT7jL/ABGzQi5xkn3Ix3Mdu11tGFbgzhUd9KmI7n2DztNy8vcUokflts3tyWBx6qTHGbefJFuWE9jNbAW06fJWt6r8HsmO5spc0jv21GZtTardfcPsm7z8/LhXGLDvpK/D+vqDtDYrNWC2jhC5+aj3BigEra7Ud17Fx2H5efuBz3GA0SnVHa5cKe9xP/8A6uTeXY/EBVreXux0ja07iQmu8Qs7jx6M03N3e4ZOSxEeQUqzCtohvmrkv/hbIDfJTl58ZbtNwb2vCYSdipY8c57smiU+q7xHuiIvwvX1CNDMLcK3Whb30Uj6rOVa3qkLr7pD6j8Mq3dtcd4WdxraAN35+XcbR4cDxO/js5/RWCv769md2p9+NqVNMh5ccCVcrfeVkT5lWgeXYuCPd+XdhwzCZVGo4t8bztkcHB4Nr4mCm7AbHu81PaNmYw95U9HP7hxbaIyYL+fAbjvotx30Uhjvotxx+S3HfRbjvotx30W476Lcd9FuO+i3HfTt2aT8luO+i3HfRbjvotx30W476Lcd9FuO+i3HfRbjvotx309dmOPyW476Lcd9FuO+i3HfRbjvotx30W476Lcd9Fdjh8u+2GEppqvaxp+aLqjnkfRGKUv+ap4aDOuyo9jTiPh1TR7IDnEqz3saRbVY2lrhyyK22lvnwlOppMHy4ok5BPqnxGe/kZqnU1cMgsU2WIGysZUSsM3UFYiRCxE2VtEcJmFUjJ212qVEZgLDN0ATcqXGFiJsraKxlRKwzdXT6oOmz5+uiAcmBRKAm5V1imyxaKxlQCsM3VZuuHvPwxbVxQFQ+1qdclh/gBYibLEckei2TKiUGzcq+axSIW2AWdUT6M7A74XZLA8QeDpu1Ag8S6fFsrC2kB17Md26m82iQnF2RJhDoLqo0akwqTBvA3Tf5Ty7Iiyh2aYRcNIlFw3cMJ4HyVF3iacJ7LW8rqk0ZjPoh5JnOUeuSpu0BunvG7CqAHM2TKY3wUzpmi51gRZUvR/h2j62DUtC9n45yTOYKDzuluacXZEmEOguqjW5kmFSYN4G/RN+cr0mfE23dBrQSToFPpG0dG6IhsARZM/lPLtRZQ7NMIyaRKc4buGE8DU2TafjlM6ZrE7ItRxaymxpErE3INVRj2gg5Lmzn24aECXC/dVaP+4cTSpcto+q6t28Xrt2GVR4Sg+dk5K2isZUSsM3UFYpssRNlbRGDMKrTm8W8+zVrHXZCgFYZuoJWImykmytorGVErDN0S45CU+q7Nxn10QDkwKJ6IAm5UuMKSrHJWMqAVhm6rN1w9yGMEkrECHVNXKAUQDkolAE5q6xTZHorGVE9EGzcqDmg6bFF02GfqgHyRpmDOixUr0+Xw9qxVzPrBcJA0TnNYGg6dqkdDs8TVPI4eCY0/8Asuv5J7/DCqNGpMKkwbwN03pmnF2RFlDs0wjJpEouG7hhPjVCl45yVWnoDby7HsvFCpNGYz6IeSqYtclhOcKm7QG6c/wwqgGpsmU/GCmdM0WD/wB37dhg5tH2XsvHKZzBXnkqb/CCqj/CqjRmSYVJg3gb9E35yvSZ8TbdxAzKxG7zvH/pVGjO6ptGYzTo1VSmd8lMBzkKnU8MZov8PtJTnjdwwngamybS8cpnTNYnZFqpvdlJVRwykIlnwQqLRm3Pom+Sqipk8fVN2bOyPAAjMJj/AIhPDucdBKLjr29lpKgiD3TZ3X7JRPJbJlRKiVBQM55QsU2WIGygLDN0yoNRB9dNp3QZKkGUQDMKJQBNyrrFNlimygKJWGbp58LdkdiiAcmBRPRATcq6xTZYpsoCIBmFEqsCblvaBB9X+rq/7FimytmjBmFEqJUFYibKdFiBsoCwzdQVcq6lSDZQFEoAm5RpP1y80WnMcBT/AE7PD1jzEdxhBt6p7r2x+EB3mqjRqTCpMG8DdVGHeJsjj1aFSc6wuqjjukotbmqWHw5r5Qqs7wdiHrq13ZboTh1T41T6fjlMnMEJrzuxmnudulyLRmm4NAUymN8FYm7+XZYObR9l7LxymcwVjO6WpxdkSYUC5CaW3ACdGqqU/ESnDxR22sNm6+SgiBoEIvESsTcg1VQ3UWVJg3gb9FUpneJTsWoCh2anRFozhU8Oma+UKq05nLqmtO9ZU3+EKo/wlPaM7qi0ZjPojS8cpnMFNed2M1/qgLF0H/ru77RRgR2K1PkZ4djPid3UdgB+SOHL1XyVsvU+i42dtBQEQDcKJVyrrFNliBsoCwzdOpuyIgpzDm0x6mN1G95qWmUQDMLDN1BQ65QsU2WKbKAsIN02iMqefn2aDdcAWGbqCh15LFNlimygZogG4USqwJuW9t1Z28+w8linZWKbL+1ZQoQBNypcYWI5I9Oa2TKhBs3K69FimyxTZSDZQPl1WGbqCpJsnsdk4KDmOxb1kDPuHN+JvD0WdCeEDxoqb6d24U6NQqjDvE2TAd6yZU8KqPO6Si1u8qWHw5r5R81Vac3ZdV+9oKptO7N/JVH+BOA5ynRqh5Kpi8WSpl9hhhPc7dLkWtzTMOguqlQ5Bqc92bjPZ9FDfC26+UKqHeLLqmF9tiE4uyJMKBchAtyAunRqqlPxk2Tm+KO3TDrD2Y+qOLWYQi8RKJZfYhNY3eAVJg3mm/RVKZ3iUwHOQj1FkwjJpEpzxu4YTwNTZNpeOVT6ZrE7ItRxayh0F09ozuqLRm3Pom+SqYtckGuzhU3jIG6qYd1212LerOFIX/fqxRbs0epjhwPhYOFNEnaZl5KJWGbqCsU2WI5I9OagLDN0Gzcqm/xNP8Kr6Q7IbIWKbL+1AUSgCblXWKbLFNlATfR2m7ru7VIDRoUT0QE3KusU2WLRWKhYZuqzdcPapM5uCusU2WLRWRAMwiAbhRKEnNXWKbLDSb7U88gvyqaitTLOoupDpHMK5UkwsU2VkQDMKJQBNypcYUlUnjlhPbn5JktyzPNSGwrdmi7k8cPV6QP44Vr/AAu2SqTBvA3TemacXZEWUOzTCPCRKeWZYIVLD4c18oTOmaqNOT2W800PF3XQjSESz4IVJozGfRPp+OUycwQmvO7Ce45EotGcJhbkBdVKgym3l6pjsMHNo+y9l45TOYKDzulqcXZEmEOguqjRmSYVJg3gb9E3+V6TPibbtUichdYnZFqOLWYQjSJWJuQaqkawndVUpneJTAc5CY/wwjTbb2zv47FWgcnCR5prTvWROibGkSsTcgE+NckaXjlM5go9clTcMgboVBlijuj2QVPDV/3cKKcZJt9sWcoVzmrrFNliBsoChYZuuvRYpsVPJSDZR9OqwzdQsRNlJyR6Zp+A7TtgevDp2KQByaJUfJBs3Kvn0WKbLFNlGvVEAzChVgTct7X+0rr0WKbLFNl16owZhEAzChAE3KurZBoHYYTlBVyrqeSkGyIBmFH8oAm5V1imypkZe0/6Peym4c9fVTP6Rw1f954Y0zlUFvNVGHeJsmA52TKnhVR53SUWjNUsPhzQpeOUzobrEd0tzVN5yxFVH+Eqo0Z3VJozGfRDyVTF4slhOcKm4ZA3Tn+GEWt3G9to5tH2XsvHKZzBQed0tzTi7IkwoGYTS3IBOjVVKfiJsnN8UdqT8KxO3S1HFrMIReIlYm5BqqRrCd1VSn4ibJgOchMf4YVQ8+w+s8GXNhgjNNad6yp1PCFUf4SiOqfGuSNLxymcwU153YzT3HImVSbrj/vvdFAzR2Z6qj+wfbhvSP8A7Hffsy447ZK3ANe3NpkJjmneEwrlXWKbLEDZQFhm6grz5LFNlimyjVEA5KJQBNyrrFNk+tmALIk5nt0gDk0SsM3UFSTZSUemakGVErDN1Wbrh7TurP6W0YV1MqQbKAiAZhQrlX1T45BBjYk81BqMH1W272rxpogyb8lGvRYpssU2XXqiAZhR8kATcrqsU2VADIye+ltkLnyVE/oH24auf/kP34f2TvBJCHOUyp4VUed0lFozVLD4c18oVVpzdkml/wAEI4tZhCNIQc3INT41T6fjlM5ghNed2IT3HIlUvRx+53cMHNo+y+UKqD4skGnehU3+EFVH+FVGjMkwqTBvA36JvSZXpM+Jtu1J+FdVTqeFVH+Eqo0Z3VNozGad16KpT8RNkycwQmP8MKoVTA5qnHhzXyhM6ZrE7ItRxayhHhiVibkAnxrkjS8cpnMFNed2M09xyJlMZ8DY4Ch/9bftw1cfrPAuxHy7TKmmR8l/SxTZYjkj05o4TMKFhm6jXosU2WLRSDZR9Fhm6AJuVLjCxuMBPqnxHuKQGjQo+UoNm5XXosU2WLRSCoWGbqs3XD2ndWf0o16LFNli0UaowZhEA5LDN1GqxE2T/IfZUf3IwZhR8kGzcqNeixTZY5suvVEAzCj5KDKGs5Qsc7KqVfiM+sFzcQ5IkCO8pD9A4at59qOCl+YGFQ4XTCPCRKLxu4YT41yQpeOUzobrEciEZ1mEOguqjRndUmjNufRDyTOco9ckxoN3mO5Z1aF7LxymcwUHndLYlOLtSUOguqjRmSYVJg3gb9E3+V6TPibbtSfhWJ2RajiGcwhGkLE3INVSNYTuqZ0zTy7UWUOzKd5D7Kj5p8amybS8cpnTNYjkWo4tZTY8MSsTcgE/rkjSvjlVMWuSpl2WGFGRqPMDpwLRyHDO6gcRgdu1PusU2WI5I9OaOEzChYZuVF56LFNli0Ug2Uc8uqwzdQsRNkY3WbI7mkAcmhR8kGzcraMKSj0zUtKjnksM3VZuuHtO6s/pRqsU2U6KQbKBKIBmFH8oAm5V08jkFR/ctkyo/lBs3Ki89EHTnki7lmuXmov06rBN1F/ksTnABF/gFm+XAMHM8PTdzZ2rmOCDsiLhNd8QTCPCRKLxu4YT41yQpXxSmysZ3S1HFrMIdBdVGjO6pNGbc+iHkqmLxZI4t6IHn3TR+kL2XilM6FeeSpv8IKqP8KqNGZlUmDeab9E3pnZekz4m27U/pWN2RC2hE6IdBdVGjO6Y0ZjNO69E+nfETZMGshMqeGFUPNUfNPA1Nk2l45TOmaxHItVNxFpKqPAtIRLMsMKk0C7c+ib5clUxeLJD0Rmm+f8ArvBULdk5Hs0B+scPRfyJCy4cWyT6DvNqxTZYhkoWGbqL9VJKup5KQiAclCAJuUygPDc91RA0YFHylATcrr0WKbLFNlF56ogHJQqoJuW9p3Vn9KLz0WKbLFoo16owclHPJQovPRYpsn+Q+yonqov81hBuovbNXKuieSkGyjnl1UfKUaFAy/V3LtnE6HadoMLjhGQ7LD8IJ4dx+Eg8TTq8jdPf4XGyLdVTA8Oa+UKq05uyQad6FTf4Qqj/AAlOHVPjVPp+MlNLvDcp9R2bjPc3TRzaF7K+OUzoUHndLYTi7UmFAzCaW5AJ3VVKd8RNk5usdqT8KxHItRxayhGkSsTcg1VQNRZUmQcTTdVKcHETZOxTcBQ7NHyH2VMBU8PhzXyjJVWmZdkg071lTqeFVH+Ep7RndUsbsOHOV7Glss1Op9dvVCAgeraMd3WqchHD1Wc2nuZ04GHG9OxWKbKL/wBrCDdRfr0Ukq6nlnKlpsiAZhYZuhQB2n5+Xd0G3nAFhBuov16IazyWKbLFNlFweqIBmFH8qqCblvad1Z/Si5PRYpssWi5eai6i/Q81F/NAE3KlxT/IfZUf3I4TMKL+eiDZuVFyeixOqNA6lWcXnk0KKLBTHPMrFUcXO5ntR6j3jn/E7iKtPk7iYduVLFFgzVLD4c18oVVpzdl1Qad6FTqeEKo/wlOHWU6NUPLkqjhu5Du/RQ3wtuvlGSqg+LLqmF/wQnFwzKgZhBzcgE7qqlO+Imyc3xR2pPwrG7dLUcWsoRpCJZlghNYMwLqkyDiab9FUpwcRNkwaghHqLI/tH2Qc0w4aq1d11h9s6FJrv+ql1Z58z6rdyO9os/TxGPR7Z9cd2/FSa/EIv3chNqTeNpRdYZug2blReeixTZY5suXmovfLqqmGcW6PPvKQGjQo+UoNJuVGvILFNli0UgqOeSwzdVm64e07qz+lF56LHNli0UXnqiAckQDMKL+aAJuV5p5HIduEdFing6dP4ncSyp8B4qrR5tkKlE7Oa+UJnQ3WM7pajOsoRpCJb8EKk0Ay3PovYaU/v3jBzaPsvZQccpnQoPO6WwnE2klDoLqo0ZmVSYJxA3Temdl6TPiZbtT+lYzkWo4tZQjSFibkGp8ap3Xon074ibJg1BCZU8MKoefqvxRqaMHE1KfxBRxLKo8JQib3HVRflOiDZuouTyCDueSnKM5Ug2TnmYAnzTnuzcZPeUgNGhRflOiDZuVqTyCxTZY9FFweqIByUX81VBNy3tO6s/pRcnosc2WLRRcHqiAckQDktfNAE3Kvqnkch6r8VjOdQzxVQaO2hwjfaCMQkdplPWl9kKUHHKZ0zWI7pamPIMYiqj/CVUaMzKpejjezd3rOrR9l7KDjlM6FYzulsJxcMyVAzCa5uQCd1VSnfETZPbrHan9KxnItRxDOUI0hYhkGp8awndeiqU4OImyYNQQmVPDCqHn3sDVbe6jhy7xrBmTCZTGTRHFMrDNhg9xEX7wYnExl2mzuv2SovylBs3UXJ5BY5ssWixA2T6mmnl3tIDRolRflKDZuVFyeQWKbLFopBUXvl1WGbqs3XD2ndWf0ouT0WObLFoouDyKOEzCIBmFgnaUXJ6LETZPPQfbv5LVI7vGcqd+LfTOThCcx2bTHFU2jf1TOmdljO6Wo4tZQ6C6qNG9UMDvmDm0fZexg45TOhQed0thOLhmUOguqjRmSVTYJxNN+ib0zsvSZ8Tbesxp65PwrG7dLUcWsoRpCxNyAT41TuvRM6dE4umDkodmj+0eqNexsmfUcRjgwSNqptcYKw3an34p1Fxs+480GzcqLk9FjmyxaLC07FO3z76kBo0KL8pQbNytoqSj0zlSCovfJYZuqzdcPad1Z/Si5PRY5ssWikGygT9EQDktbaoAm59T/ACCxxbtiB6miuYYnCiZZp3UxbsspaE38lA4x7PELt4pjxmFSe3LNYzulqMjOUah8Lf5RJzPfM6tH2XsoOOUzoV5qm/QFPf4VUbzJVJkGWm6b06L0mfE23an9KxnItRkZyh0CqNGZlMbBkZp2d+iqU4OImyYNQQmP8KqFYJt6sWnqxacB7PTsu9IcLus3y44uA2Kl+JCNF07H2Uk5q6ZQb+53f0gNGha+eiDZuVFyeQWObLHoouD1RAOSi/mqoJuW9p3Vn9KLk9FimyxaKLg8ijByUXvkea181qfJYibJ/kPsrerDp6o0WKLcGyk3NxTWNyaI45zRvi7e468CEHaHZKDTvQmVfA3NPqnxHv2ftC9lBxpnQoPO6WwnFwzKwjMIObkAndeiqU4OImye3WO1PJqxO3SEcWZQjSFiGQEKqBqLKkyDLTdPpwcRNkcU3AWE5o+Q+yt2Q3ECHCbevFO12MIREZd2fSXC7rN9we1aNip9+Ib5epjnHaGyVgG9Ut8u3buW02tpw0RcFblL6H+1uUvof7W5S+h/tblH6H+1uUfof7W5R+h/tblH6H+1uUfof7TqTmUodyB7RqUw0kiNpblL6H+1uUvof7W5R+h/tblL6H+1uUfof7W5R+h/tblH6H+1uUfof7W5R+h/tGq8AE8u2A8wEQwyOzZZ902kNc/JBjRAFvcDqR1yTmOEObnw48vU+lo/LzRjdZsj3ltmyOHJbWSt3ntXD8Sp/A9xf6lgy3uGhD1BzTBGXum/ZAJhEAz6rppa6Tr3+Jw/DZc9fcZabgot8Bu3vDOfYyCyC3Qt0LdC3R6t0LdC3Qt0LJZe+tcfqbTYJc5NpN+fX3IWHe8JRY4Q4Z9kt58APL3kDz9c977eoPxHZdB7m9vTG23PqOFHl/gPtqg/Db/J90e3pj8N2Y5cDf1jy7n2nhmPdGd+/DBZo3imsYIa33QWuEgq16bt09zCjtX9Y8u5j3LbgRTpi5Qps+Z5+6jTqCQVgdloefBD3xtdoMYJcVzqHePuw03/ACPJGnUHkefdAnXvT73DWiXHILE+9Y59Pd2B/wAjyRp1B5Hn3IBOXDNxzh1hHDlp3GfuQNaJccgsb71j/HvDBUHkeSwPFtDz46UT7kjthjBLisbtqsdeXvI06gkK+1TOTv8ACAym2SviqHN3vQse0OadEalKXUvt3h9oYVuMbhnF4uNhghurlgpjzPP3uavowvqxQRBHuHH3BkcUKlWW0v5KDGNDWj3zO7U+JYajfI8+J69uOBJcUWjvgxjS5x0CFT0iHP8Ah0HvwsqNDmlF9DbZy1HuHMHy7/ZMKT3sxhp/EVFNt9Xc/f8AiGxU5hfiNt8Qy904mmDwOCm0uKD/AEjbd8Oigf4DhcAQi/0YwfhKw1GFp68Yx727L8uCjszHrgCSg6vsN5arDSYGj/BcNRgcFi9HMj4SsL2lp68UGOeS0ZDhhKAbEqymp+Gz+VsN2viOf+E4ajA5YvR3/wC1yw1GFp68eZE9/DQSeimsfZt/lbDNr4jn/huF7Q4dVNF3szy0W1TlvNt/dX4dMnqp9If/ALWqKdMD/EtumJ5iymhUno5fiUnDrpxJHpDi1sI4TI7qKbHO8gpqkUx9SpLcbublAEf4vtUgDzbZfg1fk5XpYh+m6hwIPXjdii7zNl+LUDegurtxn9ShrQB0/wAdh7Gu8wtzB+0r8Ov/AOQVmtf5FbVF4+XCbFJ7vIL8vD5lfiVgPILaxP8AMr8Ok1vy/wAm22Nd5hXoN+VlbG3yK2azh5hbNcH/AGq1SmV4Pqvyx/5L8n/kF+R/yC/J/wCQX5Y/8gsmfVXdSHzV6zfotquT5BXNR3zX5IPmVsUmDyH/AOyX/8QALRABAAICAQIFAwUBAQEBAQAAAQARITFBUWEQIDBxgUCRoVCxwdHw4WDxgJD/2gAIAQAAAT8h/wD1f+Rek/MZLYfDaIf3v6iX+P7T/P8Arn+n9cF/wfiaD5Gp/CDPxFFl/wDq6UHqqlzcHH9U25+wI9xHfZ/qI95rz/hqfkVX1PyyhMdU7tgtJO3Kz5MwofOD+k63dEIfft0/+h7qMomH6Cu/MTZ3iz8E2oOghq2+qv1a8m0WnUClywU+VC0j1JX4pwqfmUgV1ySpB2iz8S4f+a8qfYW3UCFsdEjP3nePln0BGgqdvkIKqiv0bEEckpBAiqu6Sz7Qw94K+z/yjQQcstFFxp95dp93+8cvXKvyIsBaLmYRtVngKKFEfOFyvZ9CqALWOFBsfKKNjTK8QpqTpygC6jq//H+5FELdx8H2lqD+B9vO3i1/UKiiGJKTTFrF2vodxDqpXH9ijNt1cD4/8XXU93LLr7qftG6fyvoBbAqY9MSn1a0WxlTv6AEgNJKL/acwUBPY/wDhz0p5UvKp0/2I5eeV9E6YgG5Dojl8bFE5geW0SvG9FMZK7fokQiJySpHvOnzKYFy8D4/8GoFWglUTR/hmW6PBwex9JXgSv4ngNRFa35FTcCgj2jEQo9ZMCJXgRMprr5tVQkpmAJ0P3JqLAr/wGxrp2xETYJp3fpVLzFWLfP1TuzcVtvp2Ijl7TDLr3Hsf11QKtBMWNDxe3WbIgJDTGKLbrz1fmOAAm3r9Ge/pIa5dPoxps3Mq9J/pc0oAT9aHOf59o239A593pIrItv0okubBex4WdgTwb/ZFKSvRW1GvWTQvy7NeyGqlt2frGcLtH8xla+x6SvpaBd//AFmyr3wT8XcJNHhH0m6HxLjnp0zJvRQEHfiaAstyHuxexlZD0FzbzZqqELBHB+rHviHSXqpavRFsVOfKRfK+C/o3WebNEFKdm/afDKnHi1sqg8EGX/QG4isSFc+BkhLXHulKG657fQZS9G494AII6T9T2v0P9kVSra8+kqYp8t9CPoGpb9K5ZR/zIEfjECSokbaj1ShM4PJHU+DYCvAT4ZuWmyD8zbD7SikUFs3EBFaVnoQlo9XEOc+c2hC0LF49FU3j6yDc1ic/qNmt0P7H1+Fs56KUbzQSvIQRHwnwCGCHwzvENLjVcxwtX/M4D2TMUyPdiAbMo1yKDllvxx0j2bxyupjS5e3l8LORzFDJ5iLY+lnuz+wQdJbE/T7eL1+2JzXugr6IFlV6QKgFrCZDe9+nxDwqNPIIh8hz8RwLx4ky2LB+OTpCNrs5/qAdT0/uPv8AB09LaFspy32m3pXwX/2CDpLYn6b7GRcdiOmBfvEdv0VxB3FZDQdXpYVv/gf38Q8FxYx8R+IUEEEd+DKhl/fdvtGpv3ksMsFcYH5fVv1FsFeTr6woALE/S7zG/Y/3FVty/SlY29K1zNb+JbxYxjHHAlncEHjbQTNijngTjnWae3WKrfynSy9WKra2+nUE6PGvIQctJibeZgzHNz/qCATT+k6bfiO8eoq1efqLMKz19AKA2w9aIfEPC/BixQ+JfaJB4X4cpYV0iZu58XzNYKODRLXdvxE2fFA5I+iR1VcBBVDTVnMcwlUQ6IlsVMQ3RLvhfocM27nt+jinWI52NDq9Ig98HQ6eli1bllnVTk+m72fvR+RYp0ZbaJBBFFAJaoGAM0QajdCBc26E3Tjoa+kWLM7O0vEtn0kJKGRh39D/ANP0Zm1BaxVd1jr39NzY1LircTP0jFSyxeC4iKdSusqJKRxzduZrCibDg4GvacpboTHLR0PALQOZYWD38bH0FS31HLp/udImWNjo/otBuOx+3pkqLCLum0RW/RhbRNpfXI/MOoNJllSpUceA5ztvbwaTdl7xYp3mOlcdIrfGxc0M0JhVR3Ag2PnWq/QFNXvKI6xrKPt4hcXY9BibNXc6wADY/oeDz7wYtxdq8+a3zJDUfl9IMfDt5r4A8LjBi1omGzTgz05jrs9XLNJHq9A22V4CpJRB4kRFMFxnXEtqvRGouzfgVKblZS6msPZ4UXB5+H3m8/oRCJoOY6DgP586jiDhNz3Yr1B1E9bjZXtexuA2CwHbyJusu0xXyyxt10/tAwJ7N/efHCkU8h6x87ihp8F8mRS0d279BHQV7QCFdWR9ZsqayNLg5Oj0/QVN62jj0F+pVEU0cnqosX3gDa8Srfd/iIlW3rLuf2mCOXtOGRd+6f1Hjr64H2nWh0MH2n/Cm0/EUFGPSBc8RhDbyg5iehjlRWYEWKNBHflShuWAyvQ/r8v0BnTIY3mFh0PpM5K1b6cAup/3Sw1HBzGKqjRjKg1otehMQPWrasmGq/45m5+ZmH8wbOf2gHn71W/WPFBXkq5bwuHFdQUp5RTUu2FC6D50BKTIwHXjO/1/Z6TpwelXqX6SOWdICdN3wwiop08NG2f3TLJfZK1Fdn8wmX3RdhybmqM9Yy+eLQr9ekzSidkr5K3mAt6Rt6FpVS/Ai7L89LW+KeH6586Ymb6LK6HB6QG5uY/R7wTkZ/AljmZEjVZzFrP3yJ/IbnUvwiuD5f3D5S7R/oNxzmA1phDp0Q7vC+W2rflPTPHLvINS/oYCOIgXVRCKz0jGSXsv78fW9TL9j0LbBK3jX02HtVxVYCqlPEUbaiheQ6uD8zlXh6A7uWIrSvfyVMkDvMA8xju+At8teuvrWJZRWXPTyfw/w+sWi3UqR3+F9cRjBBS0SJSPBN/1lUVW1t8FVBMQ53KjjzPnqV+gKYbdfTUGksZ31Ls8/V3JV+V/55RIpx6rKjcqBT9HgorqYR+4bZt6FSpUr9CIwwNHN9RYzr/r9Xcza9z/AJ5b9ILaIhv7+YLx9bwvB83liVe6CNZ/fK2n7yIbP5zBeP3zBePreCaf5wTT/OIiiUnmKv260zVn6XiWz+UQLa/fMF4/fOB9/NYX5TNWfpaJ4fvI7B/OIZT+cqsPhS5DpGes3uiWz+UQ2fzmC8fW8sLK/fBtP8pc0X+6VtP3EKsjuj1mK72GInqimZBjs4dE6ym8R2qBiqZ/ul/Rmu5LWJe4cQ+xhaXOg6FCnPdnon08xUPkt/VGqoLWbFH9chJQbGNN5QXnmCYPfC2RzcHUgNWQCNsDWGYNd+IzY3ugvEptdcwwdcvbZ2EpJgByVOV9T53+b8yMexwvNfM4P2wkIlBKwB3mPCAFXcOKlvVRpqUHktDWGJCm/EdpN7oLgRF+4tRVVW18AYLc+0+UVfFxGngJVibdAWwfH74MDpdwdSA1iE8h1jDOB9supnoepUBD0ATnIVaPj+5SgoDsj4lOI+esvxUY0o7CVUtaKYagnfVdYv3igHiI+FrcBbPz9l8ty2tkt+POa38kVU30KlPpW238yMfUvLaZhvO/xcdZXjnHyX9OourJ/MeBnrEoi/tI2paPZBuVelarce7Cr0jg2K3WUUlIaEhZsD4TKuLHvHshaYHaEclD75P938hBeWWfx/2pYveacDMW7CkOOZcVALriP0KOEMRs7GQisvhjw1o/ZAs1CytVF5QbadoqlHaMkxkPd1+P38T6VH3xG67bDvuXCmQ44iM1RO64gCkLEZclQJ4WAlpFKlcNxZsKNERpafd5TytDagLWaLGn+V1mJQABRGLBQ6RwJCtX4mi5DQkDNkozNCx6xTpsw7TqNNa1ncc2hTp2l7KqD8wFDVkCfaPKup7QylsFlKZ9KpriPOtRyPfz52OvaXQ3gTbwC4lebYvT9h/j6m8bo/sH8y2EKLIxEUec4CvAmbyOsqJ1OZ0ZRXW4Aq7rxUHUgNYgEZLRjDMGu/EuxmroLltk65hg65Y2zsJVSnFyVCLbpOGa8tItrPy/xCGQ6xucW7Ztwq2i6lWJ1zHpFhbuvFS3qo01KDyWjGGJCi/EopCKi8TdQvZ42cGx2xO5r4YuA14CVgCX5oiB7i8VB1IDUJ5DrG5iU9sDYz08prycVBEu0WOn2O0y5PGNwm67VEK0aWsEYBFUEr7ZdAWsy9fDMMadhKqW9VGmoJ3mVYv3igDiI+I2zQXEchormC4DkcS0BRMolQIjPI37RPDTbzZBe5cuz7u0ryrWh7TNMu8fC77LeqKUbB481uILb5+p6JVPjHpWqrx6FtVaPc0zoKi63GVyjDiBcqdK1W4x6y0ji+K1blYCkNCQsmQw6TI2LHvHG9isdpd1HRh3mMaX8mT8eSvPMp3ZaveacCId1SHHM0iqabxKga1FQhMn0gG4y+seXSjh2g0V0LK1URtNtO02NAL7N/x5MuZp4il8tVV33Lx5DjiNfL0IqhvIxOREC63EdyAgWilSuG4s2FGiLhafd5TxNmqUBH1Q8xqEI8sCZAU8NTNmgGOYFwsUVu4ezFHHEMx3HZKWi4NeOszsGxrcUXkw7RcyuZWsy/2lOnaWGqoNd4UghbWr1Ck1va3W4rDYJPd4goW4TXAmWKpDjmIzsmEulaiJcK/4PoF2IshE6H7vpx0pl8R98avn/CzETg2elfG//J/MEDXK8VDVADVwmVnA1hiNrGFrBGbFd0F4mao7i5WgptcVPnwy3Deyyr9oMkpLSbiPnT/j+PE/2aMzMeS6uADW1RK9bpawPvCSiUEq8rdAWsps97Kb6ty9DeyyrlB7NDWF95g134lKP7Cf9vyW8G52xObbyrF9LiNPESuLW6Atl+P3z29u4zkvdJUIutqlh6NLWD5h4DAPNsgX4Y0F4twcsTvpW7jqWBwlMQB8lQ2FnTWGK2sNLWCXobq6C8Snk65u2trZ8/mX4bqyyrgiQktIlRs3RqAiZepfHvB3iEODDeKi291QCjnVm/aJXrdXWL94SQSgm43jLTqh70tPpBcE8o7yuvj6fOlNH5x5yDmlrxFdrbODx5C0SvL/AGqQ3GVyj2QLlTpWq3Au1ulbuE3AAPWoU2QA9rjpy6WTn6rj5ghbB01iAY0drm4fBLvmvExnVP3f4iwPNrtMwFArEWk3Z0VvO42aXTjiO1mz3RDAKSyc4kyfMR3JPTEHJKFlaqOWqifdJZ5MuZpxfE6qrvdy8ayHHEMLVEfmUApQJ9p2sFkypjbMhFADEdpd2it3LnrD5lwE1jb6cpz0FxrpH7GntAFLqLKLMWnaAUadK4SiDcordwLr6TXSVjMhoqMCcCnE3PVYhm7dw1iAY/a5uJytq4cpXQRw9oPLZtrUY7cVZuiU3w0KgALaOHAi0obUqt53L50VxxC3QyFoUK/lf7t6FNX4V2l8LTpIhUL15L0Ognv/APPp+vn4Q9LkseRUKkVWDjww5NuvgBUFk6m/x+0uQ3V0lYhJXZUQrTC1giAGLolfycAFrK0FNrxK8HrgxG3JZVwRISWkbV4Does2sBfHheegu2KWWY8F1cIEtqnBu2WwbC2i6IarvoLuUwe+FT03csQ3VllWRAFGyWTxX7n/ADyquJgWbxBKwnNRYjZui695lTboC7g+P3z29u5ch5UlYhN3ZUQrRpawQsBgHlPC1SykLabfv+04/wB0TvpW7iCCiZQVKYnOTG4XC501h9olS4aWsHzCAmglcA7y/FRjljsCklrRTDUFzO6GsX7xYBxEfBtXAtnH++CjZLuUvPVAiOdkx7Jwbtl6GwtouiDTi13i/wBUj34/MZypKTyO0LYiphmMaAuuvgKDv4S35Omr/cT6ezhH7D+vWXSWeXYY7nIEFrrMuaAxzBs16lbvUaPB4QDnVL6QnI0siMuA4+YQWwdNYleL8XVDd3Zh0RQUo+R0/tOEdfa3HctWU3UORm9K4jbWhWNxLuqQ45mpVDTeIVWrHsbmAJSWTkImT5iPmNpqIN7facRsrYvLlWQcNYlO1bsc3LhB6HROCW3vcQ1Slj7QeHBZMq67VMtaAYhI3bpW7jTcPlNeGhoLr3MpQVoJ11A7WldIrZS1u8DbNnGsQCzRRXCAQblFbuNpijjiOTfQQM2SjUwydYhzkw7TrlMytZ3LyaU6dpaaqg/MBQ1ZAnXUzNwBYiNtNCAQtwmuBMhaQ45i0tiOG8Qe2IqEovjo/wCxR99/m/IrapiK2OlPcmYnPEppM3tBlSJ1CoFWVoePLcOp9xX0qhMrtOzo/d9DHu9U83N+5/2Gys4GsMwar8S9DdXQXiW2e+W+re5gDXIFVLsN7LKuCMhJaRQDiIDeH8v+1KUQLn7v8ToKt3GUFEzQqCUc6swxK1YaWsD7wgAlBKLK3QFrK2PfKb6ty/DdXkq5aQTB0NH3/bzH0tvfacy3lWL94zRwEpi1ugLYPj98BByLuDrcDUJlc6awzBqvxLKq9A8pOgRn2uIBa3gLnH++J3tVu4glrOEpgAltUJo7KiFLDS1gjAAVQSryt0BaxQDTa4qJVBu35J2l7sM3Tnp9oPv5ewgImXrvKQh3iF+m7j6WszSVABLaohdyq6xfvCaGgleAltqILvtQJSVn+fMq1G0QMAiC2tkYPO9DxASC6y9o+Tuifz9Kh2QKn+gMPpBcfdlye8Ak06Vqox6y0ji8K1blYCkNCQrMiMOkDfHY6sMFsHTWJRj9rm5YWFcO04lS69xCoQGqcswRVzFTkAFbuwS7eacCLSbs6K3ncTOxOOIe9WX0iANPSyc4nI+YbCK1anJDT2oRCxVHwJ1wp4jonVVd9y8eQ44is1QHvcqBSgSZ98CI7kMIAhpUrhEHVDao+Bp93lIeUCvswEaqw1KVFaCR7N1K6QByVFqO4GDEwjQAxzFUG5RW7mhCjjiEL5i61GlUjfb/AH5Gya0f8/1SvAXD2jLFoxiPKOpXSEeRotTpBTSLShtpW87l86K44ndw4QL038JRZqL1vD5yIOO3Ula3zEqur8iZxqdrG4gBp+msHeeNyo4+gVMqftbiu2H5CJ0uMLWCKgY6ELMrdAWsrQU3eKnz4ZbBtyWVftBc7urrF9LiAhfRHwbVwLYicmiuYrDRteKi4SMXAoXOyY9k0Z7ZeFqFtF1K4Raesv1A1FOBKqZ8Vwfn8eBLL0jDwv8ACbsxObd5Vi+lxGHiJXllaBbL8fvnt7dypLNqFQi62qJUuGlrB8w8BgHlJTftfiPg2rgWzj/fE76Vu4+hYOBTAQuSoRdbVFqXDS1g+YAAwBKvK3QFrByL9mbf58h6Usa1iHiZeu8PtbwBtjstG14qZ4rVcBFyVKczusMX7wmvASrLK6AtmG/exE7Qr0DihT1ndkYRadSl414HIvqdJaA4UO8UC4w9czvAn4+mV/78+TctEr0Avz3Af/sD/MIs2qVu4tJXhBKdUvpH1DSyc/1cfMEFsHTWJd0XVVd9y4kHgdpe+qBBQKFHGh1OkOym6iFeSggl28cOBEG6pDjmFkgBpvEqBrUVCyg7hAD6d9YLbLiuvPlPDPWaeI6N1VXe7lwuw44io1QO64hClAn2h18CyDmabZmLAAxHYXfpW7jTcPlNQrigV/cgo1UhlKCtBItnpPaCWSoveM4GDEwDQAxzFcDcpW7i0hRxxGd2F9JRJqifbyVXumg8yugjh7QdhZtrUaduKs3ROoV3XE6QU0l0obaVvO5fOiuOIG5GdkqJp4s4h9ENnx6Dngz2ilGJZRjxCoYGVlDV4BCv7s0zFaf7p9N/tdXkIIys22jdzJpR6A03FvztlRIDputCAELqV/J0BaytMG7xU+fDBiNuSyrgiQktIkRxujUoBVcgFzj/AHzZ6buOosGaSoQJdqiFyw0tYH3hIBKCVeVugLWUwe+WJLLuePzFLtLXq+e/wm7MQSsJzUWI2bouveDzi13l+MOu8AQ+5ioO0g1cLhZ01hnB+2BsW9A8pqFYdofeCLG0PFbaO8djA3eKlNz1S2DnWNwi62qJUuGlrBHwAXRKXK9ALWCrT+CL8FoViHbeWdX4lXfMsUPiY8C0I+K1ZoWzj/fKLaVu4+hYM0KgI1tUQzO8qxfvCamglWNq0BazDfvjm2v2a/v1VnOuZTYc8U6gwSLumJdBV4/h9NWbD+68g1Lxb9OvMWE2RXD/AN/eHD0HXEEtapdajByCWTt/cV3hgtg6axKP4XNwnd2YbxNoBS3eUaKugnXUwBVzFQrg0FqdAAViLSRs6K3ncfLsnHE3pXaosBvSyZfbP+H8+U8euFPEJH9rm4F1HobxKr6MVBabcjELosLrc2KhhAANKlcIo9GiLhafd5TULiBX9yVBySsTcCVtrrGL4qs3URsbAqZAU8NTAuAHdLJG9St3CTYHHE7whdajpNNJ9o26OH2lncWmsQ/qXNy9+S4dpkMVBrvK1NWQV11Hl1wK6Q0lvFqO7TpFp42wK3ncCXRXHEtKuzDUQRp4s4lFcaO6r/XjUr0gvF1xHAZ3BX+DD6a9XB5i1Xx5MCt+baM9SEUvHltJq/ytxym1q8LxLLN9Ms9UY9Y7ApnvIKg+d3V1i/eICF+I+K1cC2bcnXEi2Zdsb3g1cChc7Jh9pdWHphlBKCUACJqCXc7LgdDj0H0tM/ac070Yv3joHERcG1aBbLcfvgQOZdx9aBq4fC501hnBu2BzV6BrymoIHlD7wuK1ZoWzh9+Yne1W7j6LBwlMBC5KhFl2qYNV+JbdtLoLxK8TqjFDTNjNz6KYNmctGsX7xAdER8VqzQucf74hZpu4+hYM0KgAltUSuXDlWL95nQQtouiA5PCF3Fjxcx0Oce3HiHc4CoC66elbZxK65s4g7N+z9NS+x+4ea/Y9MZFvzWOwm9a/5U4AQ0VHmyIw6QsxGStxo4WNO03RaUqu+4Pq8DtNBqNzB9FgTrMv1RhEbWUFQS7cOHAiHqkOOZbGhXHEqHKOE/YbwGf938p5CBfs+0vjdFV3u5fPIccQeIhTm5QhQwEmefAiWchhKANKlcIg6odIuFpt18pC4gV/cgI1VhqDWNBPtFqm3MVA2lRe9x/AwYmCaAGOY1dDpEWiitX4luPmsRjV0/wmFupafUYdpbEaZlazuPPU6doeXxBrvNQqyCusdArgV0hHZdFqYpqukWqVlKrvuVoHEcN4iE0tT0ZbBf3YH/dfoBRxLT4D6a09d+K/j6gkRqr4a/mWWb8yz1RTCx2BSTEjkqC1LurrF+8TEOIjwrLgWzem/MFFsy7mV7qgQL1Ex7Jox2y8LULaLohQI9PWU13/ANz8+U8l9xM9sQ3TvKsXFQOIlqCL0bwd4oDXUxUfWAauFwvUrDODdsDkr1DXlIFjlD7wcVq4C5xG/M5vS7mezqnKBpTcEstqi1LhppgggTQShyV0BazQx/BHTsXGg1iD5nLRTC+8Uo4iNisuBbB5A4NsHuUchklwZRlBWIEG2yY9k1AemXJZC2l0TCYbuOPej8SDi/V7Yp+fp66XB9l/vwMJS4CIV4q6EIONfQWQArVZOt1oq8wrsiMOkzgjJUMXsadpxDSqu+5Y7TnHaXhSgNSqRV0E66mXaqwhM8lGKgEbcOHAin0Q45mZRQ03iAzDG90u23yHl6pNeO01dfSrvdy5N2OOI/v6EIG3KxOYsC63FByIxxBBNClcJknRILja/d5SBY0K/uRylFBqMTkKpHIuAMIjc+BUzEr4amEaAHdFdltSt3GRqjjiEteYutR4BCifaYK6lOMyYdpwrTMrWdy6eSqu0HL4g1GDBdxq9RES2MbqPKEO1Vl4mT1w48CBboh7oigdNLvGpUrn/J/PiFtegFxJhj6kfJ73H2z9PfS/lP8A5LAoy5v0iULUIOPSqGBZQpUZFaagv3JWmDd4qXY98pJbSyyrg6bEtImThwNe8PDB13l05tFcxSGuV4qXxsurlhJ2qJNLhpawPvCACUEuXg/O6/H7+U8qEW2PtOad6MX7xm9ER8G1aBbBcfvnsrdypKUuhWJeGdotS4aWsHzD0GAeUgAeUPvD4rLNC5Xh35idrVbuNosHApgiTzh4L1Ewxalw0tYJelqXQuiW+b6YxBpmQhgM4YFFLKVcQ3CWkSLuAwQ0TL13h48mgDLBY0YN4qZHuqBAvUSj2RPM4bUxfvLlbgn7TvN+ArNXeNT4lfeIXgmIHEhBw2eQajqe0cHlwhf7JX8/TuIf/N/n6i4pmvmHMY/mYbJhdtXFd4JVw4axKf4XNy6V2YbxKhdFYg1bUbxCV8VWbqKA3d1xOhAKxFpI2aK3ncfLcauCbMl7PRrfRK+vTx2l8ehVd7uXzuxxxBuGAa5uVIUMCTh1AsqDcldtTFdADEdgW9K3cqlknjykDjBfuQEvxhqaJWgTrHs1xK6QAsai1zOJm0riKtoKK1UVxZqVu4FGKkhepWCbDRUBJ0/wjbguPtA1zs2KrE7/APeXHAbC0N3K8GcL1UOhaVvEK7dhVnQmzrqMVGcrjsURCNy+6fjxIcriKxpjZl7wyzV95qWB+8Nb9lWZS8ek7QwP3v8Az6f2DXv6PF/QgRTfdOP6+JVvuysKLksr4RTcJadIhWmwX8oWGDrvLpbOANsV2r2FTPBarlqJtUurD0ws5PwH+PKeZOCwLN44ikicpEKsnAv5TkC0Bazh/ezoqt3Ks5FCpaWbRalw00wfMNYYB5SCB5Q+8JisZoWym835id7VbuNJlGUFYlAexShh8bbDHsj9aNNMEygCgmGgjsGn9tHTxzAKYPwFopk+8UvRETEIzQtnxl4n+54cy86iP/hGrdyX5GBNkFX1mVwvrBNl/MNJKXVS/T6yP9jH9/Ud+IPbzXKhNtS1VePMWIK9IAbB83H+7zeuLiu8MFsOOsSj+Fzculex6JUPorFwUFqNtajMnFSm6iAN304nQIFYin0Q90BlYfjPTOwKDhrEqv8A9lwwrfT6JawBt3TKMAMgnWGvUCyoNsV21MV0AMR2JbUrdyq2QePKQuMFf3IT2UgamiVoE6xbtcxXSbkbLVWYC08waxFU0FFcIrhHUrdxIMoOOI7m6CBT/wAiMHzAcS2o8pjYPRDNiaSk2qMW7HcubDXhe3Z5UVjUvhh+IFVZN+F4rxUBefQvzYF93P8AP1GDBS+RjwqC6huG/Eainb5iGgH2yO/SQEpMjMHGp0eYIFFyWVcQmxLSIDoiHlZcC2cL75RZSt3EkyguhWIMHcJiHhW5K0vKStvM/lpn7TnnejF+86aCI+K1aC2C4ffAAci7j60DVw+L6iYZg/Fgc16ZrykKxyh94PKyzQucJ742lqt3HwoM0KZYi5QSy2qLVgNNMEEAYAlTdroBazQx/B5CVrUKu2GTQLuNpfZUBgr0uPp2+ftmD7QKKPqK9M0vs/49a/USzy498XDAcDprE772ubl9Xsw7Q8rhDUyZS6Cuuo4hVzFTZNCtVZZlkQ4cCErZFe6/5XlPPvC6eIv2Qqu93Lpu7HHEG5YBrm4wihgV1mYX2kLYFGJQKi01UU84MOSUFvJUIy7oV/iAluMNTRE0FdYsGrmK6QM01FrmJyqpWJhV0AO6K/E6lbuMi7BxxCSvMXWo8AhRL9oQ0RV+Ny4LMvF2R4/RXhy/lx/f1J9XQ9+IFEUm/qdrtnuczjUbUqnaD8C9G3vFLl4iYhHBbE7inAZYpt0GFRveDVyscoKUV6RKrYnd9RZrTP2nZF6NveOjoiLgiNBbBcPvZylVu5ThsUKuWlnaLVo00wMPZoHkEQYQHkD7wmIRmhbOE98RtarcTQA4FMvRcpaWdosHAaaYJSASglXkugFrNDHJ7QgoLXpiS614Fnq3JfsRg/n6qhCm+5/36O5MQdAbj5XNd7b3a/mZcEUqu+53KXh2hZ/AGpUIUStDGKRxVZup1CEYqZQGgmqx/vbynoVrOniLeyFV3u51xsccQQu2Fc3M4AYCTNOoFlQLwrtqXsugBiXQE7TdyqGSePKQLWhX9yAluMNQZQOArrNXVzFdIAXtS65iuFgxLADQAizCK03cQhag0cR1WcgtajughRL9vTVOdRTpPZMYO+Yasgr5PT0lD6Zc2YTUyR9VXr8AfQCfyPTqgQAas3Xmuqr8zr8wfiXoxfvFLl4h5COC2cJ74KbZl3FAK8zK+bXta9VbLTfZO3L0YvpcdHREfFY0Fs4X3wAHW7j60DVw+O4TEftLA5b0TXlIIHlD7weQjNC2U2HviNrVbuPKAzRTDDqEtbNpibHEx7QtBdEJlvp6zENMyV5N8kHlQbLnSXMK1DkiHSKgo6enhbH93H1ezcwFFMR4BbUFkxjp9PcA64aR3Lyu1fwQ8jhDUzIS6Cuupk11VhHBRuKsO/x5T0dwXTxF+0FV3u5dN3Y44g3vYVzcQgAyCdZml9pLRLAxUoNQacJsHBILegdvAjSTG3MNQhcYK8dyG9lIGpriaCusWPVzFdIBXNVa5maVUrEwS6AEESna2EjKJYL1xNCbjRVyoOj+PBrR6YbU+FIxVKt1OZ0AoaWosL9AxWJb24+sqjgz7PqgpQf8v9qKXoiHlY4Fs4T3wDbMu4WWBT93+7eU9F/LTP2nbl6MX7x0dESxUTOjLRXMULTgFVG1oGrh8dwmGftLA5r0TXiUIrhBA8ofeDysZoXOE98KFtLuI7g5hjY0uDLSztFg4KmmCcIACUg2roCC4vue0TiidkStvgNRt4COpDMXM69AYOrleiFxG9d0fIpXI7eUIgoCg+soQ/eiIjTh+p4gVI5GXuHCQs7gDU28XQV1hWZqpPgfeI1aWvrFVnTxGeyGu93BY27GjiEsBXTEuoFzsR4dsAWbjqLFhZUVBRNNVAPTg3GSDQ2rykWRdCujuS5txhqDKhwFdZmd4BxNlGBZW5hVDsamHYADKK9RWm7iJtQaLxKMvFHGonEq6T7RT7TB7QqzKcwIzKPkSEimr9BUy0qh/QnBGIbB7PJ9RUP4Q8qXYhdL/sKD6O8ANstAbYBuFYEpOh+8fIek3lpn7Syug1htGR0RFSiOC2GsnWzkqrdzFFC6FWSzM7RasBppgnEsB5SGB5Q+8OlEZoXKbT3xG1qtx1QGaKY2bucLihghiHBoNIMEdqm3jcxe8HrGJWGv7IuhuKdMLJwnMrb4QRODmJUsaJvTxtVerxgD2OsEOiA+uA1+7REUSk894a23fr1Kg/GPeY32X/EFG0cS4LyKrR1nWEA6HH49cKaS62t4jbdYa133N4XY44g3rYVzcyQLkK6wutUiyoBxtCpUxEaAEXRs2m7ldgTx5SItaVfuS8uwRrmXoEsorrHBsuQrpFs801WYVoxaVxLCkVFaqWeRWm7hfhFBC9cS1S3Girlm/X+ETt1DLGeviMw6DgVwWxJPSWBdbI+IDawWSdolel3yh6cv6BrE1+3L6QhK8NPA/K7VP8TOeX+z+vnyngjQlyvQRbMMj9/J88eHytOnTp0A0Klsfv4rZXgTTwLKVY/x6Thw0cdOnTp0ClQIcY8eYAcNyiN536TOhIYhhieKO1TF1MmLfo6bVa6cpRadD9A4TWXR4l7YUPoyHhU08J0MifB/y5kOy/t/MfIeGpai36tSpUqVKlSpXoVKleQabjBMrwIIwGVSSXJiAg6gB8ePU1SC/wBj9C5PYE6dfVrzHitCLFaJRGqLtHDMsx/RhbRHdCnygkDzDSA5PAdbS/k6TCLcvyFc+WvGk/IxwfoYo0KSEQd526eYYuseYldeEfC+xKSCQYf42H/0obsIfi3LUv8AEz/6KJ/+kp0ynTPj9DVNx1a2+WmJ4Bj6YmLXcjLaAonHhldXL+iULAz0GK+TQ8rDhUPlvzHjQx9sK/Bj9LQFhfWWBY10+nIodeLDJACK+fSvw44OCfoxxmsT6EIPjr4Vxfphi/ULSl8r6XIDwfpFYZRi5/19ALmpVLlzF4RZflJSal8l8x/R7NfY9fkgXRJRkFB+kE3PSPMwsq/4ejVdU20fby3Bj1uXLilcvzEvsa6R/QzeYA5WfQ3fPxd4FGd8y/Sqvr+3eLBt56b0BqI79H9j9Y9tlba15WutoCVej/439MIH2NrrPbAGh19E2wr6NY+bh7ebfb49GpX6ardtBzMVi5ftP05GeePan7PAHU9BVLSRpH6UK2O5UDnZ7brzm0gAFrP0RW7aDmUXC5f2n6gt9o7Ufdk9D66mrdTDNX5xjb6ylU352psoCY+gz+wfqVlM+5NvIxH79/Vr0hqLfiib/TVbL9j3mJ4X/wAv1TFCBUYB+X6nHArEIfD1BqK7fWJ7m8tfHhX1eEh3aIByeXa/VkBSWMPCt+B9otdgI+kUi/SkUC5S1Hy34CtymPIKvMpeNeQSKN/QVZ6KOlEAfrL2tZgH7zB8cOvqQ3Fe6UZX5uQx9BnFPCo9th62oEEOphm39k1+t8fEGZZ7X/S4iNJT+gXg0Ly9IToj4jTNswwS19Ukeq/gm1Ts3+vrkPy3vKp2Ox+k4Tkq4r+gALPASwZsBp/cAgANB/4FEt7En48K+OkRGfA+qC4t0ysoFq44fpQzxLEQQU+BhSaAjK3p9v6n7igf/Cq++BLD7+fhiE54FfUDTZBZLmbnGjgi/Sr+o+FSlrCroJQfNbfEw76si/8AE053c1AXa/xuewHn15TJJjOvXKPegXKXsbcA2D7j/wAaVLvAuWbuqzFuoXafWCYleZz56wf2Ufeaf9TrPc66y/P/AJK+Re/SxCfafvFWp7L+76gmvmCdYUUDh6+lZe+5KbobCpoXc/EMCBwf+WQFJcslD3E3Pwv8kyadSXYhQr6UZG3mM4JSYLwU/MoU/o2lIr1lf4naAQr/AM7Sme5MwNexOX4v5JeVB/vM+79eoiNJT9G5XuCzpd2iUSX0ulU3/YPxCPkjL/034VBmkf8Ajia9/p5i/wAMME/dqfzCfmlP4gND9pS5fhHuf8dZ/t/fP8f7YLxQRsvef3RH9Rmv7Jgf2ZgOc7/8QTCOqMIMP0SUdP8A+kn/2gAMAwAAARECEQAAEPPPPPPPPPPPPPPPPPPPPPPPPPPPPPPPPPPPPPPPPPPPPPPPPPPPPPPPPPPPPPPPPPPPPPPPPPPPPPPPPPPPPPPPPPPOMMsOtOPPPPPPPPPPPPPPPPPPPPPPPPPPPPPPPPPPPPPPPPPPPPPPPPPPPOP83XDvPPtvKNLbf8vPPPPPPPPPPPPPPPPPPPPPPPPPPPPPPPPPPPPPPPPPPOM/TvftvPPvrnvD/vvtLvF/vPPPPPPPPPPPPPPPPPPPPPPPPPPPPPPPPPPPPPPI3NvPn7vuv/vvvvPNrvnvvPPKc/PPPPPPPPPPPPPPPPPPPPPPPPPPPPPPPPPPM3PPPvPPPvqHnDfOM/MMsst/ssvvOfvPPPPPPPPPPPPPPPPPPPPPPPPPPPPPPPAPvPNvKENvMJQAjABHvvvPDAAs8/PPPMdPPPPPPPPPPPPPPPPPPPPPPPPPPPPL/PPPOjvvOIAgjjHuhNvtssrrlKwwwR5tvHNPPPPPPPPPPPPPPPPPPPPPPPPPPK/PPPKtdOIAxnvvvdRalayrf+H7CFrCA0m/PPO/PPPPPPPPPPPPPPPPPPPPPPPAPvPPPvvIAg3/AH3GQCHBMZD6nyOG70/TwrasHHyxvzzzzzzzzzzzzzzzzzzzzzzGj7zz77gAJ9bGAIJx1Gv9+9339O5PfxjTSQcNrLzz/wA888888888888888888kn8888se4AGd9giO82MNecXwg8GT5AaBxPCkslaTjR8s0888888888888888888Y8888+09AG95EG85jJ2O8JqdcFe/Q5ICAxvC80xDOL18s88888888888888888898872+oBG98Cc87AENSoHxFscYQV1kjI+A1rS4Es+DB08/wDPPPPPPPPPPPPPPPH/ALzy77wAD3xHz3sNvJ98p2YfJQIDhHn3wOsHVtnzxa69Pyzzzzzzzzzzzzzzzzhzzz75igB/kKz3sPqnc9A/arHmsR3EUHX1tGIRZJzz3qOPXxfzzzzzzzzzzzzzDPzzyr7gAb0N73+NGDrkoL6gLW9q+7L70HW9gIPWtTz44EFXzzzzzzzzzzzzzzzx3yr77ygfP0/X7cMO4M7HTHHAc+ZaUgLb1Hy8IxzQjzh4EFHzxvzzzzzzzzzzzzh/6r77wBYGzQhTA55CkuTQWyuCyhgx8oBLsiLLgcRnPz6MM/zynzzzzzzzzzzzzu77z7wgF7oHimm/Wmf1SjigbIwRLC4JIwjzna7CwQHOfRqN5XyzTzzzzzzzzzzyXzyrdSgvuDg/qXh4IAdSB1abbxmVoIIkQgEQabTJsHZ++MEOd7xfzzzzzzzzzzzXzzz7wD2kK9x013NtzVXlcLhVRFDawJZ4ViFLOyP+l1f0oJFv7zfzzzzzzzzzwdTzz77wBa0J8h333RyxOCGGuurxgLRUpcGjTW4z+f7iI7W0Pn1b7fzzzzzzzzzzzz5a77wB+kJ+8GU4T3QjTtY/3qhm3pWpZEwwUX63P4XKdX0N7T7XzTzzzzzzzzzzbx/77wA+kpQvgl2LVlZABKl/+wRKRWIbQAw2DrN+MUbtX0MFfy/rTzzzzzzzzzxNH577wBbqpT0WgM0CwUSIKb85TC5TwYZWERtRQgs6WptGEMFXz4nzzzzzzzzzzy35fb7wBa0JTmrR+FygUcJaH8NRzhD/AKAiMAFNQIW4iatBDKB628X88888888888RjBW+8BS9CQ5O5QS0AqACpB1/0xha6CQEoNF4hQT3ZK+ycqFue8X88888888888vBBXm8oD3JA8rClCUw8CCihNLAxVKiCGF50p41ttK8+xJ4m+888288888888888rdrD2+sl/pC0/PlMFsgCFhBROY1sUKIW5oQRN1tzZ6rA86Xe8+sc8888888888881JBD28AW9Ay9vycJYAA29tBSENduCi4ZwstFN/qydX98qe88+5888888888888819BTS8IC/Yy0/nEBaAGe8tZGYEioEm5Fs6nYR/NMw9Ht+8888X88888888888886lNBDSsAW9DA9oIHoBVw888ztouMSx9JzsIYSH3oij8++6m84c88888888888888x9pDC0IA2tCVk8HuB/ua08bhdJ2AAtcRBFsazvoPc5+88+8X888888888888888+19BDC8AS+4Sk/24++S2uOAx7wwOOdzmxzz/TFkYJe+888488888888888888888T9tDLS9FXY7JitT5PTiO6y+++++zjH/APacx7O6YTPnvLtj/PPPPPPPPPPPPPPPPPHfWwwwDAJ7GRuNPd/zywEMMLwwz3//AHII32H8SHb7zy6Xzzzzzzzzzzzzzzzzzzzr32kEbDwgoQQ4IJP33/8A/PPf/wD/APzIIJ3mEKXz777zi1zzzzzzzzzzzzzzzzzzzzz7X0kEYTSwfL+gQoJLPTzznzjCIII33EIITz7677kHzzzzzzzzzzzzzzzzzzzzzzzr30kHMPDgADP320mmIIJGIIAU33mEIBzz677zkFzzzzzzzzzzzzzzzzzzzzzzzzw7X20EEczQwgAPPX330001z3nEIIATzz77zGFlzzzzzzzzzzzzzzzzzzzzzzzzzzyzH20kEMNDTwwACcII8sJOeMGAyHz77mEEVnzzzzzzzzzzzzzzzzzzzzzzzzzzzzywv320EEMMDDQwwgADEAQwxzTxz77EEE1bzzzzzzzzzzzzzzzzzzzzzzzzzzzzzzzw73300EEEMMNDDADrDTzjIMMEMGa39zzzzzzzzzzzzzzzzzzzzzzzzzzzzzzzzzzzx5XX00kEEEEEMMMMMKMEcEEE2dzzzzzzzzzzzzzzzzzzzzzzzzzzzzzzzzzzzzzzzxz/AJ99tNNJBBBBTsBNJF5v888888888888888888888888888888888888888888888sOLRx55x5x1xx/+c888888888888888888888888888888888888888888888888888888888888888888888888888888888888888888888888888888888888888888888888888888888888888888888888888888888888888888888888888888888888888888888888888888888888888888888//xAArEQEAAgECBAUFAQEBAQAAAAABABEhMfAQIEGBMEBRYaFQcZHR4bHxYHD/2gAIAQIRAT8Q/wDOXwv6vcuX4FEGzhcuX9NuXw114SHXkrdcbl/SL5aXfFagHwq3fNf0S/CcwHKFfi39BeZiXnqVK5b8K/PX5FBdWPviiacjxp5Hz9+Oioms5YN8TF8SuALCKrgvJfLfmV8gK+/A4FYkeAZlBLlXFjylUOW/LvkGfsilzAhlYjxNcS5UYvlvkeQ8pcfIEyEcuJseBRZcVee18WX6B18ImaOEAmUWGSyNsYxrcuDzvG/NMODyXzgseB6xzKrWCGIjpLtZQR8FxwOLA5L41K5DyL4THm9WHtBRsmZOkgnMUGnEFvguFcWDxuVxfooLAEQSAIglTmAmIywwt8KPBYci1wrkPHfHIIRMV0jlTxU0heZy4gj6fHqHnLJcslks5FlksjbA4ZYEs4U4Llks51DLM1XLgrrMS3MiXBvTkOY8Vg+AomJ9rMsFqanz+pa0xi994JTtMW06ypURY/7GqWYZUoJpFsGuveCq1NT51/EVe22VF1ZXX46d45JZiMoNaSyCVt0mVlmtb/yVK5NKnVnXk1ltPa5lBSCyU6b7RYsuoQyVxvhfkHleRESDsMZvvLBamp8/qWtMYvfeWU0zUVRK6/HTvx6dnMXTkw1Fnppcyg117/aCq1NT51/ES18FZFdfjp3lJpxFYCbNftLIJW+k6izWt/5xZcSCkzFxaZlgXEQWt+8ygpB5NdN9ogpvpmGzrrBVakuJxrhXkHkzzWEH3+Ji1Nmkzbx94tg1kZYCprKUWiFxWZlhON9IqxZvrLojrX9/EUXjU+f1xXkV1+NDvHNLMQftdXDRaa1B+23Ti6z4EsgOtb7QaGTbLev8irTWlyyI61vtFVqRRZ9v7+ILHffeYt/iOaWYlQ8qw4HlHgoEXWE677y+THTfaLgayO+8WhU1iIMoDf3hcVmYunJrCzNfqDcOtf38Sq8cOprUzOT9Zg/bS4abTWoKum3TiywpjF77xdlQbqb6SwLKVD0mUFgslOm+0WLOmupBUNmpFF+2/mXK4PMeHnw1BiWC1NT+/iWtMYvfeLxUWhU1jRSzDKFD0uX9f7LCcb6RVizfWDfur+/iW9ZcYvIrr8aHeOSWYjKDWlwSCVt0mVlmtb/zioZYsX2vfeWQHWt9paDZlqXBcQTU4MWJ16YLgkG9kvkJ1+NPzGnRiDQHJXIeXF1l8mOnaLgayO+8wXt0xNQswxDneLv7QaCV+/aLpyYaiz00uOB9+LF5Hv8AGh3jklmIPvVweLTWoVOm3TjqIsX2vfeWQDrW+0tBsy1FAsLV4VLisn2/v4lqC6y+QnX40/MXaXpHQPU5HkPGTwXN/aUIsxUXA1kd94tCprPeP1L96uDxky1LAuN9IqxZvrK7geBibNaiQsYisBNmssglbdJlZZrW/wDONC5QFmK/v4g7NM3vvFxaZigWWV3944BOpZrFiwaDeyLyE6/H7irS4yB9Odh5i1vtfb/sEpXt/wBiqInX/neUWWaxlpTS4NBH++0cyzDFqCacXgvI9/jQ7xySzEZQa0uCQTedJlZZrW/840Lihfa995ZAda32loNmWo689d/qNQ+lykPWCq19N9osWDQS+V+vxp+Yq94gFvgHi34a/ZUEp2iqInX/AJ3jklmGMtNaXLoJv2i6cms1DlXI9/jQ7xQzMRWA7rWXQTftLNlmtb/zjqI2Pte+81mTJExaZlgWF6ykPWCyX032gFD/AJpmGzrBUNmsQG9ea+J4j4bM9IPA+jvvEQVNYkLGN1LYjj+XcLiszMS7+0eDxXlfr8aHeKtLMQfergsWmtQQd9dONS4oX2vfeWQDrW+0Ghk/eZ7n8jUPpccAiq1iyz7f38QeO++80bftynKeO+FR9hi0KmsSF6bqWxHH8u4XFZmNc9Hi8bHUq6mRz/MwfergsZNahk31040Lihfa994qyoJ136SgXf2mcs3jSGOYNpfF4VzHiMYeGBcLQqazULMM/NVw9T+xqXwPIvI9/jQ7xVizEZQa0g0E37S2SzWt/wCcaFxBfa995ZAda32lgNmWpQLBtZfIfQHkwW3TETJZhiHO8XcetPF5F5D6/Gh3irFmId6rgsZNagg766caFxBfa995ZAOtb7SwGzWpQLBtee+c8lXNXEXG/aJkswxFpTS5TPOvI9/jQ7xVpZiMoKaQaCO/SWbLNa3/AJwLShcQXvvvLIDrW+0sBsy1F5L67/URo+nFy4WEG5UrmPNqmkTJZh+I60+kPfg8qsj3+NDvEDMxF4DutZdB39pbJfWt/wCcACULiC99945FOpExbKBYOniBKlxKtfoVy4SvtBpnEOf5D40O8VaXpDvVcTFvWoZN9dONS4gvf+fmCQHtvtBIZ/uZ6z/I60+nCo0Ycb5jzTxYMXcI81sthwLlnG2XLly5cuUeNyvNXxeLwCVDyhxPBPKpzPJXh0341cx5l5K4VK4MPKB9C0536zXj19br6vXlM/XGHCvqz4p9er67X0+vEqV/9X//xAAjEQADAAIDAQEBAQADAQAAAAAAAREQMSAhMEBBUFFgYXCB/9oACAEBEQE/EP8AjkIQn9aEJ4xI4QhCfzYTGt8m6DdzUuYT+RONyZSrG7eVScYT+JPJdOjeKJcwnhCfwIJckqxS0TnSl9p9yXOeSNP8F/0EwTq5VEE5z60vGZmUJWN01h7HUVkRrhoh/wCCnhV4tfSlPdnXLR2xCG7Exhx+itkLEJUUcVsaj4tfOl5zvMGf/SJWhgosjmonC/4f6iSROELObXyrkvGDOxClwmhPBgkQkIRCcX0MJ2Kcj+OXk9ZLwYnYMUUQcyWxRaEhbFSSzOdfLfxrwXihLsSbX4NCTehx9itsAnkErwxYfG+D+FLzR3l+CGv9EI0xw5BJ9jRdKXZl0piHf9JGw0JtOjdi3CsJ9iD7FmKUxft8mJYYlwjeuT917vpDTCZiX9GSpZRsOdHQgnYhb92vlXxpF+drjCcpwsKX0fzQfrgEoylEpshBjYSFNsHhQpcsbZLg8iRDTLhk4v1Xi1eKbZdPvMxuJMbi0NMVksdh4FwCMJ8q8fzCCBhiQZ+jc0P0biUxvwG3DSGg8DH65Afg/Rc53lG8jDCUGqj9YQfoUPLEZF24NXvBpggxsLgEng/PrzRPhGEO2G5ofoSiwh9sHhWX4LoaDwaEEYaGwtDTwfyoapFwYkQacAskPsfjBhdstVCGgxFEh5MbCD+0WHQtBhiMm5oJTCw+zI6NMVk1ULosGIEhnZ4aG2E+0uJuIPBshdBYWH2PwPCsmqhDQeBQJTbDQ2IGkvkLxWUT7w3weQiWVjYWhpgsmqhJgxAkGrgkIwjxfotejXUwYio0P0QJRYWX2yMRctVYaDECUGqILBBOD4v0XqwxHRofoUPK6y6ZGDEXLVUEgg0IE6o1SBqTzfoue8rKJjCwQJTC4PsfgeBZNVEGgxAk4Mn8FO5gQacC4PsfggYi5aqINBiBJzfN+y8l1loxBhQ+e2DwLBwPtEGg9sEplUqMSb0NNb8H7L1auDGsLjFFoaECwbMaqIwYgSgsUYhuxGnzr1aN4Hzin4IGIuWqiIaDECUwhO1R5fJ/AvJZaokQxcoIGmSExBHARkEyUJ2X6V53glPkfk39a96pyvs38i8Vzvnfd/Mn8d/mp8r5fv8AQvO/bf4d8LzvBdvBv77zpfgi5t/waXxpeC823cX+LS/O3/Kpfhpf59KUvKlKUv8A6v8A/8QALRABAAICAQIEBgMBAQEBAQAAAQARITFBUWEQIHGBMECRobHBUNHwYPHhgJD/2gAIAQAAAT8Q/wD1dZ1Ikix0vyhDhOifzNoP8NTfp6L+I2A9mnvZx+HvDqffL8xoh6n5EFznoi/RZUZ/X6hlOp/1fbypH1ZWeSlb9DMT1c/UFv7Rp0Ms/YJcVrqpr7pZZD/DCWGQ3lPqxVbW34dDhP8AAMMARoFPZuGADhf3AYCKXag/VYKDO0k+sA6f+war7wwFS/6V/wCh7bkQ+rL8INgX6qPvKMeqHK+uD8xv0CvuM/edw1tff4tvILBCCyOQOqIFJ5QZXpKSU1L4+2rSkCOUXPufaWjBpaf3t+ICIPAL7mz/AJpgEl2QvobfaUNuwrk4y5T2l8u1+SW/SomT21T+8q5SfG2l75erHfiqbgMzUt38ExpUlJ7ynDgApXq5+8cSVz99M/dl+CDOhfFqf+UJHFqUB3jfukDusfS5fG+Df1v1U34ean3fIDiKOge7Dv8ApYsa6eCizanmCnzsUAcPLfw6iNkUBtjRAoFI+UEgGxGkmJxDQroOz6y5gUP6XJ9GKAhdMe/T/j2oXzRfp19oC/qMA7mz71HbA2Xp9Bjz6lSL4BHy14qEQaBcsSy+wcjEOre0/AFmnL+rrKDXjXepp+0PNbtf6h6cf8W64ePoBtjhuqu16aHvN0UGL7dPFE+Ljo8yaUwvZmI+KAUnBFZUGk+QcEFopHsx2uOG1E7cveOTZnEehz7f8PssTQnTJHI/xeX6TZi64/8Az5LLR88KnCekeSJXgw7FojsKHkC4dKL4iKg5itWlr8avInFrEpH1l9hYsou3L3+sp0h+Yf8AgxlgWq0BKTjavm9eXp9YisPI129B8nVy3gwS4oxBR7vgyEwkvyXV8lHhhuGABF0HtDlIqHQ+IZiUxChXoREiUkWwxNpfAg25fMoCrQB9SXqYQyj8nqQSsXaD/wAA4NReX6Zwd5zD3QdIb9I/DC4oL+BicOY2kJm9fh2y/gV5j70IrJatvwyCA8z1T9w9K6No+96b/nTLCtVoCPuLll9WnLvqPGC7BYAn5Ho6F6POJUFxK8iph7TaH2R3Cqb89+W5fkI7pH4BBOB11R+SQEQNiOSXbIGyffo+8HiFrs/mgBbi9roOWNfr/WL/AF8LnZERdvlt+QQAwT7q6xItP1UxDncrwvJW+BLgl0Tz3NwJIgtriJXwwXXhbWUy1EryDWKC1Q7nD3lpIeb7h1O/8wqqLn5e/QRCT0OC6B8ITEr5FfEqw+KlO231qED3K+wZ+8MKLqFsPqghdI0RDLNCvIp+0MD93G+8pruqo1HcHwqVK8WRAKYvh9owuH4rfwRelPR/dRweC+mPMNeGpFlMW2/K7dbSkZwy/X/Q9pv+VFXRpb9fq9vrLn6ltX4OOjlNRNKV6rZZ3Ae0pePksmHQXrv63EhX3qPZx+e8bkp3nFs9XwhDUfQx1g2WBmiW3iANkZK14D5amgw6s3Fvpj/fScYHdL/M4VfXMVSqDtiPMnA5y4nDYGcHz1KfOKIiiaSWhFWYTwdZ3gYGFFiPP8lqGgMiFnUd3eOWVam1evws5Llqi4UVYt+YgUJvj4D4YkrQG38n4+glh6gPu9XvD8GesYxRrU94ZnKOyi4mN82Sy4aOJZnhgAVz4aAuZZKPpEBQOtUfVm6n1X9qnElwQ/UfEAFFt8WYz7RXcrAUtBtjq1OqZ7B1e8slKq2rK83HltRElT7Ed/AWHmk59Ht2hOLL2D+QUC3ARHR5P76v+X2Jv5W/NUfC2DUmP7XQf/YMioH5eq7XwJURdETzmEYzLiGboN+FRctuUtngdQrqlTldDMtrug17C/sJrh9bvqbl2d7kBJWoqGxIOQh06x8U0o2w/t6stQBeif29iazBS/5DsQlCCczAQClr08zRxABRrrHfwQqddK/82cw22F7E/jtRsb7Y31b8vtBPoNiWa+S0kX8IyZFAFqzHvPM6LdBj6vMEpZQhd0ZisfBmzMFkJHuY7hU9JiSVmEodOLmXr4BWDEb1cRQuDl+Z/UcW4WH2Ecbdu/kfg+sSF4MAUDseNxfOWZiKtj2dZXT4QHqKav8AFnMNhBexH+NQUqFHTluvVmRliZdGZcvyJuUKw9lrE7YciDh+AyoWOsdmFa/ZhWZzMEZWK/AjMbKCborGHTRmI3c3TEzF+CrHMLb1CvaB9FzEPWyP1XiMFHDjfoc+uu8uAWKW8Hd6djzV576m/KJ4iV5QvWgLOHbqQyBELE/iyPWobu/b7REijarlfC3r8OvgNDTXnfAqBWiZrXsov3gnpLlxRReEwjpuiGEMs5CjpC6TZMRnObfDDWA3Y9ZhQkHDk7PylgTWFKrt29CBb7Yweh+36EZKTatr8GvATFqRe0SvC0SvHaYUTvoxiq15l+tRGzj1faOUIWJ/D34VNHomfVOhG1+ftTz8EFiJ8ZoU5X5zuCVaAHeYLvTgV+vBZHCLFDJ12iExZZ2Q6Qye3CFzZHuK1GWWEn2PV4gYYuSj6uZmCHYVex+2Ai+6ae+37e8fG6tGg9DjxuFh0lVUx8CoZQCSu4xWLbjdxFZXbNpUCGPlgUkNztpGoyD4Wi351NwVPyevucTf8Mpog5XcxDqjc8Q9ZfNeLY4h2PhbOGuAlxP5GI/KO5bRYNO1Jog+Ck6Mp21N4bYWte0M0RfSESm6myXYtvQhtpegLWasOtn3eJ2JRb9XbLkwuXB6v9fWA1UcmL/694fGfSJ4CCCpWVlPuD1RKz1NQROW/hNcaAaRNMPCoDenB9ee/wDDGqYQ4AysBCMpfc+7+PhG4QUjkj0j5WVL5TaAto/JCpDolutQPNs0ipm2rjUxF9IASmXQBLOgmNu+es6x9Df/AMgCcc8n1Yaiuo493+oAgXtHv19/B8yVRK0C4FMSmVEGTj5CwXAuYq7+GrXQXjmXZmOJUjktj3P4WzLQKtHH7vt8NUwezRuk3BdZBTjUsWg9PgnwnIFVoCGnhOzD0xn2DOAb6TCCnrOZbgT1lnRHqlI3VNsNT0UdJTV7f2zKrubfSIsFHX/7ADa3Q1Gya6GvJgjKKnWkYDa0B27zJS5gDduI5K8lLKiARh15yUEEb6mUqgqpekUNrxdUTfx6krz1lwW60H9+0BECxNJ/BsVyCdp+DbExNetTvzPLbHl2pInlMW/k0ERpJnmAri77S6d+pkz94MGJySgiDwmAuotR6pfVamhX47ex+5/vAfQi62L5dspy79YAVN02RbV8bpJYVcExXiCpojWK1FHXjkzO0uWzeMqYsE4NfBdWRu2XeGWCUbF44hpAK6ZRVwUAhV51HYqOnnu79xGel6n4/ghRCtTQEfvl4yc+78V5jcoQaiLHeo3Adn+HwwuKTTREPjOUKoj5AsK37cer9JQwELdPJ97hpCXugDW9GTEl7W9q/RL4S57r10PaAIl971WfpEaqbcG2Dks/V/qMGsd+YeZbc2zEeQy+AythwgJLrzHb4mGOqQU0xSlrK+fcDtWgWs3IpVXBTXjcuW/BrM70nqPZgmndLSwruP8AAtHGiM8/119fgCOYq/Dak2xc4SyzUmI7+GkUNMUIDWyj1PHpHFQmKMvo49XMQgjam1luB9Yc+zT7Q5+xO+HV5fpK8E66v0GWZ46k/QGX3mILwFR7Itm0OND31M689P7f1UryDtBIjeZsnemyLb5Bjxojg+kbykXZ7Sjzm5snAb4uCCraFBcd28pXKo+xDTLxK89vWXJccf1161/AEgUU6AiALeXHEfT5Si6IVBWFg7l08fCRoWx1eEMq0SxSu/wXQ+/pGCjt4d3qyzLwkCNBbCVLjW/axKfQVn6orpi+Tv3ZuGuuB/b9p9nNV9H9wSigNBL7m7PiW2b8y5fkMvlvyi2XTV6S15BQkRKYI5lIxblmfLp35XbSPUlrFti0k26TeV5kwLAbE5h5Es7Iefcp9/n8HFN7R2ern2PlRBhXWLfwaiwHIcv9Hf8AMO1Gc/7mGWkv8h7/AImCxZHDbx9InTX0la9+cv0h/op+Xcvfdq+qDqFuxt+uX6ToYQTI/wBTKB3MsR5jvM7k7vh96bszdmK+3k3ggUSvg5uYELWoRWvKC2LjXiUeFx1ZW3rNngMW/JVwfhiotLmBNijtHzNioWOP7THv88EFwnQFxNm4Lf8AgFeevA3DALY6flAKAVcAcw24Dvlend7aIZtm827YIuFEoJxcrAXW6/zAZHdbn0D9xA3V0Ifrv7y3DXU/b+4x9Ef3f6YxsHdl9Tn6VCpsq7XmNEH79mHhatp/EFIT1nenendm7Ms5jrPky6gr4aplJLgzxLHkSFCsxbfPQ0u2VGEKMHdWUuBafhJQiI2JxABR0Xnre5T7/O2PCY3Ta938fAyJqYxAGK7YfC/kwVALXRCkIMdg4x3lXiMAi0ysKwzUvqZeH+LXANj6C/u4+zH/AMBd8fQncxSvyNpkEUTSQkMfXmdMMF5gRfp8uXBO4FfFGor9PjZiJjQaFiWfDS2hVFwDb3ye/wA4DIALVcERwfx4fXfv8Aai38rbkS4gagQb/EB4HQL+rCY7in4Ilgj219d/eXpdRbfAQhXQE1KV0y+8Fq8tVqC9kz1mfJTBu4E+fIkChcw/CVQObhGyOIY09HA+t/N4HXuLvZ9reU2MbfFFha0RUgOPkzBEjqamFAWqsXV20YxHb89EpK95XvKSv4E2wIr0OLr6QU/D2AutTTQT7Pu/NumtW42/p9fKIEFp+EgAqtAG4EIh0uT7T9fR+JXVOVKD7Rki7pn8RCWHBZ+I1gpw/wBUZpx6h+oiWS5aPxP1/H4l3jN0n6jKOGwT9RWSKRKR8wwW6Wt9IleHrH4itMdEv1AAS0tH4iN/eYPxFisDaYPtBlk6DfqDMoe6/ESoXo/1SozmrC/tAgI6X+iKSCJhHjwORAsUb+0RsHSs34joMOhK/tKvOasP1P0dH4ha11FH4jtMdBv1BhgbC78RpDej/VO4AjPufG2Q9K6ero94fsmNwcWFGfWMBeXehAvfeIS1KxdtYWtBqOHCjQorBY3cUcrhAPobqWOJaQaaespd4TWRk1eu8t7d5D9MOM+sENmrQfR5841L1UV/DS4C0c4Psb9oIgmR+ZupB0gFs7dgNC4PpUSnyU1dY+E0woDSJpnOEgKuDRwIwaRXNo+8AAhTUrrHxgWiyOnVKkKbB0xCwkoW3H4gVCtlI6mtEBJJY3DKPKBt0dSgobK9QMRCqqywfWW5G0Gr/oeUCoAq6CUATC2Nu7TkwSharVtDv0hdoW8q9ox60rf9wsBKprd6ojqThVeoYUzLjS4BSosLDgdMUuWoucF+0FuMySDq1xMWaMsYHqzl7DGTItVtXwGIyThpiDO1c9GnRerhRrVbl9o+k3slbwQADfNogob0LBXWN2InSyIEURqFN06Zg2WLVtx+I1UpaFosy9D4izcY/wBpexcEephVQZx/Zg2cgbXWoYITLFjfs6zQajdbvWIJygpeoZjKOxWX6wWFbTdfoNLhVHI51cfJhY6jrRxEAiZY3DAAdAKHGGUqJc6DyL+w9I/ltJYj3EwnpL84nUS4+F/kgNdwH3+ZMhyHVOD2RX0thud8zNlV4gKpS3r4ZEGU0Gynvh9mHMdBU6xEiEoKfdDJiAKyKGZuQ2rzWf8AcxFMJZooVcu4uYWUuw7xwSFcItp7x6GgpdG2O0Zox5w2uu+IDiZgWGTNAanZpKelj5CzFNB9GbPrR7y6E+bCELdMzIyDORKGBjT7sFbz0ibfUcr2l16oC0Ai+yxQqU1yGX1oh7gQCYoXKFBdq7rVmayHsXhcpFIUaU2esatAW2I1ThFfsly4Jk0NwzhI2PEyXP2VzKOgV2KPM0QUjWyvpC+HridYhioQU1jmUpQgrCUMIe32h6iPxxEaKFXMqqppimwly5fhp5GDUMoR0AjVUYLdubdGMa9YNy8swuwAqJxQqOSFWyyhzYRq7HftKEQzUItodmWDVBGwCnHa5hLSjhXfvRBMMAIEpkjsYDXddL+yuYgiEtgVVy9wVY1ZaohidBVrpHQslgN6WVEVVRtKoh9rmvtWkGSuGO7dmh6FO/Uw9teF+XOgC1wOrOIRibgpfBSRGkKS67HzKsbChza/o+qLcyiLOTrLaA4OnmIhXB75jiUsvUAyKVz5LslMHoD3FPeV0yARaiyutzG5VEK9Q6jShJ0sl+dSKENg1TEMAlC5olge4hB1a0QAuljcJD5KBKcOpSX5AXsZZCKrLBljhTmpxg1VqV7+UxQQZwB9C36IxFtuoK7pSmXUNVatoRgqtBKOrRiClwstv06w8ZKprd6ohr6IhXqGBMi40uBLKGtYcDpinzNXzguMnASIGVxom8Qh0Oj2KPbxEgdJypifVqt6F1VwgBqtyz1wRz7QDdEDCqugCYViqpS7jqNWIk1ZuWBVRKBG6aplV1YoW2j8RvtSgFosy9PgzDX0GPdeA5WUgO0MdVuu7n7BVCC2YA3SmZQgaquo6KyE1HQuiESIpyr2mU1tOI7BB6iyymx1VbvtKs2xS9QzHcuNBggpuqy/QaXCCvUXmJQAhyo20cSplFVKroBm5kJNUIvom7jpQ2JB1zxLLC9lCu7O4vLGNTkE94/JplJWgXU6X0eF8A+NyX1VRxTOVbFb4CNNW0E4uWskaJ81mA1WijR96+ZUxE1PQ2+9/BJzzsuPnUSPitCfaMnsQjNtaVIu/WrgEggEZFDDoOZQ5rMXSIFDwoVbUvUyMJS7PWJ5SaEW09GXKE0VhtjtHWcEcNrrviDCLAEFGxKBUSrMJa76VzKAsIf4cjyaTmtJgzn1agiJ8WKINymCwxbVVx3uH5HFCHvMhbV7I7r1qPapULACL7LMgoSxpGX1xAHhgQVQvUMOA7V3ZWPJMjFi8LxLjCnOrf1NPS/IYFKNbKZTRLN1a55dK5lrACtrKPMFMCHYuS66YlrmfixYg12YQc3QqoZ9YCYoQmEoYctvRCOSWIBEPaFW1AyQE0xTCX5dZXgClAFquiUg+bTi07HPV9qzEpgVhuoRdEooxARlFEKUgRd8Q4ll8t2E/wBxC5WxZaOW50WFGk1V+sATeNrThpvvGporKld+9EOKNQIEpnUNMURaul1vpXMYyRK2BVcSzge2Sy1RLPJdG5IlyipY1sHP/wAgpBkCDoy9IyZbAUob944UsMW1UOIV0gNGA/8Ax3iFDtt1fcuPgPmFIq+ZJqG3RGyVk0utYD+/l8j2eOBb+J9+CpbfMFsdRw3TBHnHSGSB8EwACBne1eg9ljAwqJt6x1FemQ1ZLSRqkKbB0y8kQJKuhdEHopZSOprROipQV6QiUJq2Do3qByNF4lG37QyQjK09bblYJQbous/1E5GmBpML3Q8VHWROjOvs0HvEQhVGrNynsGSwvvGdgZV2jpcLkS3lXtDbktLegCUAdFKp6N6YMBi24K6yiCyh6OpeyCUWlh2hoxDYai5wX7RLcooccj7pe/kBoJJypidSOa/EXDrEq3L7RpC3slbaIAU3zaIPjG5wVGaEmTSdS9kOAQhXXvHaLACseHQiVQFuXPTyiwgqWMnSO40V7Fro9VyHa+sogoWdHUdoi11HWniL8K3VhfeXJjRmKbB0wiRADUdC6IWRzVo6mtEIMhZbZ2lACgaBUPAWLfBRt+0Fgqg9HUvcqBgGaLrMx5StUvq01DqaDLLfTrDDAVAKroBKR64dl0R1AwAo8Mbl6Fe6hXdncZ2AXfVcOlwGIuWvpL861anaAZxz2U5lgJS7niPnsQC6iKnyVp2ZnVZ9k+Xz1BoctxH0XzqmFxdZg36x2pNqznGdXHxTSLt4BcSoKImEnR5sDA0f794FIIArIoYZFptDzH/cwzEzaXiT/cSxlAyxCk9YOFnA5qy+mIE6uMSYLrux26nHKcpPtLxCjMcVPvE1rLq24/WBpS/zitT2F+niC+gAWVGYa6YKycMohASUFBuGYplq72B2rntFksBk0u2+kpEDaNCRz0sgaUD3jprvLg2rEzyr6RfShKkG0B73DJDJq7sr2ghLdCkrDfYt9ojVbXyGACjVtMvvE2zG6tftK5lvAFdijzNT0K1eVfSPo5lJ6IOAQYjeEU+kRpGVoC6PWBpFGUFLuDdWd13YSZmjkq2jefXyqiNp6SsWZ93B3SIjsHQm6BxiDmEKg3pZFxMFELW6iJCgCgoh+7AK1bxS1rCWGfy3YT/cR5QZmRoiesxK11WRbQ7MEwjtWEDiWtAlqjlUPcmVauSK4U97iFQDcizx63CA15E0FFfiGoEo2cNs+0SVQIrYoa6TUxCwYC10/qO27mwYVqIkGNilDfTMt4tF12uW6VzCVFhiUyzfSX9BWjQqOelkr3EkrDmnvk8g8gyA0NL4Gjhc5tsUN9jVd4eZUg4PIL7fowRfs+XojTX1D+U+FyPnUfA3AlptYAxYLt4cx6qiQxwvwVK1VgLD3yiiBiLT1F7IOZrOVR01sElXQuiJoUORXtDb220I7BEltVgW6N6gdgF4lG37StqMrT1L3KgYjmi6zHoE0NAVkawyl1orVpH8eBKGB1sAb6XXtEwBVGrNyoqVcquC0NVa5QjNKoP3TWiLd8ZF6QnScltU9G5WQ3W4K6yug6D9wXsgfHsM0amQHBHCY/an1fLrOMQKC6eY2GFjmjvK+Ju6D1pqZUFthDqBxAQt82iccNzgqIAAZNPUXsgYEE5VcVIIWFjwuiLVAXZc+XXwKFIYh0zhikWaLG4lWFK3o6hKjsCDrTxBWKKLAG0Xcyw1HYpwtMx5QNruh0GPCALsq9olKeVuaTURrd6xA7dhnqBmNo7NLg05sqv0Glz3yodXK+4sbR1o4iARssbiEwAAsFRwFqPDG5YRXsSjdncGqaqpzVdekWo1F+6a0QWsWr+zrA+Iul1uw2pR9o+thBkTCeNUDZniWX7qIwCkwkCgC5UipKeG45U4zVvEuN9OcSgq47t8lyaI9QPtfy6DuV+6D8vjbQkXfwGpfhqNpOtce+osyCxQAKPWYUBQkCFs1DkSdp1WP9xAEWi2Why3G8uutJqn3qYJrwlJguu7FGbHVHKSI6lGY4qfeDVBd9LPDrcp1MjZo0A98R/lCcFKPrb3hMq8HeS7exXvExwxFUUtQKmCsMnDAsgLVAgb4lXNhi2SrxE64W7JVCFd4Q42qXdanpj8TuWI8dNd4sgx6N8q+kvysqwWKCESHqCLS8NstlO+62+QLajsKhFjjS92IyHJQvS1KnCHM8FHvLtmmkKBtTXb8SmVq4noh5UHU2Uin0I7yYtALozzFGAU1Apd8S51kVd2EjSieC2jDn188uNOSJwe1qsTVVrIGWkzFpqK9LICUOOQtozHwSgqMaU+8yAUsItaxiDP5bsJ/uICC2LLTbccSBjdamKlo1URsApx2uXkpFVpXeOtEB0YAQJTMVmKbKul/ZXMZARIWBVXLSB6KglqiHRyEFnSIQG+DCBhIx2ZoTCtR0iyApQ37xyoWMW1UMrVGaHGlHe/zDA06tZHdReByhYKS67MyujpVdbXkLb9FkYpa5WKkK9OJRWi1KSGgARULo9IdtyxRPtxGoCC5SbL8qHuEe9n5J8rtWrhIAlqicRQd1/YfAWorb4LXHksBKFcub7W9klhI1TFNg6YhYiULbjr0hZHMWjqa0QGeyy+EhyyAKddYh6Rm2EOqPED3AyNPUvcqRgGaLrMECSrc6uVaWEG6cr7B7xYhSmLfu0fUygMLl4xD1FZCrrniWBV7qU7pdx1YBc9o6XCDi5SvaZTS0l7AnckFiuzeoPBi24K6ytC6B6Ope4RvIy6bJ65eUOYD0WThROsHM+lwuAnNXKxZjvtkrbRAYF82oUPELGIX5xJqyWsyRmKbp0xCxEtW0rr0j0Q2w0WZenl1l8F4MvRf2uIEyUeqNtHEwa7LG4lPNC7o6iBEhXUdaeJQ5HmC9ZlSNK8JjRITUdC1RCLk5SsyHZpxHYIXBcbAbG9RQFUFH0or9K7xygr6ba9b/UFS4NW7tBD0uHuMrpjpUwQ4Gws8ukXkO1SgwqvOGJUCEtU6aeJQhE3VcdIwXfXodLiITrnWeriOZkbaDFqugOZkqWCwAI+vyHgrtUwAivArqte/wCY6DLVkbMdqMRUa6Zw0y1xWPrEGgN2gc9pt5GM/UBv5XUjAFABCotgL2s+6/KWIe4iuCjVr0Gn2gkOZRutf9zF0iBQ8KFXiGq5GEpdnrHNuTQi2h2ZUo2isNsdoS2E0QsujriW6FGY4qfeCCgu5Fnj1uN6FVXsLVmpgHe1JR/IDLDG2Tw461UwsSkrxSkdhXKqHAZlsD5WUQbhmEJau1j0d+0eAuCyg230iSNNq0rHPSyOuFe4dNd4UU6pb5V9Jf0rsguUDcKhYkegPvV+rBcLkPTUFeAohSNUa2Uy+8pbvVbzy6VzLWAFRWUeYoDD1QyV2xF0eyk6xHCrCArGJQkBLBSUMvGRRDyXFwiKDwtVbULPC9rCMJfl1lgaVKuqq+9R7AlsljaQ2jcsgXdYgZBFRXpZUXBYugtbrMEGAKqBobmZ6ohgi74hqGn25sI6/wDI0lrAlptsJbtkrsmqv1jgmejUD3LY9B8idJTCoMIeo/4ziEIBLhtk9JnSIdm2msVHQK3Cr0sqLI2ZgVSjPpcUaqnlBozxLKLQv2uW6VzDRZDG1lm6itjp0r/UYoVQrCkut4WE1CzoJdq/TzrrcK1ZFtf0I21oiq3TuCG6QS6EjNwLhCsvBSmMLsh7McWwEe3y3Yr6Cj9eK1KvuwWTp43ivGvhgbgsd8wOHudAr3KfeZ6qDaroXREkAFmW+0ZElpxHYIlCalsdG9MDkULfBRt+0Nkhl6ettwaM1N1/oLl501bnVyvOLGUdaOJnWFVKroG7li0VXZ9EdR6yKGrNy2NvYlG7cwewVVOUrr0iZagPT1a1Dg6uz7OsNVVVYy3oDrGxjYl6xlPtkcFMz0tnqng6YEQdGNRWw2+ALhYcqYn3Kv8AEXDpErlYzzJRA20QJpvm0enrB8Y3OMRgpDIpOpeyHQIRlXvMPUDS/R0IlUBdlz5dZWG96HWx/crzixtHWjiJlmyxuGBwULOjqV9xa2jrTxHnleYL7w8BHIHvMWTDazw6EXGBy2+0JuS096AIXtCBEtaCPPkIkjpJostrRaTAAtLzbp1htWVAqdAJc5VV2fRHUemJUas3HhleYL7xddZfbXodLh9DBytx3mWydcEpABvBT0ejLuh1VX50cVR6zDBYiHc2MAXQ7ljE2ULqZN1ti9wmIRlgu+i4SleDxTkjcBicMvS5zX98Hy117X0Z4imoCoOXUdZ8l48iKjLEpp8o1LytvQt6h9T8Ijg+KXiT/cRtS8XJoctx0DrrSapfWqgwKygpMF13Yx+jfVHKSX4FGY4qfeFGoFXYq2XSs3F9CKtYWrNS14Kkpd3ULjTW3LJ0/uKTimBRS10mvFqTDqLAntiiDfvKarDFslGonXDdkqhDvczVtXsjuvWopTVRYARa7MS2yGxpGX1ogHVYcC4Wr2D28b8DR4GFSjWymUpbuVW9Z0rmVMAVtZR5ilMLGjJX0nSOyk9EW0JgN4RT6EfBOVIC6M8zGwo1Apdwx7zKu7CRnRFmLUN59fNZZFqrqDfAKaljdQbClkC7rEPMAqDelkStcqoWbqADKFVA0Nwl+qIYIu+Jenr1ubCdv6jyWsWWm24TOSqrSaq+lxiCZAVYjPkd425XsD1QD3hzAEbOG34iTUCS2KGulw2ksCUKFrp/UUWwU7GThlTVaZg0Z4imi0Ctrlulcwg2DEplm6luhipRKJfSyJNk3maai8wvgSv/AHPORSqilNbf17RFCEMt7jgEPLe/A3Dk3q0lDj349ZdIzrF/8uMtQvnB6XECpVcwH5VeQBQAFq2XR+GwGPsG40lg4OnwGIbIiV2+e2Vi6I2RuAVy0xaPRNRFKgOVe0NvbaYR2CJAjUtjo3qUWKF4lG37Q2IMrT1L3KgYBwXUs4iLVC6tNRAhrA0644mDRZY2iIVg8npFJAy6rrTxKiLU4XHXMN9g6XAbi5SsoKT096AJicMKxT0bh5RbMGoe9CK9fdtG18gW+ILhYcqYjIIWGaI7EI3QXmmpvA4u/Z1gFQgUFU6AOZSXtQKn3HUPkohqzcshGjMU3TpmBYYtd0SxZFsNFmXp5oZqe7G79MPAFRe19IjIwAKroBCXC1VZdx1EwEo8MbhJRCtYE3S7lcAq5VMeFDa7oXRF+GHI3M/JqeR2CLc2HJSNbmBY4AxeX2nFZ6SOpYH6ysh77W5F36K+kauVRNAdOCpQTlG0daOIkWbLG4iARRecMprwTVTzniVwhNwX3jpVF19ejhcXoVc7FM2b6hvBFAAbWKej0ZR/ma4APy+KYBIuHSKKVVksPF/aElTsK4z9iMEJKOLgK7K+VQDGR9fIOrJjq4it8leJmJT4EGxK8rSq2AxmMdII7t6WjmJBIdZk1TW81DJTOHJguu7N7pvuNpIPl0ZjipvvBlFLvR08eoKhZpbVoB+I8weOUBsxEoAgFlnSWPGpK8UpLKjWwWuDMdcoXOCg3xDdIljaxbVV+IgeYhrS7bqKc0y5BUS+lkMVFb6dNd4CBWDScofy+nlPPiewlGtlMojDRZI/S1D9AHO8VFd5cVgGRsS/SBtX3FixLrswOXe4VUMtRGqFLBSUMvKVRlNrjQaoIeFCs1AzQM6aRhL81eJH0C16EfsqVS0JcYJBQWKUNbhgIwSaKWozDe7BhuoQCmosxARuNsoUpAi74hMWrW5sI6/8iNKkCcNuIB9u8smqx3hAEG4VZTMz9OB1bSz32ZDgqCVKXajzx6+8YUi4G0KDIS5Aa6QS1YhXQsSUs6RVRjCr0srmO+tTAqlGfS4cpCnKDRniW0Wlra5bVVE5bDG1lmwlI4LYiUS+lkaeTVctNQ7UWkVTD7PiLxp8Ey43ENhvyqCxRpdHHrKn0CBj5W7C4D1b/cfLxb3eJE6KcvMBFzJ7fuYQuF+VFgfW4Po36hA7OtFZ1NaIXPK7d+kK2UEay3rEpiyzgHWniKgLAWl+sCjLXffo4XL7po56uV8zY2jrRxKCiabhgtJQYMQIDC4Y3BjW9iU7tzDC0qnNV16QoZuWr2iPii9vp1gEbQjiWnAq3DgewHkIFHibcWnDTE+98+lwuBDJXLMisqqBto4gLTfPHt6w2pQLGIOJxDVku7WjMU6OmY4Zi1yldekvchbDSzL0802tODbbv0ynmKNo60cREsysbh/+wfdBYcOpXTFrqOtPEfeVtoX3hkWE5VcSvxKHLR16S+mYrp1NahNhLLb9IzVoHpSIS0By9GYZCwNXAJ5079BpAK2d3VyvmENVHNHEwWDLG4/9gCgxccMrv0TVTpp4lKsekX3jPFqvquOFxa1E37prURVAtBDqBxATGyjY9K3cuMoQ7LYexR4cwC6NtocQYCiHh0+Ec7x6HJMFpewtdc/+ztkvoZWb+VZMq/rV+/MqbYN18IagFC+cXhYsLY4PVXuuNpgp7ItodmGAFUV1tjtLfLZcCu8dcRLaMowQy4g01NV2Ktl0rmcGMUOwtWajK0UVaEbqFRE5CMqxxMq4QKwhkqMBV6hh1KAO1ZRBv1lgKIx7VV4mKgvCUK3mevA5V7TASAKp/wDsh5RzfkAFGmC4zm7u8Z6zpXMwQoqJSjzEqTNBDJT0sl5OdaB1iKNYICsYlKwQsFJQwxWqyKbXLYCKh4UKtqWUINVhGEvy6y4SPqlqD7BLZLG6hGRNWiLekZANnrKq4CRYqoWtWYMYgqoGhuX+5RDBF3xEBZRQ8KFZqFSXQaNWOHOZRAgQUotodpcy6djkBjFaLv0YzScxBKF6l1bEWNL5aquYprFyG0KDITFUayQS1YhEreJKWaxLiuxavSyuZbMWaBVKM+kbngHKDRniWWyRbm7lulcxxktBuNKK5uB6FAW5umu0d6dYpWVR6NeKpaTfw7AkepHBZVPQD5g1wFxK+VMws6LrIvw94XPKy+GFLKCNbvWI2jLOA60xUWilpcsQmG6/RwuHLJ1FxcocKxiBzRxAgXmHghsJQLBUdCJR4Y3BNcrEo3bmD3Kqpyh3id6ov3TWiFXi7Ps6wHkW3Cm/3HoHlFHkCULTlSLQQN36V6uFDJXKwIccF7fQgVQIAFU6A6xAltA29YwcDiGrJlFSKxTdPMxyzFrlK69JYpAqGlmXp5dYeunBNt36ZQl1jlXXHERDPRfD2mAibDBUVHJR0Mbh5MCsgTdLuBhI5glWSQmu8LxE7AHO32gea69uARh1Q5KRCIkBIAWV4wywgLjpcCmnJPaGlzggp3q4TAljaOtHEBifQKr0DrGS30GF6J1ipVdjfdniKSM7Eo6ncFwJVOarr0jXeRe6a0TT+RuEq4ygyngO06rb71x42tixzxGHw8H39/B8uBNM16sQToWEQA5HmE1LweLmoDbGI7DhgWxKa+NZAlGKqGRGxj/palgu2ezZBJHUV1tjtLhLY0C3dZ3iVGBmUEKPEW6ylNYqzbVd5gwXaNotWiUtCvku7rtGwAgKlnSJdtAF4QzisxKVaWwdSr5tWUQb95fBBmPZK4iMQv7JVCY5uCONYFtmD2u/ZikRVbV2+QW+N4rwpZQfICmeYJXJ0As9Z0rmGao7jao81FBlMcquR9sRg1txYES63hgpuqJaGWo3wGbBYodS5BlmU2tjI0UgsKFZrMPIATpRGE8usyLH1V0QRTbASxusRLpWtZzdY4iRG8HhAsqsxw212DDdbml9VWYgIzc5RSBF3xLy1WNqsI6/8lkqoDWm26mGYVdk1Vm8yk8ghViKYzSF3HZi8PKIJQvUu0s2RgXy1VRfDZg2hQaJhmNdII3WIJbRyTuT/bhMJewmtof7UzcDJB0ZekM1FhZShv3mfgIxbVWajVRCY8NKVzf5lAqJRmm7q9v6dfCogDb1a8AlMTyXI+v1JhEFPkF0ssnZf0+XPZkX0D+02TuUlnQL6eQal35TAA8xCKw58x5D2FNxUqrhzFeQuE3gj6Pux+ASlsdG9QLdQt8FG37Q0bkPT1L3DiUAzRdZiFiRSpfqNSkgG15dOsIMmACq6ARBgSE2fcY9Oao1ZuCtq9IvvOdpb7R0hnxcpWXC4maSw9rPlHF+UOg09Gkqz/WfS4QS4lcrMy82iBto4gMg+WPb1goYN1jEdUjIU9RfEIKYaaL7zF0w2s8OhEuAOZz5dYuCODbbv0ykkENVdaOICMiu/M17i44dSrnBW0PNPETK0uaL7wLESKinA8yrRIbXeFmAytT3DXEMiBfU9JnKQPSkUUtU8AM2siWnqXuCpohwXUU1YWLbq01AoDDll0jst3AU6AREqKTZ9xjEgqOhjcE1ysaHU7j5U0h16OEHQJx7ioffx66VSqq5V8KBalQ5Si209r1KUlORWeP9UYcBQe9ZmeYp2Cc3WoxOgNVfkuTcyZX0TiLb5DYo1evlxcIfRC7RfmSvKS/hCktLwkdDlwPos5YrKrAXXRlRQTWjaQjMCi7HFTBVLBvR08eoN0ZpbVoB+IUo0QJbEvJGjW1FiyhrcLhwUmilrpmW1CGWMnDG5gLnBQb4l0sCztYtqq/EQsUk1CVbm4qhd5OA7BR7eQyw8l5y6qhEBRzZrOObuu56zpXMygquNqjzUSsZ5IZM9MRI11FQdYhdQ7tDYin0JQkQyAXRnmXW5k2Cl3xLHFSPdhuPciETgw58usW3DagtehHXBLZLG6xCWlNMqZVjiUQC1VellS1oDUFm6zLtSplDSHjqyloimVtaupeMoxubDev/ACERkm2QiY5lxIOsKLaHaWOUOsTIDuHsrwHLbEwIRZeFWebgNyg57V0tQw6K1aiimO1UFQtlsnpHUkrHZZQ1vcaILgucC1v/AMjoAFFYK1uAjXVo4CBtexcQUqXW29n378eBuGMCswK4NIwvYOdG9kIT7co2M0X0tdS94ClLbHNazf2ltg6xahLs4+8ayKdz4WhRz3sfx+XB67JToFPuHn3CC9Yq4/IKaG5e/wDSA+3VbYKNv2g+sMuB1tuB5oh3VmX5kimA9XEoQDtfs67hB8lBadAgLRVAWfcdR6QlRqyFXo9AvvDC0qnNV1g06qTeV936B8pzfluIg2hhUXbmBRChmvWVRDacDqjUM0y3idaOIKaz7GenrBQwuRjEeAAo1J1L2QeYhpo95V01Jr9HQiiSHO58usbWnBtt36YDAFG0daOIil6m7/8AsH3QWHDqDqvsz7s8TF1Yr4TaLuVsBoiN0XMtIBCa7wsDGA5TcXEPrz6Q9qAgCCAWV9GYACwNXBB5C+wOqAAuw71cBhVH0da6Qs3liafZzfaWig3Z+7Q+7BFlj8dZT6PrNqEFr0zx28iHUljKpS8hrD6VLBenBT0YLnY2MGkQUGCWl/CBy7z2Aff5cxmqqud1n2rzII2wktHo3OfdnlC2FbTct/COUVJLDZ1649034OcjaSAhdmzOKm+8GUsG9HTx6+8G4OtG5UAr6QqhogSsS8kKympbFDW9x1mBQ0UtbqWdFEXMnDqOygXOCg3xMgARi2quJmXGXY4bOyi+/lCjzWXCNgONX3iGLCzRelqESgNG8FFd4B+mREW3TUSubyoaYlqJ3aGxFM9iVWkOgF0Z5m+zJsFLviWQGweKw3r/AMjzYCxODDny6zOYfQLR2ItgAaSxusQF7TV6jascSoA3PDpZHjwt0F6Mw1i8CFylK94gWRTKWtWJQgY2qwjr/wAl6ioG4bbifTaMqqn2jDagWysgMfcPKKJtBXRMuukDAS3YUN306xlS+wR9KiAyF9GDDa48AUErp4hi+81AQsTxqEtARyNTa0ZqwpcQCiNq30lzZQy3dZ8CBxRp8BKN6cZH3XzFKBhB3H2D6+BOgLVsJCTk8bFmIbkfV82CRfhMZbeTDBTWPhJgWAaRNMocAqFU49ljK+xy4PUvcE1RDguoJWzu6uGIPY2jrRxMBgyxYiSBRYcMOuaVPuzxENGViUbp5lCh10AOvULfbyi2dYenmrXra0x0x5n0+ECCJXKwjb1QQNtECVOtiu3rCw4hYxBxOLhZGUNkVFN08zVaxa8V1mdwSiNLMvTy6QddODbbv0wwBKNVdccREIGWOZp0WHDqGENZtHXPEMU6ldFyjGfSPeMghCa/RYncTlNyr3qscN0Rhmw0lIhETybEWCtWXQ3CBo9LjC5Ec/eGhWUGHpLmR1uPaEH4XEUAVQ86lAlm1ln7XAAAAoDj5ilbPKzr/J4BqLfwSqb8BHMu/h5snE7DQepT7MsRGXZxVnvAGlBvb109TZoyDaFVomCAAU0jdNaiLSA0pZpUuG9lhxSneBvZk10BmGXA1ZRBtlkm7dm79vuPlNEvzGxAeWmsszf3maes1VQAwNxtUealMOuU1kz0xEXjZqGmJV9ABeMfeNelloKSh1KkSpWV2t1HJSqhYUK4ivkYQUUwl8eQtBiZWjqBaL6JWrIJNI3WNQZy3M1MqxxKoG54dLO8M2Eags3WZjUHfBob4jsFkoCLviY2yxtVhvX/AJLdzUNw22Ew3CimzVWblB4BFKIp94LY2ECzwNwQ2bjYN2QQl4YGniZ4iFuy81FfyVPBWLL4n2+ZMkVpHZf3BFBKQPCfJkp8t8CNh6A9xT3gDqCjDF31Ygg5Kr7dHdAg30HergMKswzrXSG1vQZToHWGdBUCz7kDAguGNy5itNBpcrqd3liJb5DL8D0Sb1dJ91L9Dugw7KHcvWC2YG2ukGVH2KenrBSruQViIiQo9DqdoHAw00S9oEJvTLDkEHM58hLXMSoxOcM5u/TBYRTHOvpEwgZYv9uFroLpw6gMKtxzrXSAqdbGs94HExjouM8hCa7wsDGBtLcqdqp7qKCXD2GhSIREiqW+A0eBvxGr1mK3F8AU9JUQBJshqCeJua1eH4rpgoX/AKLt7/NcUbZRWwelvgV8OkOWFYhsNj2gp8tqwPsW/vT0CFCACsoq2WqrmMLdug2hVZCYVBFSDd09IDtYxd2lP9uG4UUmApa6RlpCRWDqAtRTgSaHu2+UefgEwTtlNZZjZ7yOes6VzAhGu42qPModVRSGSnpZKJCWbB1iBSvdobEU+0FgoZALozzKeB9uCl3xHRUNfFYR6TmAhE4MLfl1mRt+gWjsStUQaQRusSh2Ce6NqxxEmDc9ellSxEjaBTdZlckFZwaG+JQxarApd8RUFrDQrDev/IDzEK4bbILykQnKqs3NVQgpRFNeQ85Ai7ZO0YAEq8m31gXUB4EWJLLx1M/1DDuzbhqkT4W4yYIheVog1hSRV0VfzWR+x88X0T7+cldCmH4VmVjcD09C9EW3y/SpEWLe1M9LgENlV9+jugQeM71cMAViaOvpEQgenj/ahpJkWMRNZUXgK37RTk1d4weizPqvlCj4FMd5WnhOe6l/3kGuJXLCMs1BA210g4qdbFPT1ldVZGMQcTi4WRhAJFRDo8zCJWLXiusEFtKWUsy9PLrG1pwbbd+mGALK0dfSJgT04WvgsOHUNIKy6OvpAmpgzRcO3Tx0ROrQWvAZzLqEtNdRgsQ3+hEbAB9ERUyvAgKth0mRQo8KYnglmFaGpjl6wdBjGsQtAKs3nMNVIJhfeXEfVtfDqrrc73x+z7fNmmKi+FMPs0xGrBFUjT4VFgtq1olqqtVqx9HyX8kKIjSRHVIYtgp1rPvMKi0E0KrITHUAqabumtRlwobUs0qWnAAXhDOOYMwttRsvuPc8pt+CXAB5aayzN/cRpOZqqh5g7jao8hK6tcU1kp6WRDi+VDTEoGiAvGPvETAisUlDqGUkSsptnUZGlkFhQrNZlyAFUophL48BbGQDLgoliazL4fQmvQjWABpyN1ibrWnajascShFueHSzO5egVqCzdZmGwXnBob4inBSrApd8TFxBJNKFZqXjDo2bDhzmWwUwpC2hjUVClIsRsPWcy9k+EVQpIbhSXNJGdGayZ7wLh4UBI9WEJWDuaQmwINI8kuIm6g4236S7+Gu5mbu2v0z7/OYqcqGDd9Sn6+Fy/l6IyW6Ds9z8IEGyh3q4YQVjaOtHEwEDMLH+cQY0oVjE9lK5WX+DyhR8HWlW6Y5zqX6UBDErawwQuja+kHrQAFqdAQw2dWD1jA1OLhZEEAkVFOjMIhYtOK6wXX0ozSzL08BpjICly1NY2lODc3fphgBZVV1xxKwgZhf7cTUjF2MMIspFYMbgsGqsAnR5gcK+Jgl7wAmu8LA3im0qyoGDtlmI9SgpEIiQWsjQyyqJzFSWu4biQm0QOZipw+rLIEi95KLrAvBCwBKGzWaeS7j8C5UPhLVMQU+Q7HIOhlfT8wLgwNAaPnDBkLOeI98nvEQINImR+ZYml9UMwiUuWsHXrFQVRW03dNagWpIbUs1iO8pBxdAydxFZMI2rlfIZfhCpHP3pqjmLbnsF6TmaqoTWjdWqPMJYZUa7H2hXbqR2CJddoNOtCGJlCAdshRSUMcXslZXbMx4QsTShWajToMCRTCXx5dIbFb0jR2IAysAmkbrGoxbpK1MqxxAsKGV2IF45lhDTCYabhgoKqmIFRSAJSApd8RqRrDQrDev/ACGYwS4NuJjB2wWTpTccpDOFNUqBUqZItso3K1i0QMSZxDQwUy5b4ahm5Y6Brr8DIQbbOsZI7fI1eLmODl938fPbwnSY/ts+/wACvjngrO+8eQxpBV59LfUhyBTHL6PrLIDUlp0CLXcVyNN930nV5Bz8LUme6eEtb53f6FwK9lDliyBqYQbfSJC0Oinp6wqO7kHEVnHF91CEOONDB7y9TSbX6LCGDjnc+XSJw3g3N36Y9Dm3B1e0TCHpfiusLXgWTh1iHE9wZ19IDPFc0X39oSjChG6DzF/cT1d4WWTUWFQdWEhKXA00qe6Dk0F1GOBGPbdJB2lkN0EWy7ouRCC1lSVPTxUFsHxQbaCa9RehbBOmEcBXzxsU7ea8e5j6RmyKRKR8/IdnBXSvjBCCGr0YekDHUa+zb2jOixAtkS8k28N01VY3RUtOF0cOB7AI+QMfCLzBxVDeY2AUQOkzy1VQZRDcbVHmpUTqimsmTZZHTivtQ0xMAY7Q2Ipneo7i0zJ4zEoFdsCl3xEgC4G1WG9RobQKJwYc+NeGkd33IC4o49ZghOJNBumo2OSNTKsS4HN5CtFIJg1pQs3WYVoqJYaQ/diXBKYG1t6mBuMNCsN6x+pkYm0KEcOYYw2BIW0ITSlOERsBjpLSmoUVDvqjOYDnAASMdL4ejHWoGcKsh+8Ko1NvGvjitqGPJYS4js+FjwuqaPY5cez/AAGDiSoxxvff1+UEEKzEoYNmUMrLFVtoA+4r3llR5HNMv8QTwd+G0IjsIWxFVWfAVjloQFF0fx5JEyYA8omTJEirIPyB2tn28aShjw0jOcMsDgJmx4DqH4DoQ7ly5cuTTLAGADCrx18NwLo4lDodZZiCpYDNxT2Gl1i/JEJVyqgdAcjHvA0t7lxXb8Gz47B2V9IOwcRoCv4ChEbF49orJFnCfJEEOJf0htA+yiSwmjKuks+v2CEtNIVdbfd7BB4OvDAgy0usU1Ll7+Ilk9c9c9c9c9U9U9U9U9UCvC/JXkFSpXeVQ2TJXrBFOIohuKlpL1ELZiJ1qsTyyrdo5DlSEaUuXb4mqQUd8L339P4KoxcM3w9un2+IS0ryHh4hAYWs0mCMv0wVBd0DYxqUquVfIrP8GpBa6j+oceVyqUrREapRoYNMoFgYI5gPoS6xFgpFvxydHlt4vayFo1/hXtAAAKD+COGsrSOyNEWr56nc15SKSkbaiV5CWdE14jLxL7EAc3rc/wBD/cHzet/3L9+zn+5Wfu/tLP7f7Rq4Gxf7jS8LAxL/ACv9yvn9X+0YYH0f7SnXv3/aZv7f7inD6X/cs6JfY+Bcv4FfIqQaSIlJy+VHYoxS1Xwoluo5lfB3zO530VNor4E/Xl7QRbT1a/whmYGrmvHs6Y3tbTInkNxIDYpmK/MvyDHDJBqODeo4HgnKnMcXyFy5cvw3yFWqD1mwQS1Y+ny4uViUWUx8GrRl1HKVfoj8G3hV1eXjft/H8NcNcbZLn1Px5b+IvC3qGI67om40JdF8tfIUy35cxCyENHjfhS8a+FXv3owHHoc/w6WVH2HAbefV8giAysoRUl5hIYD2QR8AxfkNsWG4mi8L1uYP8MR9MGuqPxrkdJY6R3dEMqabg/iEfUPsDGNlFc13PU+DlYLVbHZYt2vKgmxsmVxCjxMFOjwPmKpjYVvLFxW/wZEaEoPcPG/PXnZ63fA5XYgvWln1a/o4/igOUmsrgdEiDLFLH9nX4CKzEVtK9/CvJfi8fxxfwsnLFqus9SMeUgQBsrL2AjXn0dj+M3A8m7If1zMsQybth/XHwaY6ygOrVwU+Z2dtPOGfgFo08+5T/AX5TfQJtTwQoWJOQf6t59P46nycg9Uf1zK0aZE9cf6vgXhjTR0HiK3zPHp5r+CYCZ+4VA8kv1TF9/OAOrBEEGyO/m6fgGegTanggbqKAX/C/wAhkWbJ64f1zLkCbF6479vmAVoiU0+VhwldMVgJ3R5rlEXZX1l/NrWE5V56tuntYaCpbwv+V59P5IWJ8Ol6jwxkDgCJ06PihsSvguxMMRW78AuO0EfC5fxKfnmyLl4eq4IEQZBOenQfygSBpbEly4Wmz79Tv9fhm4SqDacsAVYWn4lwek5SVXwa8u8WDxaOV4+iO4NOYlfNW6JKePodXtBYCLJfXL+uP5ZyYFIliRMSps0vL0vaK+6jpHufCTRlnx682bHRqC8zBly/C5aG5guMukQvjicOZQ7Xw8dzUjNa+QYslZoHbod4fYKHR/MuAUGeegOT7xOtnkF2f18wS0HliHUL6eUaimR2XFvz38A0DAkoYCD8TQx+KgAKBax0wE2j36vtAAAAHB/N7owHfudGYQ69ku3R94iQDSJSPzF+cg5Sm1gXx6/CZpF6BBXjUMObxKaYlNFq/FSRfhYTs5ftBAqKzfWenb+fKMYULD7NPruIXraJfu8PZ+fvylU5zwV5SloBQcJTvtLCu3zV8LrUeVd14JQhepffq+0KC1AoD/gQEDQyJKs2ytn6v2xOhkoX3Hk9PmkQBazGiPRhvKhB4vNaww4PkbcFXfkFAu4LXNKRWHwSpNLKvYJbCF8V0ePyg0gq0MnVdr/wqMvozD1HYzrVl1D8nvHhdSxfMOSUmopXlthi5pt9Elzfmr45pCRSHXgMBklgyUC1fSIHUzjZduHvCN6lfcDj0P8AiWdI42eh2e0qaG78+39/rGHCmh9HT7fPk+AXhfr3j8ZgQZRPsQ0xfW+2j3+kAUxnKe/HtUCtY/4wvg0lD9ZbRM7N/J9Yl6Fkd6ye5Nea/ldJE28ytdB6HnJKyDgfVYivrb+FX6PeAeuR9Qsv/IoJSXL0P/6Jv3udIDD9AY+oStErjYrss+Y2lvl30veHi5dYUrql4fhHElqmp6uiX0Kltg9DB9ZfXUbaX20+0OBVAUH/ACzwQSkTZOeHP1GH3mZcMpZ/x6S7DC7qV6GftERBtCPZ+V1rG38wUAq4A5jqU1H3RSWPTaPqNH5hodM0l+ij7QKaaID2P+cS95i5DKosPeIqqbb7Gz7QNr3v2J+Jc+SgF9qTRd3H1GIyUGxKT5M9btIn1qZWvW+2Fv2iVDLVP6tfiUtC25z2pBgsN0z6twA0B/0iDsGWWW/2MtrB6X8hLD6g19DLDs36Go8ouLvwUNWi4W/KfcVf2E13of2sFoeibvYRen1k3nrP1M/zq+gzIG93ZpP8ubSUXdqfzWAOuKQ+whCldV+y1ADgSp9iAaB7f/0k/9k=;fontFamily=Verdana;fontSize=13;" vertex="1" parent="1">
          <mxGeometry x="141.25" y="500" width="37.5" height="30" as="geometry" />
        </mxCell>
        <mxCell id="caR4HVADCC_KzCn6fIui-43" value="Multiple candidates and multiple datasets" style="text;html=1;strokeColor=#E5CCFF;fillColor=#d0cee2;align=center;verticalAlign=middle;whiteSpace=wrap;rounded=0;fontFamily=Verdana;fontSize=13;fontStyle=1" vertex="1" parent="1">
          <mxGeometry x="245" y="175" width="120" height="75" as="geometry" />
        </mxCell>
        <mxCell id="caR4HVADCC_KzCn6fIui-46" value="Fast Parallel Computing supported by TensorFlow 2" style="text;html=1;strokeColor=#E5CCFF;fillColor=#d0cee2;align=center;verticalAlign=middle;whiteSpace=wrap;rounded=0;fontFamily=Verdana;fontSize=13;fontStyle=1" vertex="1" parent="1">
          <mxGeometry x="490" y="175" width="120" height="80" as="geometry" />
        </mxCell>
        <mxCell id="caR4HVADCC_KzCn6fIui-47" value="Probabilistic outcomes" style="text;html=1;strokeColor=#E5CCFF;fillColor=#d0cee2;align=center;verticalAlign=middle;whiteSpace=wrap;rounded=0;fontFamily=Verdana;fontSize=13;fontStyle=1" vertex="1" parent="1">
          <mxGeometry x="775" y="175" width="120" height="80" as="geometry" />
        </mxCell>
      </root>
    </mxGraphModel>
  </diagram>
</mxfile>
